NotoAmalgamated-Thin.ufo
<glyph name="exclam.sans" format="2">
  <advance width="322"/>
  <unicode hex="0021"/>
  <outline>
    <contour>
      <point x="165" y="714" type="line"/>
      <point x="167" y="174" type="line"/>
      <point x="191" y="174" type="line"/>
      <point x="193" y="714" type="line"/>
    </contour>
    <contour>
      <point x="152" y="23" type="curve"/>
      <point x="152" y="23" type="line"/>
      <point x="152" y="6"/>
      <point x="157" y="-8"/>
      <point x="177" y="-8" type="curve"/>
      <point x="201" y="-8"/>
      <point x="204" y="6"/>
      <point x="204" y="23" type="curve"/>
      <point x="204" y="39"/>
      <point x="201" y="54"/>
      <point x="177" y="54" type="curve"/>
      <point x="157" y="54"/>
      <point x="152" y="39"/>
    </contour>
  </outline>
</glyph>
<glyph name="quotedbl" format="2">
  <advance width="320"/>
  <unicode hex="0022"/>
  <note>
quotedbl
</note>
  <outline>
    <contour>
      <point x="101" y="714" type="line"/>
      <point x="73" y="714" type="line"/>
      <point x="77" y="456" type="line"/>
      <point x="97" y="456" type="line"/>
    </contour>
    <contour>
      <point x="247" y="714" type="line"/>
      <point x="219" y="714" type="line"/>
      <point x="223" y="456" type="line"/>
      <point x="243" y="456" type="line"/>
    </contour>
  </outline>
</glyph>
<glyph name="quotedbl.sans" format="2">
  <advance width="400"/>
  <unicode hex="0022"/>
  <outline>
    <contour>
      <point x="121" y="729" type="line"/>
      <point x="124" y="471" type="line"/>
      <point x="147" y="471" type="line"/>
      <point x="150" y="729" type="line"/>
    </contour>
    <contour>
      <point x="267" y="729" type="line"/>
      <point x="270" y="471" type="line"/>
      <point x="293" y="471" type="line"/>
      <point x="296" y="729" type="line"/>
    </contour>
  </outline>
</glyph>
<glyph name="numbersign" format="2">
  <advance width="619"/>
  <unicode hex="0023"/>
  <outline>
    <contour>
      <point x="35" y="194" type="line"/>
      <point x="167" y="194" type="line"/>
      <point x="130" y="0" type="line"/>
      <point x="157" y="0" type="line"/>
      <point x="194" y="194" type="line"/>
      <point x="377" y="194" type="line"/>
      <point x="340" y="0" type="line"/>
      <point x="367" y="0" type="line"/>
      <point x="404" y="194" type="line"/>
      <point x="547" y="194" type="line"/>
      <point x="547" y="220" type="line"/>
      <point x="409" y="220" type="line"/>
      <point x="447" y="414" type="line"/>
      <point x="584" y="414" type="line"/>
      <point x="584" y="440" type="line"/>
      <point x="452" y="440" type="line"/>
      <point x="489" y="632" type="line"/>
      <point x="462" y="632" type="line"/>
      <point x="425" y="440" type="line"/>
      <point x="242" y="440" type="line"/>
      <point x="279" y="632" type="line"/>
      <point x="252" y="632" type="line"/>
      <point x="215" y="440" type="line"/>
      <point x="72" y="440" type="line"/>
      <point x="72" y="414" type="line"/>
      <point x="210" y="414" type="line"/>
      <point x="172" y="220" type="line"/>
      <point x="35" y="220" type="line"/>
    </contour>
    <contour>
      <point x="420" y="414" type="line"/>
      <point x="382" y="220" type="line"/>
      <point x="199" y="220" type="line"/>
      <point x="237" y="414" type="line"/>
    </contour>
  </outline>
</glyph>
<glyph name="percent.sans" format="2">
  <advance width="793"/>
  <unicode hex="0025"/>
  <outline>
    <contour>
      <point x="609" y="622" type="line"/>
      <point x="577" y="622" type="line"/>
      <point x="185" y="0" type="line"/>
      <point x="216" y="0" type="line"/>
    </contour>
    <contour>
      <point x="195" y="276" type="curve"/>
      <point x="195" y="276" type="line"/>
      <point x="281" y="276"/>
      <point x="333" y="339"/>
      <point x="333" y="455" type="curve"/>
      <point x="333" y="566"/>
      <point x="289" y="632"/>
      <point x="197" y="632" type="curve"/>
      <point x="112" y="632"/>
      <point x="59" y="568"/>
      <point x="59" y="455" type="curve"/>
      <point x="59" y="341"/>
      <point x="107" y="276"/>
    </contour>
    <contour>
      <point x="195" y="301" type="curve"/>
      <point x="195" y="301" type="line"/>
      <point x="125" y="301"/>
      <point x="86" y="353"/>
      <point x="86" y="455" type="curve"/>
      <point x="86" y="557"/>
      <point x="127" y="607"/>
      <point x="197" y="607" type="curve"/>
      <point x="273" y="607"/>
      <point x="306" y="553"/>
      <point x="306" y="455" type="curve"/>
      <point x="306" y="355"/>
      <point x="269" y="301"/>
    </contour>
    <contour>
      <point x="596" y="-10" type="curve"/>
      <point x="596" y="-10" type="line"/>
      <point x="682" y="-10"/>
      <point x="734" y="53"/>
      <point x="734" y="169" type="curve"/>
      <point x="734" y="280"/>
      <point x="690" y="346"/>
      <point x="598" y="346" type="curve"/>
      <point x="513" y="346"/>
      <point x="460" y="282"/>
      <point x="460" y="169" type="curve"/>
      <point x="460" y="55"/>
      <point x="508" y="-10"/>
    </contour>
    <contour>
      <point x="596" y="15" type="curve"/>
      <point x="596" y="15" type="line"/>
      <point x="526" y="15"/>
      <point x="487" y="67"/>
      <point x="487" y="169" type="curve"/>
      <point x="487" y="271"/>
      <point x="528" y="321"/>
      <point x="598" y="321" type="curve"/>
      <point x="674" y="321"/>
      <point x="707" y="267"/>
      <point x="707" y="169" type="curve"/>
      <point x="707" y="69"/>
      <point x="670" y="15"/>
    </contour>
  </outline>
</glyph>
<glyph name="quotesingle" format="2">
  <advance width="172"/>
  <unicode hex="0027"/>
  <note>
quotesingle
</note>
  <outline>
    <contour>
      <point x="101" y="714" type="line"/>
      <point x="73" y="714" type="line"/>
      <point x="77" y="456" type="line"/>
      <point x="97" y="456" type="line"/>
    </contour>
  </outline>
</glyph>
<glyph name="quotesingle.sans" format="2">
  <advance width="254"/>
  <unicode hex="0027"/>
  <outline>
    <contour>
      <point x="121" y="729" type="line"/>
      <point x="124" y="471" type="line"/>
      <point x="147" y="471" type="line"/>
      <point x="150" y="729" type="line"/>
    </contour>
  </outline>
</glyph>
<glyph name="parenleft" format="2">
  <advance width="255"/>
  <unicode hex="0028"/>
  <outline>
    <contour>
      <point x="42" y="274" type="curve" smooth="yes"/>
      <point x="42" y="99"/>
      <point x="96" y="-46"/>
      <point x="187" y="-158" type="curve"/>
      <point x="220" y="-158" type="line"/>
      <point x="119" y="-39"/>
      <point x="69" y="109"/>
      <point x="69" y="275" type="curve" smooth="yes"/>
      <point x="69" y="443"/>
      <point x="117" y="596"/>
      <point x="220" y="714" type="curve"/>
      <point x="187" y="714" type="line"/>
      <point x="96" y="606"/>
      <point x="42" y="451"/>
    </contour>
  </outline>
</glyph>
<glyph name="parenleft.sans" format="2">
  <advance width="323"/>
  <unicode hex="0028"/>
  <outline>
    <contour>
      <point x="226" y="-165" type="curve"/>
      <point x="226" y="-165" type="line"/>
      <point x="256" y="-165" type="line"/>
      <point x="159" y="-29"/>
      <point x="105" y="140"/>
      <point x="105" y="330" type="curve"/>
      <point x="105" y="522"/>
      <point x="159" y="696"/>
      <point x="256" y="832" type="curve"/>
      <point x="226" y="832" type="line"/>
      <point x="137" y="709"/>
      <point x="78" y="531"/>
      <point x="78" y="329" type="curve"/>
      <point x="78" y="129"/>
      <point x="137" y="-37"/>
    </contour>
  </outline>
</glyph>
<glyph name="parenright.sans" format="2">
  <advance width="323"/>
  <unicode hex="0029"/>
  <outline>
    <contour>
      <point x="67" y="-165" type="curve"/>
      <point x="67" y="-165" type="line"/>
      <point x="97" y="-165" type="line"/>
      <point x="186" y="-42"/>
      <point x="245" y="136"/>
      <point x="245" y="338" type="curve"/>
      <point x="245" y="538"/>
      <point x="186" y="704"/>
      <point x="97" y="832" type="curve"/>
      <point x="67" y="832" type="line"/>
      <point x="164" y="696"/>
      <point x="218" y="527"/>
      <point x="218" y="337" type="curve"/>
      <point x="218" y="145"/>
      <point x="164" y="-29"/>
    </contour>
  </outline>
</glyph>
<glyph name="asterisk.sans" format="2">
  <advance width="561"/>
  <unicode hex="002A"/>
  <outline>
    <contour>
      <point x="269" y="523" type="line"/>
      <point x="148" y="361" type="line"/>
      <point x="171" y="345" type="line"/>
      <point x="286" y="512" type="line"/>
      <point x="402" y="344" type="line"/>
      <point x="425" y="361" type="line"/>
      <point x="303" y="523" type="line"/>
      <point x="496" y="581" type="line"/>
      <point x="488" y="608" type="line"/>
      <point x="297" y="542" type="line"/>
      <point x="300" y="745" type="line"/>
      <point x="272" y="745" type="line"/>
      <point x="275" y="542" type="line"/>
      <point x="84" y="608" type="line"/>
      <point x="75" y="581" type="line"/>
    </contour>
  </outline>
</glyph>
<glyph name="plus" format="2">
  <advance width="551"/>
  <unicode hex="002B"/>
  <outline>
    <contour>
      <point x="58" y="309" type="line"/>
      <point x="263" y="309" type="line"/>
      <point x="263" y="103" type="line"/>
      <point x="289" y="103" type="line"/>
      <point x="289" y="309" type="line"/>
      <point x="494" y="309" type="line"/>
      <point x="494" y="335" type="line"/>
      <point x="289" y="335" type="line"/>
      <point x="289" y="538" type="line"/>
      <point x="263" y="538" type="line"/>
      <point x="263" y="335" type="line"/>
      <point x="58" y="335" type="line"/>
    </contour>
  </outline>
</glyph>
<glyph name="plus.sans" format="2">
  <advance width="551"/>
  <unicode hex="002B"/>
  <outline>
    <contour>
      <point x="58" y="402" type="line"/>
      <point x="263" y="402" type="line"/>
      <point x="263" y="196" type="line"/>
      <point x="289" y="196" type="line"/>
      <point x="289" y="402" type="line"/>
      <point x="494" y="402" type="line"/>
      <point x="494" y="428" type="line"/>
      <point x="289" y="428" type="line"/>
      <point x="289" y="631" type="line"/>
      <point x="263" y="631" type="line"/>
      <point x="263" y="428" type="line"/>
      <point x="58" y="428" type="line"/>
    </contour>
  </outline>
</glyph>
<glyph name="comma" format="2">
  <advance width="183"/>
  <unicode hex="002C"/>
  <outline>
    <contour>
      <point x="125" y="104" type="curve"/>
      <point x="122" y="116" type="line"/>
      <point x="94" y="116" type="line"/>
      <point x="83" y="40"/>
      <point x="67" y="-32"/>
      <point x="38" y="-129" type="curve"/>
      <point x="60" y="-129" type="line"/>
      <point x="88" y="-60"/>
      <point x="110" y="30"/>
    </contour>
  </outline>
</glyph>
<glyph name="comma.sans" format="2">
  <advance width="208"/>
  <unicode hex="002C"/>
  <outline>
    <contour>
      <point x="47" y="-129" type="curve"/>
      <point x="47" y="-129" type="line"/>
      <point x="69" y="-129" type="line"/>
      <point x="97" y="-60"/>
      <point x="119" y="30"/>
      <point x="134" y="104" type="curve"/>
      <point x="131" y="116" type="line"/>
      <point x="103" y="116" type="line"/>
      <point x="92" y="40"/>
      <point x="76" y="-32"/>
    </contour>
  </outline>
</glyph>
<glyph name="period" format="2">
  <advance width="220"/>
  <unicode hex="002E"/>
  <outline>
    <contour>
      <point x="85" y="23" type="curve" smooth="yes"/>
      <point x="85" y="6"/>
      <point x="90" y="-8"/>
      <point x="110" y="-8" type="curve" smooth="yes"/>
      <point x="134" y="-8"/>
      <point x="137" y="6"/>
      <point x="137" y="23" type="curve" smooth="yes"/>
      <point x="137" y="39"/>
      <point x="134" y="54"/>
      <point x="110" y="54" type="curve" smooth="yes"/>
      <point x="90" y="54"/>
      <point x="85" y="39"/>
    </contour>
  </outline>
</glyph>
<glyph name="slash" format="2">
  <advance width="322"/>
  <unicode hex="002F"/>
  <outline>
    <contour>
      <point x="309" y="714" type="line"/>
      <point x="281" y="714" type="line"/>
      <point x="13" y="0" type="line"/>
      <point x="41" y="0" type="line"/>
    </contour>
  </outline>
</glyph>
<glyph name="slash.sans" format="2">
  <advance width="386"/>
  <unicode hex="002F"/>
  <outline>
    <contour>
      <point x="338" y="833" type="line"/>
      <point x="311" y="833" type="line"/>
      <point x="48" y="-166" type="line"/>
      <point x="75" y="-166" type="line"/>
    </contour>
  </outline>
</glyph>
<glyph name="zero.sans" format="2">
  <advance width="551"/>
  <unicode hex="0030"/>
  <outline>
    <contour>
      <point x="275" y="-10" type="curve"/>
      <point x="275" y="-10" type="line"/>
      <point x="427" y="-10"/>
      <point x="487" y="121"/>
      <point x="487" y="358" type="curve"/>
      <point x="487" y="595"/>
      <point x="416" y="724"/>
      <point x="275" y="724" type="curve"/>
      <point x="125" y="724"/>
      <point x="65" y="594"/>
      <point x="65" y="358" type="curve"/>
      <point x="65" y="120"/>
      <point x="136" y="-10"/>
    </contour>
    <contour>
      <point x="275" y="16" type="curve"/>
      <point x="275" y="16" type="line"/>
      <point x="145" y="16"/>
      <point x="92" y="138"/>
      <point x="92" y="358" type="curve"/>
      <point x="92" y="579"/>
      <point x="142" y="698"/>
      <point x="275" y="698" type="curve"/>
      <point x="407" y="698"/>
      <point x="460" y="577"/>
      <point x="460" y="358" type="curve"/>
      <point x="460" y="136"/>
      <point x="410" y="16"/>
    </contour>
  </outline>
</glyph>
<glyph name="one.sans" format="2">
  <advance width="551"/>
  <unicode hex="0031"/>
  <outline>
    <contour>
      <point x="297" y="563" type="curve"/>
      <point x="297" y="0" type="line"/>
      <point x="323" y="0" type="line"/>
      <point x="323" y="714" type="line"/>
      <point x="300" y="714" type="line"/>
      <point x="105" y="572" type="line"/>
      <point x="121" y="551" type="line"/>
      <point x="244" y="642" type="line" smooth="yes"/>
      <point x="269" y="661"/>
      <point x="282" y="671"/>
      <point x="298" y="685" type="curve"/>
      <point x="297" y="658"/>
      <point x="297" y="620"/>
    </contour>
  </outline>
</glyph>
<glyph name="two.sans" format="2">
  <advance width="551"/>
  <unicode hex="0032"/>
  <outline>
    <contour>
      <point x="276" y="261" type="curve"/>
      <point x="52" y="24" type="line"/>
      <point x="52" y="0" type="line"/>
      <point x="484" y="0" type="line"/>
      <point x="484" y="26" type="line"/>
      <point x="88" y="26" type="line"/>
      <point x="88" y="27" type="line"/>
      <point x="296" y="247" type="line" smooth="yes"/>
      <point x="393" y="349"/>
      <point x="451" y="419"/>
      <point x="451" y="539" type="curve"/>
      <point x="451" y="652"/>
      <point x="378" y="724"/>
      <point x="263" y="724" type="curve"/>
      <point x="201" y="724"/>
      <point x="134" y="705"/>
      <point x="73" y="655" type="curve"/>
      <point x="88" y="634" type="line"/>
      <point x="141" y="677"/>
      <point x="204" y="698"/>
      <point x="261" y="698" type="curve"/>
      <point x="363" y="698"/>
      <point x="424" y="639"/>
      <point x="424" y="539" type="curve"/>
      <point x="424" y="428"/>
      <point x="373" y="363"/>
    </contour>
  </outline>
</glyph>
<glyph name="three.sans" format="2">
  <advance width="551"/>
  <unicode hex="0033"/>
  <outline>
    <contour>
      <point x="229" y="-10" type="curve"/>
      <point x="229" y="-10" type="line"/>
      <point x="389" y="-10"/>
      <point x="466" y="70"/>
      <point x="466" y="194" type="curve"/>
      <point x="466" y="292"/>
      <point x="401" y="360"/>
      <point x="291" y="371" type="curve"/>
      <point x="291" y="372" type="line"/>
      <point x="376" y="390"/>
      <point x="443" y="445"/>
      <point x="443" y="550" type="curve"/>
      <point x="443" y="642"/>
      <point x="383" y="724"/>
      <point x="254" y="724" type="curve"/>
      <point x="169" y="724"/>
      <point x="109" y="692"/>
      <point x="50" y="657" type="curve"/>
      <point x="65" y="634" type="line"/>
      <point x="129" y="675"/>
      <point x="181" y="698"/>
      <point x="255" y="698" type="curve"/>
      <point x="343" y="698"/>
      <point x="416" y="653"/>
      <point x="416" y="548" type="curve"/>
      <point x="416" y="450"/>
      <point x="347" y="384"/>
      <point x="207" y="384" type="curve"/>
      <point x="150" y="384" type="line"/>
      <point x="150" y="358" type="line"/>
      <point x="208" y="358" type="line" smooth="yes"/>
      <point x="335" y="358"/>
      <point x="439" y="316"/>
      <point x="439" y="193" type="curve"/>
      <point x="439" y="77"/>
      <point x="367" y="16"/>
      <point x="227" y="16" type="curve"/>
      <point x="149" y="16"/>
      <point x="96" y="28"/>
      <point x="42" y="56" type="curve"/>
      <point x="42" y="27" type="line"/>
      <point x="95" y="1"/>
      <point x="159" y="-10"/>
    </contour>
  </outline>
</glyph>
<glyph name="four.sans" format="2">
  <advance width="551"/>
  <unicode hex="0034"/>
  <outline>
    <contour>
      <point x="25" y="193" type="line"/>
      <point x="377" y="193" type="line"/>
      <point x="377" y="0" type="line"/>
      <point x="404" y="0" type="line"/>
      <point x="404" y="193" type="line"/>
      <point x="527" y="193" type="line"/>
      <point x="527" y="219" type="line"/>
      <point x="404" y="219" type="line"/>
      <point x="404" y="721" type="line"/>
      <point x="375" y="721" type="line"/>
      <point x="25" y="214" type="line"/>
    </contour>
    <contour>
      <point x="378" y="448" type="curve"/>
      <point x="378" y="219" type="line"/>
      <point x="60" y="219" type="line"/>
      <point x="333" y="614" type="line" smooth="yes"/>
      <point x="353" y="643"/>
      <point x="367" y="665"/>
      <point x="380" y="690" type="curve"/>
      <point x="382" y="689" type="line"/>
      <point x="378" y="627"/>
      <point x="378" y="577"/>
    </contour>
  </outline>
</glyph>
<glyph name="five.sans" format="2">
  <advance width="551"/>
  <unicode hex="0035"/>
  <outline>
    <contour>
      <point x="254" y="-10" type="curve"/>
      <point x="254" y="-10" type="line"/>
      <point x="406" y="-10"/>
      <point x="481" y="74"/>
      <point x="481" y="220" type="curve"/>
      <point x="481" y="351"/>
      <point x="393" y="426"/>
      <point x="259" y="426" type="curve"/>
      <point x="203" y="426"/>
      <point x="153" y="417"/>
      <point x="117" y="407" type="curve"/>
      <point x="140" y="688" type="line"/>
      <point x="426" y="688" type="line"/>
      <point x="426" y="714" type="line"/>
      <point x="116" y="714" type="line"/>
      <point x="89" y="393" type="line"/>
      <point x="111" y="379" type="line"/>
      <point x="163" y="393"/>
      <point x="203" y="400"/>
      <point x="257" y="400" type="curve"/>
      <point x="375" y="400"/>
      <point x="454" y="343"/>
      <point x="454" y="215" type="curve"/>
      <point x="454" y="81"/>
      <point x="378" y="16"/>
      <point x="257" y="16" type="curve"/>
      <point x="182" y="16"/>
      <point x="123" y="33"/>
      <point x="72" y="66" type="curve"/>
      <point x="72" y="35" type="line"/>
      <point x="118" y="7"/>
      <point x="187" y="-10"/>
    </contour>
  </outline>
</glyph>
<glyph name="six.sans" format="2">
  <advance width="551"/>
  <unicode hex="0036"/>
  <outline>
    <contour>
      <point x="291" y="-10" type="curve"/>
      <point x="291" y="-10" type="line"/>
      <point x="414" y="-10"/>
      <point x="492" y="78"/>
      <point x="492" y="221" type="curve"/>
      <point x="492" y="340"/>
      <point x="421" y="427"/>
      <point x="297" y="427" type="curve"/>
      <point x="205" y="427"/>
      <point x="140" y="379"/>
      <point x="105" y="319" type="curve"/>
      <point x="103" y="319" type="line"/>
      <point x="108" y="529"/>
      <point x="169" y="698"/>
      <point x="367" y="698" type="curve"/>
      <point x="395" y="698"/>
      <point x="426" y="696"/>
      <point x="448" y="688" type="curve"/>
      <point x="448" y="716" type="line"/>
      <point x="429" y="721"/>
      <point x="395" y="724"/>
      <point x="372" y="724" type="curve"/>
      <point x="134" y="724"/>
      <point x="77" y="512"/>
      <point x="77" y="300" type="curve"/>
      <point x="77" y="88"/>
      <point x="162" y="-10"/>
    </contour>
    <contour>
      <point x="292" y="16" type="curve"/>
      <point x="292" y="16" type="line"/>
      <point x="166" y="16"/>
      <point x="106" y="127"/>
      <point x="106" y="257" type="curve"/>
      <point x="106" y="313"/>
      <point x="172" y="401"/>
      <point x="295" y="401" type="curve"/>
      <point x="405" y="401"/>
      <point x="465" y="325"/>
      <point x="465" y="221" type="curve"/>
      <point x="465" y="86"/>
      <point x="397" y="16"/>
    </contour>
  </outline>
</glyph>
<glyph name="seven.sans" format="2">
  <advance width="551"/>
  <unicode hex="0037"/>
  <outline>
    <contour>
      <point x="56" y="688" type="line"/>
      <point x="461" y="688" type="line"/>
      <point x="168" y="0" type="line"/>
      <point x="198" y="0" type="line"/>
      <point x="491" y="692" type="line"/>
      <point x="491" y="714" type="line"/>
      <point x="56" y="714" type="line"/>
    </contour>
  </outline>
</glyph>
<glyph name="eight.sans" format="2">
  <advance width="551"/>
  <unicode hex="0038"/>
  <outline>
    <contour>
      <point x="272" y="-10" type="curve"/>
      <point x="272" y="-10" type="line"/>
      <point x="401" y="-10"/>
      <point x="486" y="56"/>
      <point x="486" y="165" type="curve"/>
      <point x="486" y="268"/>
      <point x="398" y="332"/>
      <point x="303" y="377" type="curve"/>
      <point x="392" y="418"/>
      <point x="466" y="461"/>
      <point x="466" y="559" type="curve"/>
      <point x="466" y="668"/>
      <point x="385" y="724"/>
      <point x="279" y="724" type="curve"/>
      <point x="179" y="724"/>
      <point x="92" y="664"/>
      <point x="92" y="560" type="curve"/>
      <point x="92" y="471"/>
      <point x="157" y="423"/>
      <point x="245" y="377" type="curve"/>
      <point x="140" y="334"/>
      <point x="66" y="270"/>
      <point x="66" y="169" type="curve"/>
      <point x="66" y="63"/>
      <point x="139" y="-10"/>
    </contour>
    <contour>
      <point x="273" y="16" type="curve"/>
      <point x="273" y="16" type="line"/>
      <point x="157" y="16"/>
      <point x="93" y="76"/>
      <point x="93" y="170" type="curve"/>
      <point x="93" y="257"/>
      <point x="153" y="316"/>
      <point x="270" y="365" type="curve"/>
      <point x="397" y="311"/>
      <point x="459" y="244"/>
      <point x="459" y="162" type="curve"/>
      <point x="459" y="74"/>
      <point x="392" y="16"/>
    </contour>
    <contour>
      <point x="273" y="389" type="curve"/>
      <point x="273" y="389" type="line"/>
      <point x="169" y="442"/>
      <point x="119" y="480"/>
      <point x="119" y="560" type="curve"/>
      <point x="119" y="650"/>
      <point x="196" y="698"/>
      <point x="278" y="698" type="curve"/>
      <point x="368" y="698"/>
      <point x="439" y="653"/>
      <point x="439" y="557" type="curve"/>
      <point x="439" y="467"/>
      <point x="366" y="431"/>
    </contour>
  </outline>
</glyph>
<glyph name="nine.sans" format="2">
  <advance width="551"/>
  <unicode hex="0039"/>
  <outline>
    <contour>
      <point x="183" y="-10" type="curve"/>
      <point x="183" y="-10" type="line"/>
      <point x="421" y="-10"/>
      <point x="474" y="199"/>
      <point x="474" y="414" type="curve"/>
      <point x="474" y="626"/>
      <point x="389" y="724"/>
      <point x="260" y="724" type="curve"/>
      <point x="135" y="724"/>
      <point x="59" y="635"/>
      <point x="59" y="493" type="curve"/>
      <point x="59" y="375"/>
      <point x="130" y="287"/>
      <point x="254" y="287" type="curve"/>
      <point x="346" y="287"/>
      <point x="411" y="335"/>
      <point x="446" y="395" type="curve"/>
      <point x="448" y="395" type="line"/>
      <point x="443" y="182"/>
      <point x="386" y="16"/>
      <point x="188" y="16" type="curve"/>
      <point x="160" y="16"/>
      <point x="129" y="18"/>
      <point x="107" y="26" type="curve"/>
      <point x="107" y="-2" type="line"/>
      <point x="126" y="-7"/>
      <point x="160" y="-10"/>
    </contour>
    <contour>
      <point x="256" y="313" type="curve"/>
      <point x="256" y="313" type="line"/>
      <point x="146" y="313"/>
      <point x="86" y="389"/>
      <point x="86" y="493" type="curve"/>
      <point x="86" y="629"/>
      <point x="154" y="698"/>
      <point x="259" y="698" type="curve"/>
      <point x="385" y="698"/>
      <point x="445" y="587"/>
      <point x="445" y="457" type="curve"/>
      <point x="445" y="401"/>
      <point x="379" y="313"/>
    </contour>
  </outline>
</glyph>
<glyph name="less" format="2">
  <advance width="551"/>
  <unicode hex="003C"/>
  <outline>
    <contour>
      <point x="57" y="333" type="line"/>
      <point x="57" y="307" type="line"/>
      <point x="493" y="95" type="line"/>
      <point x="493" y="125" type="line"/>
      <point x="88" y="320" type="line"/>
      <point x="493" y="516" type="line"/>
      <point x="493" y="546" type="line"/>
    </contour>
  </outline>
</glyph>
<glyph name="less.sans" format="2">
  <advance width="551"/>
  <unicode hex="003C"/>
  <outline>
    <contour>
      <point x="57" y="426" type="line"/>
      <point x="57" y="400" type="line"/>
      <point x="493" y="188" type="line"/>
      <point x="493" y="218" type="line"/>
      <point x="88" y="413" type="line"/>
      <point x="493" y="609" type="line"/>
      <point x="493" y="639" type="line"/>
    </contour>
  </outline>
</glyph>
<glyph name="equal" format="2">
  <advance width="551"/>
  <unicode hex="003D"/>
  <outline>
    <contour>
      <point x="494" y="435" type="line"/>
      <point x="58" y="435" type="line"/>
      <point x="58" y="409" type="line"/>
      <point x="494" y="409" type="line"/>
    </contour>
    <contour>
      <point x="494" y="231" type="line"/>
      <point x="58" y="231" type="line"/>
      <point x="58" y="206" type="line"/>
      <point x="494" y="206" type="line"/>
    </contour>
  </outline>
</glyph>
<glyph name="equal.sans" format="2">
  <advance width="551"/>
  <unicode hex="003D"/>
  <outline>
    <contour>
      <point x="494" y="528" type="line"/>
      <point x="58" y="528" type="line"/>
      <point x="58" y="502" type="line"/>
      <point x="494" y="502" type="line"/>
    </contour>
    <contour>
      <point x="494" y="324" type="line"/>
      <point x="58" y="324" type="line"/>
      <point x="58" y="299" type="line"/>
      <point x="494" y="299" type="line"/>
    </contour>
  </outline>
</glyph>
<glyph name="greater" format="2">
  <advance width="551"/>
  <unicode hex="003E"/>
  <outline>
    <contour>
      <point x="462" y="321" type="line"/>
      <point x="57" y="125" type="line"/>
      <point x="57" y="95" type="line"/>
      <point x="493" y="308" type="line"/>
      <point x="493" y="334" type="line"/>
      <point x="57" y="546" type="line"/>
      <point x="57" y="516" type="line"/>
    </contour>
  </outline>
</glyph>
<glyph name="greater.sans" format="2">
  <advance width="551"/>
  <unicode hex="003E"/>
  <outline>
    <contour>
      <point x="462" y="414" type="line"/>
      <point x="57" y="218" type="line"/>
      <point x="57" y="188" type="line"/>
      <point x="493" y="401" type="line"/>
      <point x="493" y="427" type="line"/>
      <point x="57" y="639" type="line"/>
      <point x="57" y="609" type="line"/>
    </contour>
  </outline>
</glyph>
<glyph name="question.sans" format="2">
  <advance width="480"/>
  <unicode hex="003F"/>
  <outline>
    <contour>
      <point x="177" y="186" type="curve"/>
      <point x="177" y="174" type="line"/>
      <point x="203" y="174" type="line"/>
      <point x="203" y="186" type="line" smooth="yes"/>
      <point x="203" y="277"/>
      <point x="223" y="314"/>
      <point x="275" y="350" type="curve"/>
      <point x="354" y="405"/>
      <point x="407" y="454"/>
      <point x="407" y="554" type="curve"/>
      <point x="407" y="668"/>
      <point x="333" y="724"/>
      <point x="225" y="724" type="curve"/>
      <point x="163" y="724"/>
      <point x="121" y="708"/>
      <point x="71" y="685" type="curve"/>
      <point x="81" y="659" type="line"/>
      <point x="130" y="685"/>
      <point x="172" y="698"/>
      <point x="226" y="698" type="curve"/>
      <point x="314" y="698"/>
      <point x="380" y="654"/>
      <point x="380" y="554" type="curve"/>
      <point x="380" y="463"/>
      <point x="334" y="422"/>
      <point x="262" y="371" type="curve"/>
      <point x="193" y="322"/>
      <point x="177" y="285"/>
    </contour>
    <contour>
      <point x="166" y="23" type="curve"/>
      <point x="166" y="23" type="line"/>
      <point x="166" y="6"/>
      <point x="171" y="-8"/>
      <point x="191" y="-8" type="curve"/>
      <point x="215" y="-8"/>
      <point x="218" y="6"/>
      <point x="218" y="23" type="curve"/>
      <point x="218" y="39"/>
      <point x="215" y="54"/>
      <point x="191" y="54" type="curve"/>
      <point x="171" y="54"/>
      <point x="166" y="39"/>
    </contour>
  </outline>
</glyph>
<glyph name="bracketleft.sans" format="2">
  <advance width="321"/>
  <unicode hex="005B"/>
  <outline>
    <contour>
      <point x="261" y="832" type="line"/>
      <point x="112" y="832" type="line"/>
      <point x="112" y="-166" type="line"/>
      <point x="261" y="-166" type="line"/>
      <point x="261" y="-140" type="line"/>
      <point x="138" y="-140" type="line"/>
      <point x="138" y="806" type="line"/>
      <point x="261" y="806" type="line"/>
    </contour>
  </outline>
</glyph>
<glyph name="backslash" format="2">
  <advance width="384"/>
  <unicode hex="005C"/>
  <outline>
    <contour>
      <point x="75" y="833" type="line"/>
      <point x="48" y="833" type="line"/>
      <point x="309" y="-166" type="line"/>
      <point x="336" y="-166" type="line"/>
    </contour>
  </outline>
</glyph>
<glyph name="backslash.sans" format="2">
  <advance width="384"/>
  <unicode hex="005C"/>
  <outline>
    <contour>
      <point x="75" y="926" type="line"/>
      <point x="48" y="926" type="line"/>
      <point x="309" y="-73" type="line"/>
      <point x="336" y="-73" type="line"/>
    </contour>
  </outline>
</glyph>
<glyph name="bracketright" format="2">
  <advance width="313"/>
  <unicode hex="005D"/>
  <note>
bracketright
</note>
  <outline>
    <contour>
      <point x="25" y="-158" type="line"/>
      <point x="225" y="-158" type="line"/>
      <point x="225" y="714" type="line"/>
      <point x="25" y="714" type="line"/>
      <point x="25" y="689" type="line"/>
      <point x="200" y="689" type="line"/>
      <point x="200" y="-133" type="line"/>
      <point x="25" y="-133" type="line"/>
    </contour>
  </outline>
</glyph>
<glyph name="bracketright.sans" format="2">
  <advance width="321"/>
  <unicode hex="005D"/>
  <outline>
    <contour>
      <point x="183" y="-140" type="line"/>
      <point x="60" y="-140" type="line"/>
      <point x="60" y="-166" type="line"/>
      <point x="209" y="-166" type="line"/>
      <point x="209" y="832" type="line"/>
      <point x="60" y="832" type="line"/>
      <point x="60" y="806" type="line"/>
      <point x="183" y="806" type="line"/>
    </contour>
  </outline>
</glyph>
<glyph name="asciicircum" format="2">
  <advance width="551"/>
  <unicode hex="005E"/>
  <outline>
    <contour>
      <point x="291" y="720" type="line"/>
      <point x="261" y="720" type="line"/>
      <point x="45" y="284" type="line"/>
      <point x="75" y="284" type="line"/>
      <point x="276" y="694" type="line"/>
      <point x="472" y="284" type="line"/>
      <point x="502" y="284" type="line"/>
    </contour>
  </outline>
</glyph>
<glyph name="asciicircum.sans" format="2">
  <advance width="551"/>
  <unicode hex="005E"/>
  <outline>
    <contour>
      <point x="291" y="813" type="line"/>
      <point x="261" y="813" type="line"/>
      <point x="45" y="377" type="line"/>
      <point x="75" y="377" type="line"/>
      <point x="276" y="787" type="line"/>
      <point x="472" y="377" type="line"/>
      <point x="502" y="377" type="line"/>
    </contour>
  </outline>
</glyph>
<glyph name="underscore.sans" format="2">
  <advance width="411"/>
  <unicode hex="005F"/>
  <outline>
    <contour>
      <point x="413" y="3" type="line"/>
      <point x="-2" y="3" type="line"/>
      <point x="-2" y="-23" type="line"/>
      <point x="413" y="-23" type="line"/>
    </contour>
  </outline>
</glyph>
<glyph name="braceleft" format="2">
  <advance width="379"/>
  <unicode hex="007B"/>
  <outline>
    <contour>
      <point x="45" y="344" type="curve"/>
      <point x="45" y="344" type="line"/>
      <point x="45" y="320" type="line"/>
      <point x="126" y="320"/>
      <point x="156" y="290"/>
      <point x="156" y="205" type="curve"/>
      <point x="156" y="-34" type="line" smooth="yes"/>
      <point x="156" y="-132"/>
      <point x="202" y="-166"/>
      <point x="319" y="-166" type="curve"/>
      <point x="319" y="-141" type="line"/>
      <point x="213" y="-141"/>
      <point x="181" y="-115"/>
      <point x="181" y="-28" type="curve"/>
      <point x="181" y="209" type="line" smooth="yes"/>
      <point x="181" y="284"/>
      <point x="160" y="318"/>
      <point x="103" y="331" type="curve"/>
      <point x="103" y="333" type="line"/>
      <point x="161" y="344"/>
      <point x="181" y="390"/>
      <point x="181" y="458" type="curve"/>
      <point x="181" y="691" type="line" smooth="yes"/>
      <point x="181" y="772"/>
      <point x="223" y="807"/>
      <point x="319" y="807" type="curve"/>
      <point x="319" y="832" type="line"/>
      <point x="211" y="832"/>
      <point x="156" y="784"/>
      <point x="156" y="697" type="curve"/>
      <point x="156" y="462" type="line" smooth="yes"/>
      <point x="156" y="376"/>
      <point x="126" y="344"/>
    </contour>
  </outline>
</glyph>
<glyph name="braceleft.sans" format="2">
  <advance width="379"/>
  <unicode hex="007B"/>
  <outline>
    <contour>
      <point x="45" y="437" type="curve"/>
      <point x="45" y="437" type="line"/>
      <point x="45" y="413" type="line"/>
      <point x="126" y="413"/>
      <point x="156" y="383"/>
      <point x="156" y="298" type="curve"/>
      <point x="156" y="59" type="line" smooth="yes"/>
      <point x="156" y="-39"/>
      <point x="202" y="-73"/>
      <point x="319" y="-73" type="curve"/>
      <point x="319" y="-48" type="line"/>
      <point x="213" y="-48"/>
      <point x="181" y="-22"/>
      <point x="181" y="65" type="curve"/>
      <point x="181" y="302" type="line" smooth="yes"/>
      <point x="181" y="377"/>
      <point x="160" y="411"/>
      <point x="103" y="424" type="curve"/>
      <point x="103" y="426" type="line"/>
      <point x="161" y="437"/>
      <point x="181" y="483"/>
      <point x="181" y="551" type="curve"/>
      <point x="181" y="784" type="line" smooth="yes"/>
      <point x="181" y="865"/>
      <point x="223" y="900"/>
      <point x="319" y="900" type="curve"/>
      <point x="319" y="925" type="line"/>
      <point x="211" y="925"/>
      <point x="156" y="877"/>
      <point x="156" y="790" type="curve"/>
      <point x="156" y="555" type="line" smooth="yes"/>
      <point x="156" y="469"/>
      <point x="126" y="437"/>
    </contour>
  </outline>
</glyph>
<glyph name="bar" format="2">
  <advance width="540"/>
  <unicode hex="007C"/>
  <outline>
    <contour>
      <point x="283" y="832" type="line"/>
      <point x="257" y="832" type="line"/>
      <point x="257" y="-166" type="line"/>
      <point x="283" y="-166" type="line"/>
    </contour>
  </outline>
</glyph>
<glyph name="bar.sans" format="2">
  <advance width="540"/>
  <unicode hex="007C"/>
  <outline>
    <contour>
      <point x="283" y="925" type="line"/>
      <point x="257" y="925" type="line"/>
      <point x="257" y="-73" type="line"/>
      <point x="283" y="-73" type="line"/>
    </contour>
  </outline>
</glyph>
<glyph name="braceright" format="2">
  <advance width="379"/>
  <unicode hex="007D"/>
  <outline>
    <contour>
      <point x="334" y="322" type="curve"/>
      <point x="334" y="322" type="line"/>
      <point x="334" y="346" type="line"/>
      <point x="253" y="346"/>
      <point x="223" y="376"/>
      <point x="223" y="461" type="curve"/>
      <point x="223" y="700" type="line" smooth="yes"/>
      <point x="223" y="798"/>
      <point x="177" y="832"/>
      <point x="60" y="832" type="curve"/>
      <point x="60" y="807" type="line"/>
      <point x="166" y="807"/>
      <point x="198" y="781"/>
      <point x="198" y="694" type="curve"/>
      <point x="198" y="457" type="line" smooth="yes"/>
      <point x="198" y="382"/>
      <point x="219" y="348"/>
      <point x="276" y="335" type="curve"/>
      <point x="276" y="333" type="line"/>
      <point x="218" y="322"/>
      <point x="198" y="276"/>
      <point x="198" y="208" type="curve"/>
      <point x="198" y="-25" type="line" smooth="yes"/>
      <point x="198" y="-106"/>
      <point x="156" y="-141"/>
      <point x="60" y="-141" type="curve"/>
      <point x="60" y="-166" type="line"/>
      <point x="168" y="-166"/>
      <point x="223" y="-118"/>
      <point x="223" y="-31" type="curve"/>
      <point x="223" y="204" type="line" smooth="yes"/>
      <point x="223" y="290"/>
      <point x="253" y="322"/>
    </contour>
  </outline>
</glyph>
<glyph name="braceright.sans" format="2">
  <advance width="379"/>
  <unicode hex="007D"/>
  <outline>
    <contour>
      <point x="334" y="415" type="curve"/>
      <point x="334" y="415" type="line"/>
      <point x="334" y="439" type="line"/>
      <point x="253" y="439"/>
      <point x="223" y="469"/>
      <point x="223" y="554" type="curve"/>
      <point x="223" y="793" type="line" smooth="yes"/>
      <point x="223" y="891"/>
      <point x="177" y="925"/>
      <point x="60" y="925" type="curve"/>
      <point x="60" y="900" type="line"/>
      <point x="166" y="900"/>
      <point x="198" y="874"/>
      <point x="198" y="787" type="curve"/>
      <point x="198" y="550" type="line" smooth="yes"/>
      <point x="198" y="475"/>
      <point x="219" y="441"/>
      <point x="276" y="428" type="curve"/>
      <point x="276" y="426" type="line"/>
      <point x="218" y="415"/>
      <point x="198" y="369"/>
      <point x="198" y="301" type="curve"/>
      <point x="198" y="68" type="line" smooth="yes"/>
      <point x="198" y="-13"/>
      <point x="156" y="-48"/>
      <point x="60" y="-48" type="curve"/>
      <point x="60" y="-73" type="line"/>
      <point x="168" y="-73"/>
      <point x="223" y="-25"/>
      <point x="223" y="62" type="curve"/>
      <point x="223" y="297" type="line" smooth="yes"/>
      <point x="223" y="383"/>
      <point x="253" y="415"/>
    </contour>
  </outline>
</glyph>
<glyph name="asciitilde" format="2">
  <advance width="551"/>
  <unicode hex="007E"/>
  <outline>
    <contour>
      <point x="56" y="314" type="curve"/>
      <point x="56" y="314" type="line"/>
      <point x="56" y="283" type="line"/>
      <point x="92" y="323"/>
      <point x="131" y="338"/>
      <point x="168" y="338" type="curve"/>
      <point x="213" y="338"/>
      <point x="238" y="325"/>
      <point x="273" y="307" type="curve"/>
      <point x="311" y="287"/>
      <point x="340" y="274"/>
      <point x="386" y="274" type="curve"/>
      <point x="433" y="274"/>
      <point x="472" y="296"/>
      <point x="496" y="323" type="curve"/>
      <point x="496" y="352" type="line"/>
      <point x="458" y="310"/>
      <point x="421" y="298"/>
      <point x="387" y="298" type="curve"/>
      <point x="347" y="298"/>
      <point x="321" y="311"/>
      <point x="286" y="329" type="curve"/>
      <point x="249" y="348"/>
      <point x="222" y="362"/>
      <point x="169" y="362" type="curve"/>
      <point x="126" y="362"/>
      <point x="85" y="343"/>
    </contour>
  </outline>
</glyph>
<glyph name="asciitilde.sans" format="2">
  <advance width="551"/>
  <unicode hex="007E"/>
  <outline>
    <contour>
      <point x="56" y="407" type="curve"/>
      <point x="56" y="407" type="line"/>
      <point x="56" y="376" type="line"/>
      <point x="92" y="416"/>
      <point x="131" y="431"/>
      <point x="168" y="431" type="curve"/>
      <point x="213" y="431"/>
      <point x="238" y="418"/>
      <point x="273" y="400" type="curve"/>
      <point x="311" y="380"/>
      <point x="340" y="367"/>
      <point x="386" y="367" type="curve"/>
      <point x="433" y="367"/>
      <point x="472" y="389"/>
      <point x="496" y="416" type="curve"/>
      <point x="496" y="445" type="line"/>
      <point x="458" y="403"/>
      <point x="421" y="391"/>
      <point x="387" y="391" type="curve"/>
      <point x="347" y="391"/>
      <point x="321" y="404"/>
      <point x="286" y="422" type="curve"/>
      <point x="249" y="441"/>
      <point x="222" y="455"/>
      <point x="169" y="455" type="curve"/>
      <point x="126" y="455"/>
      <point x="85" y="436"/>
    </contour>
  </outline>
</glyph>
<glyph name="multiply" format="2">
  <advance width="570"/>
  <unicode hex="00D7"/>
  <anchor x="285" y="0" name="bottom"/>
  <anchor x="491" y="0" name="bottomright"/>
  <anchor x="285" y="608" name="top"/>
  <anchor x="491" y="608" name="topright"/>
  <outline>
    <contour>
      <point x="482" y="567" type="line"/>
      <point x="285" y="370" type="line"/>
      <point x="88" y="567" type="line"/>
      <point x="71" y="550" type="line"/>
      <point x="268" y="353" type="line"/>
      <point x="71" y="156" type="line"/>
      <point x="88" y="139" type="line"/>
      <point x="285" y="336" type="line"/>
      <point x="482" y="139" type="line"/>
      <point x="499" y="156" type="line"/>
      <point x="302" y="353" type="line"/>
      <point x="499" y="550" type="line"/>
    </contour>
  </outline>
</glyph>
<glyph name="multiply.sans" format="2">
  <advance width="551"/>
  <unicode hex="00D7"/>
  <outline>
    <contour>
      <point x="108" y="136" type="line"/>
      <point x="275" y="303" type="line"/>
      <point x="442" y="136" type="line"/>
      <point x="459" y="153" type="line"/>
      <point x="292" y="320" type="line"/>
      <point x="459" y="487" type="line"/>
      <point x="442" y="504" type="line"/>
      <point x="275" y="337" type="line"/>
      <point x="108" y="504" type="line"/>
      <point x="91" y="487" type="line"/>
      <point x="258" y="320" type="line"/>
      <point x="91" y="153" type="line"/>
    </contour>
  </outline>
</glyph>
<glyph name="divide" format="2">
  <advance width="551"/>
  <unicode hex="00F7"/>
  <outline>
    <contour>
      <point x="494" y="335" type="line"/>
      <point x="58" y="335" type="line"/>
      <point x="58" y="309" type="line"/>
      <point x="494" y="309" type="line"/>
    </contour>
    <contour>
      <point x="275" y="113" type="curve"/>
      <point x="275" y="113" type="line"/>
      <point x="299" y="113"/>
      <point x="302" y="127"/>
      <point x="302" y="144" type="curve"/>
      <point x="302" y="160"/>
      <point x="299" y="175"/>
      <point x="275" y="175" type="curve"/>
      <point x="255" y="175"/>
      <point x="250" y="160"/>
      <point x="250" y="144" type="curve"/>
      <point x="250" y="127"/>
      <point x="255" y="113"/>
    </contour>
    <contour>
      <point x="275" y="469" type="curve"/>
      <point x="275" y="469" type="line"/>
      <point x="299" y="469"/>
      <point x="302" y="483"/>
      <point x="302" y="500" type="curve"/>
      <point x="302" y="516"/>
      <point x="299" y="531"/>
      <point x="275" y="531" type="curve"/>
      <point x="255" y="531"/>
      <point x="250" y="516"/>
      <point x="250" y="500" type="curve"/>
      <point x="250" y="483"/>
      <point x="255" y="469"/>
    </contour>
  </outline>
</glyph>
<glyph name="divide.sans" format="2">
  <advance width="551"/>
  <unicode hex="00F7"/>
  <outline>
    <contour>
      <point x="494" y="428" type="line"/>
      <point x="58" y="428" type="line"/>
      <point x="58" y="402" type="line"/>
      <point x="494" y="402" type="line"/>
    </contour>
    <contour>
      <point x="275" y="206" type="curve"/>
      <point x="275" y="206" type="line"/>
      <point x="299" y="206"/>
      <point x="302" y="220"/>
      <point x="302" y="237" type="curve"/>
      <point x="302" y="253"/>
      <point x="299" y="268"/>
      <point x="275" y="268" type="curve"/>
      <point x="255" y="268"/>
      <point x="250" y="253"/>
      <point x="250" y="237" type="curve"/>
      <point x="250" y="220"/>
      <point x="255" y="206"/>
    </contour>
    <contour>
      <point x="275" y="562" type="curve"/>
      <point x="275" y="562" type="line"/>
      <point x="299" y="562"/>
      <point x="302" y="576"/>
      <point x="302" y="593" type="curve"/>
      <point x="302" y="609"/>
      <point x="299" y="624"/>
      <point x="275" y="624" type="curve"/>
      <point x="255" y="624"/>
      <point x="250" y="609"/>
      <point x="250" y="593" type="curve"/>
      <point x="250" y="576"/>
      <point x="255" y="562"/>
    </contour>
  </outline>
</glyph>
<glyph name="apostrophemod" format="2">
  <advance width="159"/>
  <unicode hex="02BC"/>
  <outline>
    <contour>
      <point x="101" y="541" type="curve"/>
      <point x="95" y="550" type="line"/>
      <point x="73" y="550" type="line"/>
      <point x="66" y="478"/>
      <point x="41" y="375"/>
      <point x="10" y="305" type="curve"/>
      <point x="29" y="305" type="line"/>
      <point x="61" y="374"/>
      <point x="89" y="459"/>
    </contour>
  </outline>
</glyph>
<glyph name="minusmod" format="2">
  <advance width="322"/>
  <unicode hex="02D7"/>
  <outline>
    <contour>
      <point x="40" y="233" type="line"/>
      <point x="282" y="233" type="line"/>
      <point x="282" y="258" type="line"/>
      <point x="40" y="258" type="line"/>
    </contour>
  </outline>
</glyph>
<glyph name="tildecomb" format="2">
  <unicode hex="0303"/>
  <anchor x="213" y="550" name="_top"/>
  <anchor x="213" y="743" name="top"/>
  <outline>
    <contour>
      <point x="50" y="645" type="curve"/>
      <point x="75" y="645" type="line"/>
      <point x="81" y="705"/>
      <point x="110" y="719"/>
      <point x="137" y="719" type="curve" smooth="yes"/>
      <point x="195" y="719"/>
      <point x="216" y="644"/>
      <point x="284" y="644" type="curve" smooth="yes"/>
      <point x="334" y="644"/>
      <point x="370" y="678"/>
      <point x="375" y="743" type="curve"/>
      <point x="350" y="743" type="line"/>
      <point x="344" y="682"/>
      <point x="314" y="668"/>
      <point x="285" y="668" type="curve" smooth="yes"/>
      <point x="231" y="668"/>
      <point x="205" y="743"/>
      <point x="139" y="743" type="curve" smooth="yes"/>
      <point x="88" y="743"/>
      <point x="55" y="711"/>
    </contour>
  </outline>
</glyph>
<glyph name="macronbelowcomb" format="2">
  <unicode hex="0331"/>
  <anchor x="177" y="0" name="_bottom"/>
  <outline>
    <contour>
      <point x="304" y="-77" type="line"/>
      <point x="50" y="-77" type="line"/>
      <point x="50" y="-100" type="line"/>
      <point x="304" y="-100" type="line"/>
    </contour>
  </outline>
</glyph>
<glyph name="number-ar" format="2">
  <advance width="952"/>
  <unicode hex="0600"/>
  <note>
uni0600
</note>
  <outline>
    <contour>
      <point x="872" y="-134" type="line"/>
      <point x="872" y="-110" type="line"/>
      <point x="762" y="-110" type="line"/>
      <point x="762" y="-69"/>
      <point x="777" y="-21"/>
      <point x="805" y="14" type="curve"/>
      <point x="788" y="32" type="line"/>
      <point x="759" y="2"/>
      <point x="741" y="-50"/>
      <point x="741" y="-110" type="curve"/>
      <point x="48" y="-110" type="line"/>
      <point x="48" y="-126"/>
      <point x="51" y="-134"/>
      <point x="67" y="-134" type="curve" smooth="yes"/>
    </contour>
  </outline>
</glyph>
<glyph name="year-ar" format="2">
  <advance width="1522"/>
  <unicode hex="0601"/>
  <note>
uni0601
</note>
  <outline>
    <contour>
      <point x="1320" y="-115" type="curve"/>
      <point x="1331" y="-130" type="line"/>
      <point x="1389" y="-111"/>
      <point x="1432" y="-74"/>
      <point x="1432" y="-31" type="curve" smooth="yes"/>
      <point x="1432" y="-5"/>
      <point x="1413" y="-3"/>
      <point x="1397" y="-3" type="curve" smooth="yes"/>
      <point x="1368" y="-3"/>
      <point x="1266" y="-25"/>
      <point x="1186" y="-44" type="curve" smooth="yes"/>
      <point x="1091" y="-67"/>
      <point x="1025" y="-80"/>
      <point x="961" y="-91" type="curve" smooth="yes"/>
      <point x="864" y="-108"/>
      <point x="773" y="-119"/>
      <point x="681" y="-119" type="curve" smooth="yes"/>
      <point x="634" y="-119"/>
      <point x="599" y="-99"/>
      <point x="599" y="-40" type="curve" smooth="yes"/>
      <point x="599" y="7" type="line"/>
      <point x="575" y="7" type="line"/>
      <point x="575" y="-41" type="line" smooth="yes"/>
      <point x="575" y="-72"/>
      <point x="542" y="-119"/>
      <point x="495" y="-119" type="curve" smooth="yes"/>
      <point x="455" y="-119"/>
      <point x="436" y="-94"/>
      <point x="402" y="-48" type="curve" smooth="yes"/>
      <point x="374" y="-11"/>
      <point x="357" y="7"/>
      <point x="323" y="7" type="curve" smooth="yes"/>
      <point x="286" y="7"/>
      <point x="266" y="-15"/>
      <point x="243" y="-51" type="curve" smooth="yes"/>
      <point x="208" y="-106"/>
      <point x="183" y="-123"/>
      <point x="149" y="-123" type="curve" smooth="yes"/>
      <point x="115" y="-123"/>
      <point x="86" y="-103"/>
      <point x="86" y="-52" type="curve" smooth="yes"/>
      <point x="86" y="-30"/>
      <point x="87" y="-16"/>
      <point x="92" y="7" type="curve"/>
      <point x="67" y="7" type="line"/>
      <point x="63" y="-19"/>
      <point x="62" y="-40"/>
      <point x="62" y="-52" type="curve" smooth="yes"/>
      <point x="62" y="-104"/>
      <point x="89" y="-147"/>
      <point x="150" y="-147" type="curve" smooth="yes"/>
      <point x="189" y="-147"/>
      <point x="222" y="-124"/>
      <point x="245" y="-89" type="curve" smooth="yes"/>
      <point x="260" y="-66"/>
      <point x="274" y="-47"/>
      <point x="282" y="-37" type="curve" smooth="yes"/>
      <point x="292" y="-25"/>
      <point x="307" y="-17"/>
      <point x="321" y="-17" type="curve" smooth="yes"/>
      <point x="337" y="-17"/>
      <point x="350" y="-21"/>
      <point x="363" y="-36" type="curve" smooth="yes"/>
      <point x="367" y="-40"/>
      <point x="378" y="-54"/>
      <point x="395" y="-78" type="curve" smooth="yes"/>
      <point x="424" y="-119"/>
      <point x="448" y="-143"/>
      <point x="489" y="-143" type="curve" smooth="yes"/>
      <point x="534" y="-143"/>
      <point x="562" y="-123"/>
      <point x="585" y="-84" type="curve"/>
      <point x="599" y="-128"/>
      <point x="633" y="-143"/>
      <point x="677" y="-143" type="curve" smooth="yes"/>
      <point x="800" y="-143"/>
      <point x="935" y="-123"/>
      <point x="1072" y="-94" type="curve" smooth="yes"/>
      <point x="1127" y="-82"/>
      <point x="1182" y="-70"/>
      <point x="1238" y="-57" type="curve" smooth="yes"/>
      <point x="1296" y="-43"/>
      <point x="1362" y="-29"/>
      <point x="1383" y="-29" type="curve" smooth="yes"/>
      <point x="1395" y="-29"/>
      <point x="1399" y="-36"/>
      <point x="1399" y="-43" type="curve" smooth="yes"/>
      <point x="1399" y="-64"/>
      <point x="1378" y="-86"/>
    </contour>
  </outline>
</glyph>
<glyph name="footnotemarker-ar" format="2">
  <advance width="1108"/>
  <unicode hex="0602"/>
  <note>
uni0602
</note>
  <outline>
    <contour>
      <point x="1128" y="-112" type="curve"/>
      <point x="381" y="-112" type="line"/>
      <point x="335" y="33"/>
      <point x="256" y="95"/>
      <point x="157" y="95" type="curve" smooth="yes"/>
      <point x="83" y="95"/>
      <point x="25" y="49"/>
      <point x="25" y="-10" type="curve" smooth="yes"/>
      <point x="25" y="-98"/>
      <point x="87" y="-136"/>
      <point x="268" y="-136" type="curve" smooth="yes"/>
      <point x="1118" y="-136" type="line" smooth="yes"/>
      <point x="1133" y="-136"/>
      <point x="1128" y="-130"/>
    </contour>
    <contour>
      <point x="157" y="71" type="curve" smooth="yes"/>
      <point x="245" y="71"/>
      <point x="312" y="17"/>
      <point x="358" y="-112" type="curve"/>
      <point x="231" y="-112"/>
      <point x="200" y="-111"/>
      <point x="153" y="-104" type="curve" smooth="yes"/>
      <point x="76" y="-92"/>
      <point x="49" y="-62"/>
      <point x="49" y="-14" type="curve" smooth="yes"/>
      <point x="49" y="34"/>
      <point x="91" y="71"/>
    </contour>
  </outline>
</glyph>
<glyph name="pagenumber-ar" format="2">
  <advance width="785"/>
  <unicode hex="0603"/>
  <note>
uni0603
</note>
  <outline>
    <contour>
      <point x="41" y="-148" type="curve" smooth="yes"/>
      <point x="710" y="-148" type="line"/>
      <point x="710" y="-42" type="line" smooth="yes"/>
      <point x="710" y="139"/>
      <point x="623" y="190"/>
      <point x="511" y="190" type="curve" smooth="yes"/>
      <point x="428" y="190"/>
      <point x="323" y="144"/>
      <point x="220" y="41" type="curve"/>
      <point x="220" y="157" type="line"/>
      <point x="196" y="157" type="line"/>
      <point x="196" y="-124" type="line"/>
      <point x="20" y="-124" type="line"/>
      <point x="20" y="-140"/>
      <point x="26" y="-148"/>
    </contour>
    <contour>
      <point x="220" y="-124" type="line"/>
      <point x="220" y="12" type="line"/>
      <point x="320" y="105"/>
      <point x="415" y="166"/>
      <point x="513" y="166" type="curve" smooth="yes"/>
      <point x="627" y="166"/>
      <point x="686" y="106"/>
      <point x="686" y="-43" type="curve" smooth="yes"/>
      <point x="686" y="-124" type="line"/>
    </contour>
  </outline>
</glyph>
<glyph name="samvat-ar" format="2">
  <advance width="1616"/>
  <unicode hex="0604"/>
  <outline>
    <contour>
      <point x="1507" y="24" type="line"/>
      <point x="1462" y="24" type="line" smooth="yes"/>
      <point x="1395" y="24"/>
      <point x="1349" y="37"/>
      <point x="1313" y="87" type="curve"/>
      <point x="1315" y="94"/>
      <point x="1318" y="109"/>
      <point x="1318" y="135" type="curve" smooth="yes"/>
      <point x="1318" y="397" type="line"/>
      <point x="1294" y="397" type="line"/>
      <point x="1294" y="132" type="line" smooth="yes"/>
      <point x="1294" y="60"/>
      <point x="1252" y="14"/>
      <point x="1179" y="14" type="curve" smooth="yes"/>
      <point x="1155" y="14"/>
      <point x="1122" y="19"/>
      <point x="1097" y="46" type="curve" smooth="yes"/>
      <point x="1080" y="63"/>
      <point x="1067" y="89"/>
      <point x="1048" y="141" type="curve" smooth="yes"/>
      <point x="1037" y="171"/>
      <point x="1027" y="197"/>
      <point x="1009" y="217" type="curve" smooth="yes"/>
      <point x="993" y="235"/>
      <point x="970" y="246"/>
      <point x="939" y="246" type="curve" smooth="yes"/>
      <point x="892" y="246"/>
      <point x="848" y="212"/>
      <point x="821" y="159" type="curve" smooth="yes"/>
      <point x="811" y="139"/>
      <point x="801" y="112"/>
      <point x="801" y="80" type="curve" smooth="yes"/>
      <point x="801" y="20"/>
      <point x="844" y="-23"/>
      <point x="966" y="-61" type="curve"/>
      <point x="993" y="-58" type="line"/>
      <point x="873" y="-43"/>
      <point x="803" y="-37"/>
      <point x="671" y="-37" type="curve" smooth="yes"/>
      <point x="428" y="-37"/>
      <point x="220" y="-47"/>
      <point x="50" y="-67" type="curve"/>
      <point x="54" y="-90" type="line"/>
      <point x="253" y="-68"/>
      <point x="473" y="-61"/>
      <point x="690" y="-61" type="curve" smooth="yes"/>
      <point x="847" y="-61"/>
      <point x="945" y="-70"/>
      <point x="1053" y="-83" type="curve"/>
      <point x="1058" y="-60" type="line"/>
      <point x="959" y="-40"/>
      <point x="825" y="-7"/>
      <point x="825" y="82" type="curve" smooth="yes"/>
      <point x="825" y="146"/>
      <point x="876" y="223"/>
      <point x="938" y="223" type="curve" smooth="yes"/>
      <point x="959" y="223"/>
      <point x="976" y="215"/>
      <point x="989" y="203" type="curve" smooth="yes"/>
      <point x="1007" y="186"/>
      <point x="1020" y="156"/>
      <point x="1031" y="121" type="curve" smooth="yes"/>
      <point x="1043" y="84"/>
      <point x="1058" y="55"/>
      <point x="1075" y="34" type="curve" smooth="yes"/>
      <point x="1099" y="5"/>
      <point x="1134" y="-10"/>
      <point x="1179" y="-10" type="curve" smooth="yes"/>
      <point x="1242" y="-10"/>
      <point x="1282" y="20"/>
      <point x="1302" y="66" type="curve"/>
      <point x="1336" y="13"/>
      <point x="1400" y="0"/>
      <point x="1459" y="0" type="curve" smooth="yes"/>
      <point x="1531" y="0" type="line"/>
      <point x="1531" y="475" type="line"/>
      <point x="1507" y="473" type="line"/>
    </contour>
  </outline>
</glyph>
<glyph name="numbermark-ar" format="2">
  <advance width="1216"/>
  <unicode hex="0605"/>
  <outline>
    <contour>
      <point x="1166" y="662" type="curve"/>
      <point x="1163" y="685" type="line"/>
      <point x="1015" y="662"/>
      <point x="836" y="644"/>
      <point x="621" y="644" type="curve" smooth="yes"/>
      <point x="320" y="644"/>
      <point x="180" y="680"/>
      <point x="133" y="680" type="curve" smooth="yes"/>
      <point x="93" y="680"/>
      <point x="80" y="656"/>
      <point x="60" y="609" type="curve"/>
      <point x="80" y="601" type="line"/>
      <point x="98" y="639"/>
      <point x="108" y="657"/>
      <point x="136" y="657" type="curve" smooth="yes"/>
      <point x="175" y="657"/>
      <point x="305" y="620"/>
      <point x="622" y="620" type="curve" smooth="yes"/>
      <point x="821" y="620"/>
      <point x="991" y="634"/>
    </contour>
  </outline>
</glyph>
<glyph name="cuberoot-ar" format="2">
  <advance width="618"/>
  <unicode hex="0606"/>
  <outline>
    <contour>
      <point x="275" y="0" type="line"/>
      <point x="487" y="434" type="line"/>
      <point x="596" y="434" type="line"/>
      <point x="596" y="457" type="line"/>
      <point x="472" y="457" type="line"/>
      <point x="272" y="47" type="line"/>
      <point x="282" y="47" type="line"/>
      <point x="36" y="674" type="line"/>
      <point x="10" y="674" type="line"/>
    </contour>
    <contour>
      <point x="197" y="708" type="line"/>
      <point x="278" y="445" type="line"/>
      <point x="300" y="445" type="line"/>
      <point x="245" y="625" type="line"/>
      <point x="250" y="621"/>
      <point x="257" y="620"/>
      <point x="264" y="620" type="curve" smooth="yes"/>
      <point x="273" y="620"/>
      <point x="282" y="623"/>
      <point x="288" y="629" type="curve"/>
      <point x="295" y="624"/>
      <point x="308" y="619"/>
      <point x="326" y="619" type="curve" smooth="yes"/>
      <point x="369" y="619"/>
      <point x="390" y="648"/>
      <point x="390" y="702" type="curve" smooth="yes"/>
      <point x="390" y="708" type="line"/>
      <point x="369" y="708" type="line"/>
      <point x="369" y="683"/>
      <point x="365" y="666"/>
      <point x="359" y="656" type="curve" smooth="yes"/>
      <point x="352" y="645"/>
      <point x="342" y="638"/>
      <point x="325" y="638" type="curve" smooth="yes"/>
      <point x="318" y="638"/>
      <point x="308" y="639"/>
      <point x="300" y="644" type="curve"/>
      <point x="309" y="658"/>
      <point x="313" y="678"/>
      <point x="313" y="708" type="curve"/>
      <point x="291" y="708" type="line"/>
      <point x="291" y="690"/>
      <point x="289" y="668"/>
      <point x="283" y="656" type="curve" smooth="yes"/>
      <point x="277" y="644"/>
      <point x="270" y="639"/>
      <point x="258" y="639" type="curve" smooth="yes"/>
      <point x="251" y="639"/>
      <point x="240" y="641"/>
      <point x="237" y="651" type="curve" smooth="yes"/>
      <point x="220" y="708" type="line"/>
    </contour>
  </outline>
</glyph>
<glyph name="fourthroot-ar" format="2">
  <advance width="618"/>
  <unicode hex="0607"/>
  <outline>
    <contour>
      <point x="287" y="435" type="curve" smooth="yes"/>
      <point x="313" y="435"/>
      <point x="332" y="438"/>
      <point x="347" y="443" type="curve"/>
      <point x="347" y="464" type="line"/>
      <point x="332" y="458"/>
      <point x="311" y="456"/>
      <point x="289" y="456" type="curve" smooth="yes"/>
      <point x="257" y="456"/>
      <point x="240" y="465"/>
      <point x="240" y="475" type="curve" smooth="yes"/>
      <point x="240" y="483"/>
      <point x="247" y="496"/>
      <point x="257" y="509" type="curve" smooth="yes"/>
      <point x="268" y="524"/>
      <point x="296" y="551"/>
      <point x="320" y="567" type="curve"/>
      <point x="260" y="616"/>
      <point x="247" y="629"/>
      <point x="247" y="636" type="curve" smooth="yes"/>
      <point x="247" y="643"/>
      <point x="272" y="662"/>
      <point x="292" y="674" type="curve" smooth="yes"/>
      <point x="303" y="681"/>
      <point x="320" y="689"/>
      <point x="326" y="691" type="curve"/>
      <point x="319" y="710" type="line"/>
      <point x="286" y="698"/>
      <point x="250" y="672"/>
      <point x="237" y="657" type="curve" smooth="yes"/>
      <point x="230" y="649"/>
      <point x="226" y="640"/>
      <point x="226" y="633" type="curve" smooth="yes"/>
      <point x="226" y="624"/>
      <point x="238" y="608"/>
      <point x="270" y="583" type="curve" smooth="yes"/>
      <point x="291" y="566" type="line"/>
      <point x="245" y="534"/>
      <point x="218" y="492"/>
      <point x="218" y="473" type="curve" smooth="yes"/>
      <point x="218" y="459"/>
      <point x="229" y="446"/>
      <point x="250" y="440" type="curve" smooth="yes"/>
      <point x="263" y="436"/>
      <point x="275" y="435"/>
    </contour>
    <contour>
      <point x="275" y="0" type="line"/>
      <point x="487" y="434" type="line"/>
      <point x="596" y="434" type="line"/>
      <point x="596" y="457" type="line"/>
      <point x="472" y="457" type="line"/>
      <point x="272" y="47" type="line"/>
      <point x="282" y="47" type="line"/>
      <point x="36" y="674" type="line"/>
      <point x="10" y="674" type="line"/>
    </contour>
  </outline>
</glyph>
<glyph name="ray-ar" format="2">
  <advance width="826"/>
  <unicode hex="0608"/>
  <anchor x="470" y="-312" name="bottom"/>
  <anchor x="617" y="566" name="top"/>
  <outline>
    <contour>
      <point x="25" y="189" type="line"/>
      <point x="163" y="189" type="line"/>
      <point x="162" y="206" type="line"/>
      <point x="110" y="132"/>
      <point x="90" y="55"/>
      <point x="90" y="-19" type="curve" smooth="yes"/>
      <point x="90" y="-109"/>
      <point x="116" y="-167"/>
      <point x="161" y="-202" type="curve" smooth="yes"/>
      <point x="194" y="-228"/>
      <point x="239" y="-240"/>
      <point x="296" y="-240" type="curve" smooth="yes"/>
      <point x="521" y="-240" type="line" smooth="yes"/>
      <point x="664" y="-240"/>
      <point x="736" y="-181"/>
      <point x="736" y="-18" type="curve" smooth="yes"/>
      <point x="736" y="0" type="line"/>
      <point x="831" y="0" type="line" smooth="yes"/>
      <point x="834" y="0"/>
      <point x="836" y="2"/>
      <point x="836" y="5" type="curve" smooth="yes"/>
      <point x="836" y="20" type="line" smooth="yes"/>
      <point x="836" y="23"/>
      <point x="834" y="24"/>
      <point x="831" y="24" type="curve" smooth="yes"/>
      <point x="736" y="24" type="line"/>
      <point x="736" y="475" type="line"/>
      <point x="651" y="475" type="line" smooth="yes"/>
      <point x="551" y="475"/>
      <point x="474" y="427"/>
      <point x="432" y="350" type="curve" smooth="yes"/>
      <point x="409" y="308"/>
      <point x="396" y="257"/>
      <point x="396" y="201" type="curve" smooth="yes"/>
      <point x="396" y="139"/>
      <point x="415" y="80"/>
      <point x="459" y="42" type="curve" smooth="yes"/>
      <point x="490" y="16"/>
      <point x="533" y="0"/>
      <point x="590" y="0" type="curve" smooth="yes"/>
      <point x="712" y="0" type="line"/>
      <point x="712" y="-23" type="line" smooth="yes"/>
      <point x="712" y="-180"/>
      <point x="633" y="-216"/>
      <point x="527" y="-216" type="curve" smooth="yes"/>
      <point x="300" y="-216" type="line" smooth="yes"/>
      <point x="170" y="-216"/>
      <point x="114" y="-157"/>
      <point x="114" y="-11" type="curve" smooth="yes"/>
      <point x="114" y="68"/>
      <point x="142" y="142"/>
      <point x="175" y="193" type="curve"/>
      <point x="175" y="213" type="line"/>
      <point x="25" y="213" type="line"/>
    </contour>
    <contour>
      <point x="420" y="207" type="curve" smooth="yes"/>
      <point x="420" y="341"/>
      <point x="506" y="451"/>
      <point x="652" y="451" type="curve" smooth="yes"/>
      <point x="712" y="451" type="line"/>
      <point x="712" y="24" type="line"/>
      <point x="589" y="24" type="line" smooth="yes"/>
      <point x="465" y="24"/>
      <point x="420" y="110"/>
    </contour>
  </outline>
</glyph>
<glyph name="perthousand-ar" format="2">
  <advance width="620"/>
  <unicode hex="0609"/>
  <outline>
    <contour>
      <point x="511" y="141" type="line"/>
      <point x="511" y="82" type="line"/>
      <point x="570" y="82" type="line"/>
      <point x="570" y="141" type="line"/>
    </contour>
    <component base="percent-ar"/>
  </outline>
</glyph>
<glyph name="pertenthousand-ar" format="2">
  <advance width="747"/>
  <unicode hex="060A"/>
  <outline>
    <contour>
      <point x="509" y="141" type="line"/>
      <point x="509" y="82" type="line"/>
      <point x="568" y="82" type="line"/>
      <point x="568" y="141" type="line"/>
    </contour>
    <contour>
      <point x="638" y="141" type="line"/>
      <point x="638" y="82" type="line"/>
      <point x="697" y="82" type="line"/>
      <point x="697" y="141" type="line"/>
    </contour>
    <component base="percent-ar"/>
  </outline>
</glyph>
<glyph name="comma-ar" format="2">
  <advance width="223"/>
  <unicode hex="060C"/>
  <note>
uni060C
</note>
  <outline>
    <contour>
      <point x="65" y="11" type="curve"/>
      <point x="72" y="0" type="line"/>
      <point x="93" y="0" type="line"/>
      <point x="102" y="40"/>
      <point x="141" y="195"/>
      <point x="159" y="245" type="curve"/>
      <point x="140" y="245" type="line"/>
      <point x="103" y="151"/>
      <point x="81" y="73"/>
    </contour>
  </outline>
</glyph>
<glyph name="dateseparator-ar" format="2">
  <advance width="323"/>
  <unicode hex="060D"/>
  <note>
uni060D
</note>
  <outline>
    <contour>
      <point x="323" y="0" type="line"/>
      <point x="323" y="24" type="line"/>
      <point x="268" y="24" type="line" smooth="yes"/>
      <point x="164" y="24"/>
      <point x="103" y="-48"/>
      <point x="70" y="-200" type="curve"/>
      <point x="91" y="-207" type="line"/>
      <point x="136" y="-26"/>
      <point x="201" y="0"/>
      <point x="269" y="0" type="curve" smooth="yes"/>
    </contour>
  </outline>
</glyph>
<glyph name="verseComma-ar" format="2">
  <advance width="1148"/>
  <unicode hex="060E"/>
  <note>
uni060E
</note>
  <outline>
    <contour>
      <point x="1148" y="24" type="curve"/>
      <point x="401" y="24" type="line"/>
      <point x="355" y="169"/>
      <point x="276" y="231"/>
      <point x="177" y="231" type="curve" smooth="yes"/>
      <point x="103" y="231"/>
      <point x="45" y="185"/>
      <point x="45" y="126" type="curve" smooth="yes"/>
      <point x="45" y="38"/>
      <point x="107" y="0"/>
      <point x="288" y="0" type="curve" smooth="yes"/>
      <point x="1132" y="0" type="line" smooth="yes"/>
      <point x="1145" y="0"/>
      <point x="1148" y="13"/>
    </contour>
    <contour>
      <point x="177" y="207" type="curve" smooth="yes"/>
      <point x="265" y="207"/>
      <point x="332" y="153"/>
      <point x="378" y="24" type="curve"/>
      <point x="251" y="24"/>
      <point x="220" y="25"/>
      <point x="173" y="32" type="curve" smooth="yes"/>
      <point x="96" y="43"/>
      <point x="69" y="74"/>
      <point x="69" y="122" type="curve" smooth="yes"/>
      <point x="69" y="170"/>
      <point x="111" y="207"/>
    </contour>
  </outline>
</glyph>
<glyph name="misraComma-ar" format="2">
  <advance width="601"/>
  <unicode hex="060F"/>
  <note>
uni060F
</note>
  <outline>
    <contour>
      <point x="485" y="159" type="curve"/>
      <point x="477" y="183" type="line"/>
      <point x="411" y="163"/>
      <point x="353" y="139"/>
      <point x="303" y="113" type="curve"/>
      <point x="247" y="147"/>
      <point x="210" y="207"/>
      <point x="210" y="281" type="curve" smooth="yes"/>
      <point x="210" y="383"/>
      <point x="299" y="465"/>
      <point x="396" y="465" type="curve" smooth="yes"/>
      <point x="441" y="465"/>
      <point x="471" y="455"/>
      <point x="500" y="443" type="curve"/>
      <point x="512" y="464" type="line"/>
      <point x="493" y="475"/>
      <point x="453" y="489"/>
      <point x="402" y="489" type="curve" smooth="yes"/>
      <point x="296" y="489"/>
      <point x="186" y="411"/>
      <point x="186" y="276" type="curve" smooth="yes"/>
      <point x="186" y="208"/>
      <point x="215" y="149"/>
      <point x="281" y="99" type="curve"/>
      <point x="190" y="42"/>
      <point x="142" y="-28"/>
      <point x="142" y="-114" type="curve" smooth="yes"/>
      <point x="142" y="-129"/>
      <point x="144" y="-147"/>
      <point x="149" y="-165" type="curve"/>
      <point x="126" y="-184"/>
      <point x="99" y="-208"/>
      <point x="71" y="-238" type="curve"/>
      <point x="88" y="-256" type="line"/>
      <point x="111" y="-232"/>
      <point x="133" y="-210"/>
      <point x="158" y="-188" type="curve"/>
      <point x="200" y="-272"/>
      <point x="278" y="-312"/>
      <point x="376" y="-312" type="curve" smooth="yes"/>
      <point x="508" y="-312"/>
      <point x="556" y="-243"/>
      <point x="556" y="-170" type="curve" smooth="yes"/>
      <point x="556" y="-77"/>
      <point x="474" y="-37"/>
      <point x="403" y="-37" type="curve" smooth="yes"/>
      <point x="328" y="-37"/>
      <point x="251" y="-74"/>
      <point x="169" y="-146" type="curve"/>
      <point x="146" y="0"/>
      <point x="272" y="96"/>
    </contour>
    <contour>
      <point x="404" y="-61" type="curve" smooth="yes"/>
      <point x="478" y="-61"/>
      <point x="532" y="-104"/>
      <point x="532" y="-172" type="curve" smooth="yes"/>
      <point x="532" y="-241"/>
      <point x="479" y="-288"/>
      <point x="376" y="-288" type="curve" smooth="yes"/>
      <point x="270" y="-288"/>
      <point x="211" y="-241"/>
      <point x="176" y="-170" type="curve"/>
      <point x="254" y="-104"/>
      <point x="321" y="-61"/>
    </contour>
  </outline>
</glyph>
<glyph name="sadabove-ar" format="2">
  <unicode hex="0610"/>
  <note>
uni0610
</note>
  <anchor x="-4" y="718" name="_top"/>
  <anchor x="-5" y="718" name="_top2"/>
  <anchor x="-7" y="868" name="top"/>
  <outline>
    <contour>
      <point x="-96" y="718" type="line"/>
      <point x="-81" y="729"/>
      <point x="-70" y="744"/>
      <point x="-61" y="764" type="curve"/>
      <point x="73" y="764" type="line"/>
      <point x="73" y="799" type="line" smooth="yes"/>
      <point x="73" y="854"/>
      <point x="45" y="868"/>
      <point x="18" y="868" type="curve" smooth="yes"/>
      <point x="-9" y="868"/>
      <point x="-40" y="854"/>
      <point x="-61" y="812" type="curve"/>
      <point x="-61" y="871" type="line"/>
      <point x="-81" y="865" type="line"/>
      <point x="-81" y="771" type="line" smooth="yes"/>
      <point x="-81" y="760"/>
      <point x="-88" y="749"/>
      <point x="-105" y="725" type="curve"/>
    </contour>
    <contour>
      <point x="-60" y="787" type="line"/>
      <point x="-60" y="789" type="line"/>
      <point x="-36" y="824"/>
      <point x="-12" y="842"/>
      <point x="12" y="842" type="curve" smooth="yes"/>
      <point x="27" y="842"/>
      <point x="45" y="835"/>
      <point x="45" y="798" type="curve" smooth="yes"/>
      <point x="45" y="787" type="line"/>
    </contour>
  </outline>
</glyph>
<glyph name="ainabove-ar" format="2">
  <unicode hex="0611"/>
  <note>
uni0611
</note>
  <anchor x="0" y="742" name="_top"/>
  <anchor x="0" y="742" name="_top2"/>
  <anchor x="2" y="884" name="top"/>
  <outline>
    <contour>
      <point x="-47" y="790" type="curve"/>
      <point x="-47" y="811" type="line"/>
      <point x="-65" y="805" type="line"/>
      <point x="-65" y="797" type="line" smooth="yes"/>
      <point x="-65" y="780"/>
      <point x="-72" y="770"/>
      <point x="-89" y="751" type="curve"/>
      <point x="-80" y="744" type="line"/>
      <point x="-63" y="753"/>
      <point x="-52" y="764"/>
      <point x="-49" y="775" type="curve"/>
      <point x="-42" y="770"/>
      <point x="-30" y="767"/>
      <point x="-15" y="767" type="curve" smooth="yes"/>
      <point x="22" y="767"/>
      <point x="77" y="782"/>
      <point x="93" y="791" type="curve"/>
      <point x="93" y="810" type="line"/>
      <point x="76" y="803"/>
      <point x="49.999" y="794.001"/>
      <point x="22" y="789" type="curve"/>
      <point x="8" y="792"/>
      <point x="-3" y="807"/>
      <point x="-3" y="825" type="curve" smooth="yes"/>
      <point x="-3" y="855"/>
      <point x="19" y="866"/>
      <point x="44" y="866" type="curve" smooth="yes"/>
      <point x="56" y="866"/>
      <point x="65" y="864"/>
      <point x="76" y="859" type="curve"/>
      <point x="83" y="875" type="line"/>
      <point x="72" y="880"/>
      <point x="61" y="884"/>
      <point x="43" y="884" type="curve" smooth="yes"/>
      <point x="7" y="884"/>
      <point x="-21" y="864"/>
      <point x="-21" y="827" type="curve" smooth="yes"/>
      <point x="-21" y="810"/>
      <point x="-14" y="794"/>
      <point x="0" y="786" type="curve"/>
      <point x="-10" y="784"/>
      <point x="-14" y="784"/>
      <point x="-21" y="784" type="curve" smooth="yes"/>
      <point x="-32" y="784"/>
      <point x="-40" y="787"/>
    </contour>
  </outline>
</glyph>
<glyph name="rehHahabove-ar" format="2">
  <unicode hex="0612"/>
  <note>
uni0612
</note>
  <anchor x="0" y="561" name="_top"/>
  <anchor x="0" y="556" name="_top2"/>
  <anchor x="1" y="881" name="top"/>
  <outline>
    <contour>
      <point x="-147" y="601" type="curve"/>
      <point x="-132" y="613" type="line"/>
      <point x="-135" y="618"/>
      <point x="-137" y="628"/>
      <point x="-137" y="640" type="curve" smooth="yes"/>
      <point x="-137" y="699"/>
      <point x="-60" y="731"/>
      <point x="-4" y="752" type="curve"/>
      <point x="1" y="736"/>
      <point x="11" y="720"/>
      <point x="30" y="707" type="curve"/>
      <point x="44" y="720" type="line"/>
      <point x="28" y="730"/>
      <point x="13" y="742"/>
      <point x="6" y="780" type="curve" smooth="yes"/>
      <point x="-3" y="828"/>
      <point x="-23" y="861"/>
      <point x="-77" y="861" type="curve" smooth="yes"/>
      <point x="-96" y="861"/>
      <point x="-129" y="853"/>
      <point x="-156" y="836" type="curve"/>
      <point x="-149" y="820" type="line"/>
      <point x="-122" y="835"/>
      <point x="-94" y="843"/>
      <point x="-77" y="843" type="curve" smooth="yes"/>
      <point x="-35" y="843"/>
      <point x="-22" y="817"/>
      <point x="-13" y="789" type="curve" smooth="yes"/>
      <point x="-10" y="779"/>
      <point x="-9" y="774"/>
      <point x="-8" y="769" type="curve"/>
      <point x="-103" y="737"/>
      <point x="-155" y="692"/>
      <point x="-155" y="640" type="curve" smooth="yes"/>
      <point x="-155" y="623"/>
      <point x="-152" y="610"/>
    </contour>
    <contour>
      <point x="64" y="618" type="curve" smooth="yes"/>
      <point x="101" y="618"/>
      <point x="116" y="648"/>
      <point x="116" y="703" type="curve" smooth="yes"/>
      <point x="116" y="849" type="line"/>
      <point x="98" y="844" type="line"/>
      <point x="98" y="703" type="line" smooth="yes"/>
      <point x="98" y="661"/>
      <point x="90" y="636"/>
      <point x="64" y="636" type="curve" smooth="yes"/>
      <point x="55" y="636"/>
      <point x="49" y="638"/>
      <point x="40" y="642" type="curve"/>
      <point x="34" y="625" type="line"/>
      <point x="45" y="620"/>
      <point x="53" y="618"/>
    </contour>
  </outline>
</glyph>
<glyph name="rehDadabove-ar" format="2">
  <unicode hex="0613"/>
  <note>
uni0613
</note>
  <anchor x="0" y="605" name="_top"/>
  <anchor x="0" y="605" name="_top2"/>
  <anchor x="-3" y="897" name="top"/>
  <outline>
    <contour>
      <point x="-117" y="654" type="line"/>
      <point x="-103" y="664"/>
      <point x="-91" y="679"/>
      <point x="-83" y="700" type="curve"/>
      <point x="67" y="700" type="line"/>
      <point x="67" y="735" type="line" smooth="yes"/>
      <point x="67" y="772"/>
      <point x="49" y="804"/>
      <point x="7" y="804" type="curve" smooth="yes"/>
      <point x="-15" y="804"/>
      <point x="-52" y="795"/>
      <point x="-83" y="744" type="curve"/>
      <point x="-83" y="807" type="line"/>
      <point x="-101" y="801" type="line"/>
      <point x="-101" y="715" type="line" smooth="yes"/>
      <point x="-101" y="696"/>
      <point x="-110" y="680"/>
      <point x="-126" y="661" type="curve"/>
    </contour>
    <contour>
      <point x="-83" y="718" type="line"/>
      <point x="-83" y="724" type="line"/>
      <point x="-56" y="768"/>
      <point x="-22" y="786"/>
      <point x="5" y="786" type="curve" smooth="yes"/>
      <point x="38" y="786"/>
      <point x="49" y="764"/>
      <point x="49" y="732" type="curve" smooth="yes"/>
      <point x="49" y="718" type="line"/>
    </contour>
    <contour>
      <point x="70" y="618" type="curve" smooth="yes"/>
      <point x="107" y="618"/>
      <point x="122" y="648"/>
      <point x="122" y="703" type="curve" smooth="yes"/>
      <point x="122" y="849" type="line"/>
      <point x="104" y="844" type="line"/>
      <point x="104" y="703" type="line" smooth="yes"/>
      <point x="104" y="661"/>
      <point x="97" y="636"/>
      <point x="70" y="636" type="curve" smooth="yes"/>
      <point x="61" y="636"/>
      <point x="55" y="638"/>
      <point x="46" y="642" type="curve"/>
      <point x="40" y="625" type="line"/>
      <point x="51" y="620"/>
      <point x="59" y="618"/>
    </contour>
    <contour>
      <point x="2" y="852" type="curve" smooth="yes"/>
      <point x="8" y="852"/>
      <point x="15" y="856"/>
      <point x="15" y="866" type="curve" smooth="yes"/>
      <point x="15" y="875"/>
      <point x="11" y="880"/>
      <point x="2" y="880" type="curve" smooth="yes"/>
      <point x="-7" y="880"/>
      <point x="-11" y="875"/>
      <point x="-11" y="866" type="curve" smooth="yes"/>
      <point x="-11" y="856"/>
      <point x="-5" y="852"/>
    </contour>
  </outline>
</glyph>
<glyph name="takhallusabove-ar" format="2">
  <unicode hex="0614"/>
  <note>
uni0614
</note>
  <anchor x="0" y="698" name="_top"/>
  <anchor x="0" y="698" name="_top2"/>
  <anchor x="-10" y="819" name="top"/>
  <outline>
    <contour>
      <point x="-129" y="699" type="line"/>
      <point x="-55" y="701"/>
      <point x="-6" y="715"/>
      <point x="8" y="722" type="curve" smooth="yes"/>
      <point x="22" y="729"/>
      <point x="26" y="737"/>
      <point x="28" y="746" type="curve"/>
      <point x="33" y="736"/>
      <point x="46" y="730"/>
      <point x="65" y="730" type="curve" smooth="yes"/>
      <point x="101" y="730"/>
      <point x="115" y="744"/>
      <point x="115" y="781" type="curve" smooth="yes"/>
      <point x="115" y="819" type="line"/>
      <point x="97" y="813" type="line"/>
      <point x="97" y="781" type="line" smooth="yes"/>
      <point x="97" y="759"/>
      <point x="89" y="748"/>
      <point x="65" y="748" type="curve" smooth="yes"/>
      <point x="33" y="748"/>
      <point x="33" y="768"/>
      <point x="33" y="778" type="curve" smooth="yes"/>
      <point x="33" y="798" type="line"/>
      <point x="15" y="792" type="line"/>
      <point x="15" y="762" type="line" smooth="yes"/>
      <point x="15" y="748"/>
      <point x="5" y="740"/>
      <point x="-6" y="736" type="curve" smooth="yes"/>
      <point x="-13" y="733"/>
      <point x="-38" y="726"/>
      <point x="-56" y="723" type="curve" smooth="yes"/>
      <point x="-71" y="720"/>
      <point x="-109" y="714"/>
      <point x="-133" y="711" type="curve"/>
    </contour>
  </outline>
</glyph>
<glyph name="tahabove-ar" format="2">
  <unicode hex="0615"/>
  <note>
uni0615
</note>
  <anchor x="-17" y="575" name="_top"/>
  <anchor x="-17" y="576" name="_top2"/>
  <anchor x="-18" y="804" name="top"/>
  <outline>
    <contour>
      <point x="-116" y="618" type="line"/>
      <point x="-116" y="600" type="line"/>
      <point x="61" y="600" type="line"/>
      <point x="61" y="654" type="line" smooth="yes"/>
      <point x="61" y="708"/>
      <point x="36" y="734"/>
      <point x="2" y="734" type="curve" smooth="yes"/>
      <point x="-41" y="734"/>
      <point x="-67" y="698"/>
      <point x="-80" y="663" type="curve"/>
      <point x="-80" y="786" type="line"/>
      <point x="-98" y="786" type="line"/>
      <point x="-98" y="618" type="line"/>
    </contour>
    <contour>
      <point x="43" y="618" type="line"/>
      <point x="-81" y="618" type="line"/>
      <point x="-81" y="629" type="line"/>
      <point x="-58" y="691"/>
      <point x="-30" y="716"/>
      <point x="-2" y="716" type="curve" smooth="yes"/>
      <point x="30" y="716"/>
      <point x="43" y="695"/>
      <point x="43" y="649" type="curve" smooth="yes"/>
    </contour>
  </outline>
</glyph>
<glyph name="alefLamYehabove-ar" format="2">
  <unicode hex="0616"/>
  <anchor x="134" y="564" name="bottom"/>
  <anchor x="134" y="794" name="top"/>
  <outline>
    <contour>
      <point x="60" y="593" type="curve" smooth="yes"/>
      <point x="231" y="593" type="line"/>
      <point x="231" y="612" type="line"/>
      <point x="57" y="612" type="line" smooth="yes"/>
      <point x="43" y="612"/>
      <point x="38" y="615"/>
      <point x="38" y="623" type="curve" smooth="yes"/>
      <point x="38" y="628"/>
      <point x="40" y="631"/>
      <point x="45" y="635" type="curve" smooth="yes"/>
      <point x="52" y="640"/>
      <point x="64" y="645"/>
      <point x="93" y="652" type="curve" smooth="yes"/>
      <point x="129" y="661"/>
      <point x="142" y="667"/>
      <point x="149" y="681" type="curve" smooth="yes"/>
      <point x="154" y="691"/>
      <point x="155" y="704"/>
      <point x="155" y="729" type="curve" smooth="yes"/>
      <point x="155" y="768" type="line"/>
      <point x="135" y="768" type="line"/>
      <point x="135" y="725" type="line" smooth="yes"/>
      <point x="135" y="702"/>
      <point x="134" y="693"/>
      <point x="127" y="686" type="curve" smooth="yes"/>
      <point x="120" y="679"/>
      <point x="108" y="675"/>
      <point x="80" y="667" type="curve" smooth="yes"/>
      <point x="52" y="659"/>
      <point x="39" y="654"/>
      <point x="30" y="647" type="curve" smooth="yes"/>
      <point x="22" y="641"/>
      <point x="17" y="632"/>
      <point x="17" y="622" type="curve" smooth="yes"/>
      <point x="17" y="602"/>
      <point x="31" y="593"/>
    </contour>
    <contour>
      <point x="179" y="768" type="line"/>
      <point x="179" y="642" type="line"/>
      <point x="199" y="642" type="line"/>
      <point x="199" y="768" type="line"/>
    </contour>
  </outline>
</glyph>
<glyph name="zainabove-ar" format="2">
  <unicode hex="0617"/>
  <anchor x="25" y="577" name="bottom"/>
  <anchor x="53" y="807" name="top"/>
  <outline>
    <contour>
      <point x="17" y="590" type="curve" smooth="yes"/>
      <point x="47" y="590"/>
      <point x="65" y="609"/>
      <point x="65" y="643" type="curve" smooth="yes"/>
      <point x="65" y="748" type="line"/>
      <point x="47" y="748" type="line"/>
      <point x="47" y="642" type="line" smooth="yes"/>
      <point x="47" y="620"/>
      <point x="36" y="607"/>
      <point x="17" y="607" type="curve" smooth="yes"/>
      <point x="9" y="607"/>
      <point x="2" y="609"/>
      <point x="-4" y="612" type="curve"/>
      <point x="-11" y="597" type="line"/>
      <point x="-3" y="593"/>
      <point x="8" y="590"/>
    </contour>
    <contour>
      <point x="55" y="766" type="curve" smooth="yes"/>
      <point x="62" y="766"/>
      <point x="68" y="771"/>
      <point x="68" y="778" type="curve" smooth="yes"/>
      <point x="68" y="786"/>
      <point x="63" y="791"/>
      <point x="55" y="791" type="curve" smooth="yes"/>
      <point x="47" y="791"/>
      <point x="42" y="786"/>
      <point x="42" y="778" type="curve" smooth="yes"/>
      <point x="42" y="771"/>
      <point x="47" y="766"/>
    </contour>
  </outline>
</glyph>
<glyph name="fathasmall-ar" format="2">
  <unicode hex="0618"/>
  <anchor x="0" y="305" name="_top"/>
  <anchor x="1" y="301" name="_top2"/>
  <anchor x="0" y="357" name="top"/>
  <outline>
    <contour>
      <point x="-60" y="316" type="line"/>
      <point x="-60" y="299" type="line"/>
      <point x="59" y="342" type="line"/>
      <point x="59" y="359" type="line"/>
    </contour>
  </outline>
</glyph>
<glyph name="dammasmall-ar" format="2">
  <unicode hex="0619"/>
  <anchor x="0" y="586" name="_top"/>
  <anchor x="0" y="727" name="top"/>
  <outline>
    <contour>
      <point x="-21" y="588" type="curve" smooth="yes"/>
      <point x="8" y="588"/>
      <point x="47" y="603"/>
      <point x="70" y="632" type="curve" smooth="yes"/>
      <point x="80" y="645"/>
      <point x="86" y="659"/>
      <point x="86" y="675" type="curve" smooth="yes"/>
      <point x="86" y="699"/>
      <point x="68" y="721"/>
      <point x="36" y="721" type="curve" smooth="yes"/>
      <point x="5" y="721"/>
      <point x="-17" y="702"/>
      <point x="-17" y="672" type="curve" smooth="yes"/>
      <point x="-17" y="651"/>
      <point x="-8" y="630"/>
      <point x="12" y="613" type="curve"/>
      <point x="2" y="608"/>
      <point x="-9" y="606"/>
      <point x="-22" y="606" type="curve" smooth="yes"/>
      <point x="-37" y="606"/>
      <point x="-54" y="611"/>
      <point x="-70" y="623" type="curve"/>
      <point x="-81" y="609" type="line"/>
      <point x="-65" y="595"/>
      <point x="-44" y="588"/>
    </contour>
    <contour>
      <point x="28" y="619" type="curve"/>
      <point x="12" y="634"/>
      <point x="1" y="651"/>
      <point x="1" y="669" type="curve" smooth="yes"/>
      <point x="1" y="692"/>
      <point x="15" y="703"/>
      <point x="34" y="703" type="curve" smooth="yes"/>
      <point x="56" y="703"/>
      <point x="67" y="690"/>
      <point x="67" y="672" type="curve" smooth="yes"/>
      <point x="67" y="652"/>
      <point x="51" y="632"/>
    </contour>
  </outline>
</glyph>
<glyph name="kasrasmall-ar" format="2">
  <unicode hex="061A"/>
  <anchor x="0" y="-135" name="_bottom"/>
  <anchor x="0" y="-15" name="bottom"/>
  <outline>
    <contour>
      <point x="-47" y="-79" type="line"/>
      <point x="-47" y="-96" type="line"/>
      <point x="47" y="-62" type="line"/>
      <point x="47" y="-45" type="line"/>
    </contour>
  </outline>
</glyph>
<glyph name="semicolon-ar" format="2">
  <advance width="257"/>
  <unicode hex="061B"/>
  <note>
uni061B
</note>
  <outline>
    <contour>
      <point x="92" y="-10" type="curve" smooth="yes"/>
      <point x="108" y="-10"/>
      <point x="119" y="-1"/>
      <point x="119" y="18" type="curve" smooth="yes"/>
      <point x="119" y="37"/>
      <point x="110" y="47"/>
      <point x="92" y="47" type="curve" smooth="yes"/>
      <point x="73" y="47"/>
      <point x="65" y="36"/>
      <point x="65" y="18" type="curve" smooth="yes"/>
      <point x="65" y="2"/>
      <point x="74" y="-10"/>
    </contour>
    <contour>
      <point x="92" y="419" type="curve"/>
      <point x="106" y="408" type="line"/>
      <point x="127" y="408" type="line"/>
      <point x="136" y="448"/>
      <point x="177" y="603"/>
      <point x="193" y="653" type="curve"/>
      <point x="169" y="653" type="line"/>
      <point x="132" y="559"/>
      <point x="108" y="481"/>
    </contour>
  </outline>
</glyph>
<glyph name="uni061D" format="2">
  <advance width="933"/>
  <unicode hex="061D"/>
  <outline>
    <contour>
      <point x="50" y="-139" type="line"/>
      <point x="883" y="-139" type="line"/>
      <point x="883" y="723" type="line"/>
      <point x="50" y="723" type="line"/>
    </contour>
    <contour>
      <point x="74" y="-117" type="line"/>
      <point x="74" y="701" type="line"/>
      <point x="859" y="701" type="line"/>
      <point x="859" y="-117" type="line"/>
    </contour>
    <contour>
      <point x="486" y="128" type="curve" smooth="yes"/>
      <point x="486" y="104" type="line"/>
      <point x="506" y="104" type="line"/>
      <point x="506" y="137" type="line" smooth="yes"/>
      <point x="506" y="197"/>
      <point x="498" y="227"/>
      <point x="443" y="278" type="curve" smooth="yes"/>
      <point x="391" y="326"/>
      <point x="356" y="359"/>
      <point x="356" y="433" type="curve" smooth="yes"/>
      <point x="356" y="513"/>
      <point x="404" y="562"/>
      <point x="485" y="562" type="curve" smooth="yes"/>
      <point x="544" y="562"/>
      <point x="575" y="544"/>
      <point x="595" y="532" type="curve"/>
      <point x="605" y="549" type="line"/>
      <point x="590" y="559"/>
      <point x="553" y="581"/>
      <point x="485" y="581" type="curve" smooth="yes"/>
      <point x="389" y="581"/>
      <point x="337" y="523"/>
      <point x="337" y="429" type="curve" smooth="yes"/>
      <point x="337" y="349"/>
      <point x="374" y="313"/>
      <point x="429" y="264" type="curve" smooth="yes"/>
      <point x="485" y="214"/>
      <point x="486" y="182"/>
    </contour>
    <contour>
      <point x="494" y="-15" type="curve" smooth="yes"/>
      <point x="507" y="-15"/>
      <point x="516" y="-8"/>
      <point x="516" y="8" type="curve" smooth="yes"/>
      <point x="516" y="23"/>
      <point x="508" y="30"/>
      <point x="494" y="30" type="curve" smooth="yes"/>
      <point x="479" y="30"/>
      <point x="472" y="21"/>
      <point x="472" y="8" type="curve" smooth="yes"/>
      <point x="472" y="-5"/>
      <point x="480" y="-15"/>
    </contour>
  </outline>
</glyph>
<glyph name="question-ar" format="2">
  <advance width="440"/>
  <unicode hex="061F"/>
  <note>
uni061F
</note>
  <outline>
    <contour>
      <point x="249" y="166" type="curve" smooth="yes"/>
      <point x="249" y="137" type="line"/>
      <point x="273" y="137" type="line"/>
      <point x="273" y="177" type="line" smooth="yes"/>
      <point x="273" y="251"/>
      <point x="264" y="288"/>
      <point x="196" y="351" type="curve" smooth="yes"/>
      <point x="132" y="410"/>
      <point x="89" y="450"/>
      <point x="89" y="542" type="curve" smooth="yes"/>
      <point x="89" y="640"/>
      <point x="148" y="700"/>
      <point x="247" y="700" type="curve" smooth="yes"/>
      <point x="320" y="700"/>
      <point x="358" y="678"/>
      <point x="383" y="663" type="curve"/>
      <point x="395" y="684" type="line"/>
      <point x="377" y="696"/>
      <point x="331" y="724"/>
      <point x="248" y="724" type="curve" smooth="yes"/>
      <point x="129" y="724"/>
      <point x="65" y="652"/>
      <point x="65" y="537" type="curve" smooth="yes"/>
      <point x="65" y="438"/>
      <point x="112" y="395"/>
      <point x="179" y="334" type="curve" smooth="yes"/>
      <point x="247" y="273"/>
      <point x="249" y="233"/>
    </contour>
    <contour>
      <point x="259" y="-10" type="curve" smooth="yes"/>
      <point x="275" y="-10"/>
      <point x="285" y="-1"/>
      <point x="285" y="18" type="curve" smooth="yes"/>
      <point x="285" y="37"/>
      <point x="276" y="46"/>
      <point x="259" y="46" type="curve" smooth="yes"/>
      <point x="240" y="46"/>
      <point x="232" y="35"/>
      <point x="232" y="18" type="curve" smooth="yes"/>
      <point x="232" y="2"/>
      <point x="241" y="-10"/>
    </contour>
  </outline>
</glyph>
<glyph name="yehKashmiri-ar" format="2">
  <advance width="795"/>
  <unicode hex="0620"/>
  <anchor x="366" y="-382" name="bottom"/>
  <anchor x="252" y="293" name="top"/>
  <outline>
    <contour>
      <point x="367" y="-366" type="curve" smooth="yes"/>
      <point x="408" y="-366"/>
      <point x="441" y="-333"/>
      <point x="441" y="-292" type="curve" smooth="yes"/>
      <point x="441" y="-250"/>
      <point x="408" y="-217"/>
      <point x="367" y="-217" type="curve" smooth="yes"/>
      <point x="325" y="-217"/>
      <point x="292" y="-250"/>
      <point x="292" y="-292" type="curve" smooth="yes"/>
      <point x="292" y="-333"/>
      <point x="325" y="-366"/>
    </contour>
    <contour>
      <point x="367" y="-343" type="curve" smooth="yes"/>
      <point x="338" y="-343"/>
      <point x="315" y="-320"/>
      <point x="315" y="-292" type="curve" smooth="yes"/>
      <point x="315" y="-263"/>
      <point x="338" y="-240"/>
      <point x="367" y="-240" type="curve" smooth="yes"/>
      <point x="395" y="-240"/>
      <point x="418" y="-263"/>
      <point x="418" y="-292" type="curve" smooth="yes"/>
      <point x="418" y="-320"/>
      <point x="395" y="-343"/>
    </contour>
    <component base="alefMaksura-ar"/>
  </outline>
</glyph>
<glyph name="hamza-ar" format="2">
  <advance width="454"/>
  <unicode hex="0621"/>
  <note>
uni0621
</note>
  <anchor x="247" y="-26" name="bottom"/>
  <anchor x="262" y="439" name="top"/>
  <outline>
    <contour>
      <point x="65" y="37" type="curve"/>
      <point x="65" y="13" type="line"/>
      <point x="177" y="35"/>
      <point x="350" y="58"/>
      <point x="419" y="61" type="curve"/>
      <point x="419" y="84" type="line"/>
      <point x="408" y="84"/>
      <point x="306" y="75"/>
      <point x="225" y="64" type="curve" smooth="yes"/>
      <point x="182" y="58" type="line"/>
      <point x="140" y="84"/>
      <point x="112" y="136"/>
      <point x="112" y="199" type="curve" smooth="yes"/>
      <point x="112" y="293"/>
      <point x="174" y="359"/>
      <point x="266" y="359" type="curve" smooth="yes"/>
      <point x="301" y="359"/>
      <point x="333" y="349"/>
      <point x="361" y="334" type="curve"/>
      <point x="374" y="354" type="line"/>
      <point x="346" y="371"/>
      <point x="309" y="383"/>
      <point x="268" y="383" type="curve" smooth="yes"/>
      <point x="193" y="383"/>
      <point x="135" y="343"/>
      <point x="106" y="282" type="curve" smooth="yes"/>
      <point x="94" y="257"/>
      <point x="88" y="229"/>
      <point x="88" y="200" type="curve" smooth="yes"/>
      <point x="88" y="135"/>
      <point x="119" y="78"/>
      <point x="157" y="53" type="curve"/>
      <point x="124" y="48"/>
      <point x="87" y="42"/>
    </contour>
  </outline>
</glyph>
<glyph name="alef-ar" format="2">
  <advance width="220"/>
  <unicode hex="0627"/>
  <note>
uni0627
</note>
  <anchor x="112" y="-75" name="bottom"/>
  <anchor x="104" y="830" name="top"/>
  <outline>
    <contour>
      <point x="98" y="760" type="line"/>
      <point x="98" y="0" type="line"/>
      <point x="122" y="0" type="line"/>
      <point x="122" y="760" type="line"/>
    </contour>
  </outline>
</glyph>
<glyph name="hah-ar" format="2">
  <advance width="605"/>
  <unicode hex="062D"/>
  <note>
uni062D
</note>
  <anchor x="195" y="-366" name="bottom"/>
  <anchor x="302" y="445" name="center"/>
  <anchor x="166" y="546" name="top"/>
  <outline>
    <contour>
      <point x="253" y="-329" type="curve" smooth="yes"/>
      <point x="290" y="-329"/>
      <point x="359" y="-322"/>
      <point x="427" y="-304" type="curve"/>
      <point x="422" y="-280" type="line"/>
      <point x="354" y="-296"/>
      <point x="311" y="-305"/>
      <point x="262" y="-305" type="curve" smooth="yes"/>
      <point x="133" y="-305"/>
      <point x="69" y="-248"/>
      <point x="69" y="-150" type="curve" smooth="yes"/>
      <point x="69" y="-112"/>
      <point x="77" y="-82"/>
      <point x="94" y="-54" type="curve" smooth="yes"/>
      <point x="149" y="37"/>
      <point x="292" y="89"/>
      <point x="451" y="137" type="curve"/>
      <point x="463" y="108"/>
      <point x="491" y="66"/>
      <point x="526" y="43" type="curve"/>
      <point x="540" y="64" type="line"/>
      <point x="490" y="92"/>
      <point x="456" y="172"/>
      <point x="445" y="257" type="curve" smooth="yes"/>
      <point x="426" y="410"/>
      <point x="346" y="485"/>
      <point x="234" y="485" type="curve" smooth="yes"/>
      <point x="160" y="485"/>
      <point x="82" y="458"/>
      <point x="43" y="427" type="curve"/>
      <point x="58" y="407" type="line"/>
      <point x="107" y="439"/>
      <point x="161" y="461"/>
      <point x="230" y="461" type="curve" smooth="yes"/>
      <point x="345" y="461"/>
      <point x="403" y="383"/>
      <point x="421" y="254" type="curve" smooth="yes"/>
      <point x="429" y="197"/>
      <point x="441" y="164"/>
      <point x="443" y="159" type="curve"/>
      <point x="284" y="111"/>
      <point x="140" y="60"/>
      <point x="78" y="-35" type="curve" smooth="yes"/>
      <point x="57" y="-67"/>
      <point x="45" y="-104"/>
      <point x="45" y="-150" type="curve" smooth="yes"/>
      <point x="45" y="-260"/>
      <point x="120" y="-329"/>
    </contour>
  </outline>
</glyph>
<glyph name="dal-ar" format="2">
  <advance width="443"/>
  <unicode hex="062F"/>
  <note>
uni062F
</note>
  <anchor x="220" y="-78" name="bottom"/>
  <anchor x="188" y="592" name="top"/>
  <outline>
    <contour>
      <point x="45" y="24" type="line"/>
      <point x="45" y="0" type="line"/>
      <point x="398" y="0" type="line"/>
      <point x="398" y="24" type="line"/>
      <point x="383" y="238"/>
      <point x="292" y="426"/>
      <point x="158" y="515" type="curve"/>
      <point x="148" y="494" type="line"/>
      <point x="248" y="422"/>
      <point x="309" y="314"/>
      <point x="348" y="179" type="curve" smooth="yes"/>
      <point x="364" y="125"/>
      <point x="372" y="72"/>
      <point x="374" y="24" type="curve"/>
    </contour>
  </outline>
</glyph>
<glyph name="reh-ar" format="2">
  <advance width="276"/>
  <unicode hex="0631"/>
  <note>
uni0631
</note>
  <anchor x="83" y="-293" name="bottom"/>
  <anchor x="159" y="551" name="top"/>
  <outline>
    <contour>
      <point x="44" y="-241" type="curve" smooth="yes"/>
      <point x="132" y="-241"/>
      <point x="176" y="-180"/>
      <point x="176" y="-53" type="curve" smooth="yes"/>
      <point x="176" y="475" type="line"/>
      <point x="152" y="475" type="line"/>
      <point x="152" y="-58" type="line" smooth="yes"/>
      <point x="152" y="-161"/>
      <point x="121" y="-217"/>
      <point x="44" y="-217" type="curve" smooth="yes"/>
      <point x="14" y="-217"/>
      <point x="-8" y="-207"/>
      <point x="-20" y="-200" type="curve"/>
      <point x="-34" y="-220" type="line"/>
      <point x="-12" y="-232"/>
      <point x="11" y="-241"/>
    </contour>
  </outline>
</glyph>
<glyph name="seen-ar" format="2">
  <advance width="1073"/>
  <unicode hex="0633"/>
  <note>
uni0633
</note>
  <anchor x="741" y="-68" name="bottom"/>
  <anchor x="744" y="483" name="top"/>
  <outline>
    <contour>
      <point x="904" y="0" type="curve" smooth="yes"/>
      <point x="988" y="0" type="line"/>
      <point x="988" y="475" type="line"/>
      <point x="964" y="475" type="line"/>
      <point x="964" y="24" type="line"/>
      <point x="907" y="24" type="line" smooth="yes"/>
      <point x="840" y="24"/>
      <point x="794" y="37"/>
      <point x="758" y="87" type="curve"/>
      <point x="761" y="96"/>
      <point x="763" y="109"/>
      <point x="763" y="117" type="curve"/>
      <point x="763" y="397" type="line"/>
      <point x="739" y="397" type="line"/>
      <point x="739" y="132" type="line" smooth="yes"/>
      <point x="739" y="66"/>
      <point x="691" y="24"/>
      <point x="625" y="24" type="curve" smooth="yes"/>
      <point x="501" y="24" type="line"/>
      <point x="501" y="397" type="line"/>
      <point x="477" y="397" type="line"/>
      <point x="477" y="-10" type="line" smooth="yes"/>
      <point x="477" y="-158"/>
      <point x="422" y="-216"/>
      <point x="298" y="-216" type="curve" smooth="yes"/>
      <point x="257" y="-216" type="line" smooth="yes"/>
      <point x="141" y="-216"/>
      <point x="85" y="-144"/>
      <point x="85" y="-1" type="curve" smooth="yes"/>
      <point x="85" y="83"/>
      <point x="96" y="166"/>
      <point x="123" y="228" type="curve"/>
      <point x="98" y="228" type="line"/>
      <point x="75" y="168"/>
      <point x="61" y="80"/>
      <point x="61" y="-2" type="curve" smooth="yes"/>
      <point x="61" y="-153"/>
      <point x="122" y="-240"/>
      <point x="263" y="-240" type="curve" smooth="yes"/>
      <point x="297" y="-240" type="line" smooth="yes"/>
      <point x="449" y="-240"/>
      <point x="501" y="-160"/>
      <point x="501" y="0" type="curve"/>
      <point x="614" y="0" type="line" smooth="yes"/>
      <point x="681" y="0"/>
      <point x="726" y="26"/>
      <point x="746" y="66" type="curve"/>
      <point x="781" y="13"/>
      <point x="845" y="0"/>
    </contour>
  </outline>
</glyph>
<glyph name="sad-ar" format="2">
  <advance width="1066"/>
  <unicode hex="0635"/>
  <note>
uni0635
</note>
  <anchor x="771" y="-78" name="bottom"/>
  <anchor x="790" y="586" name="top"/>
  <outline>
    <contour>
      <point x="263" y="-240" type="curve" smooth="yes"/>
      <point x="297" y="-240" type="line" smooth="yes"/>
      <point x="449" y="-240"/>
      <point x="503" y="-164"/>
      <point x="501" y="0" type="curve"/>
      <point x="991" y="0" type="line"/>
      <point x="991" y="258" type="line" smooth="yes"/>
      <point x="991" y="411"/>
      <point x="918" y="485"/>
      <point x="792" y="485" type="curve" smooth="yes"/>
      <point x="679" y="485"/>
      <point x="555" y="396"/>
      <point x="501" y="197" type="curve"/>
      <point x="501" y="486" type="line"/>
      <point x="477" y="486" type="line"/>
      <point x="477" y="-20" type="line" smooth="yes"/>
      <point x="477" y="-158"/>
      <point x="422" y="-216"/>
      <point x="298" y="-216" type="curve" smooth="yes"/>
      <point x="260" y="-216" type="line" smooth="yes"/>
      <point x="142" y="-216"/>
      <point x="87" y="-148"/>
      <point x="85" y="-1" type="curve" smooth="yes"/>
      <point x="84" y="83"/>
      <point x="96" y="166"/>
      <point x="123" y="228" type="curve"/>
      <point x="98" y="228" type="line"/>
      <point x="75" y="168"/>
      <point x="61" y="80"/>
      <point x="61" y="-2" type="curve" smooth="yes"/>
      <point x="61" y="-153"/>
      <point x="122" y="-240"/>
    </contour>
    <contour>
      <point x="967" y="24" type="line"/>
      <point x="501" y="24" type="line"/>
      <point x="501" y="131" type="line"/>
      <point x="567" y="373"/>
      <point x="681" y="461"/>
      <point x="794" y="461" type="curve" smooth="yes"/>
      <point x="910" y="461"/>
      <point x="967" y="395"/>
      <point x="967" y="247" type="curve" smooth="yes"/>
    </contour>
  </outline>
</glyph>
<glyph name="tah-ar" format="2">
  <advance width="716"/>
  <unicode hex="0637"/>
  <note>
uni0637
</note>
  <anchor x="421" y="-78" name="bottom"/>
  <anchor x="460" y="576" name="top"/>
  <outline>
    <contour>
      <point x="25" y="0" type="curve"/>
      <point x="661" y="0" type="line"/>
      <point x="661" y="258" type="line" smooth="yes"/>
      <point x="661" y="411"/>
      <point x="588" y="485"/>
      <point x="462" y="485" type="curve" smooth="yes"/>
      <point x="349" y="485"/>
      <point x="225" y="396"/>
      <point x="171" y="197" type="curve"/>
      <point x="171" y="760" type="line"/>
      <point x="147" y="760" type="line"/>
      <point x="147" y="24" type="line"/>
      <point x="25" y="24" type="line" smooth="yes"/>
      <point x="22" y="24"/>
      <point x="20" y="23"/>
      <point x="20" y="20" type="curve" smooth="yes"/>
      <point x="20" y="5" type="line" smooth="yes"/>
      <point x="20" y="2"/>
      <point x="22" y="0"/>
    </contour>
    <contour>
      <point x="171" y="24" type="line"/>
      <point x="171" y="131" type="line"/>
      <point x="237" y="373"/>
      <point x="351" y="461"/>
      <point x="464" y="461" type="curve" smooth="yes"/>
      <point x="580" y="461"/>
      <point x="637" y="395"/>
      <point x="637" y="247" type="curve" smooth="yes"/>
      <point x="637" y="24" type="line"/>
    </contour>
  </outline>
</glyph>
<glyph name="ain-ar" format="2">
  <advance width="477"/>
  <unicode hex="0639"/>
  <note>
uni0639
</note>
  <anchor x="156" y="-381" name="bottom"/>
  <anchor x="282" y="546" name="top"/>
  <outline>
    <contour>
      <point x="258" y="-316" type="curve" smooth="yes"/>
      <point x="313" y="-316"/>
      <point x="378" y="-311"/>
      <point x="417" y="-302" type="curve"/>
      <point x="412" y="-279" type="line"/>
      <point x="366" y="-286"/>
      <point x="317" y="-292"/>
      <point x="269" y="-292" type="curve" smooth="yes"/>
      <point x="154" y="-292"/>
      <point x="89" y="-251"/>
      <point x="89" y="-137" type="curve" smooth="yes"/>
      <point x="89" y="-51"/>
      <point x="166" y="29"/>
      <point x="280" y="83" type="curve" smooth="yes"/>
      <point x="318" y="101"/>
      <point x="365" y="120"/>
      <point x="405" y="131" type="curve"/>
      <point x="396" y="153" type="line"/>
      <point x="332" y="135"/>
      <point x="273" y="109"/>
      <point x="220" y="79" type="curve"/>
      <point x="179" y="99"/>
      <point x="130" y="169"/>
      <point x="130" y="270" type="curve" smooth="yes"/>
      <point x="130" y="380"/>
      <point x="210" y="461"/>
      <point x="318" y="461" type="curve" smooth="yes"/>
      <point x="361" y="461"/>
      <point x="393" y="450"/>
      <point x="420" y="440" type="curve"/>
      <point x="432" y="461" type="line"/>
      <point x="404" y="474"/>
      <point x="367" y="485"/>
      <point x="322" y="485" type="curve" smooth="yes"/>
      <point x="213" y="485"/>
      <point x="106" y="409"/>
      <point x="106" y="269" type="curve" smooth="yes"/>
      <point x="106" y="167"/>
      <point x="148" y="103"/>
      <point x="199" y="64" type="curve"/>
      <point x="112" y="7"/>
      <point x="65" y="-60"/>
      <point x="65" y="-142" type="curve" smooth="yes"/>
      <point x="65" y="-257.001"/>
      <point x="141" y="-316"/>
    </contour>
  </outline>
</glyph>
<glyph name="kaf-ar" format="2">
  <advance width="704"/>
  <unicode hex="0643"/>
  <note>
uni0643
</note>
  <anchor x="381" y="-78" name="bottom"/>
  <anchor x="343" y="564" name="top"/>
  <outline>
    <contour>
      <point x="259" y="352" type="line"/>
      <point x="259" y="329" type="line"/>
      <point x="295" y="337"/>
      <point x="396" y="351"/>
      <point x="434" y="353" type="curve"/>
      <point x="434" y="375" type="line"/>
      <point x="417" y="374"/>
      <point x="347" y="366"/>
      <point x="341" y="365" type="curve"/>
      <point x="315" y="368"/>
      <point x="295" y="392"/>
      <point x="295" y="422" type="curve" smooth="yes"/>
      <point x="295" y="466"/>
      <point x="331" y="483"/>
      <point x="359" y="483" type="curve" smooth="yes"/>
      <point x="373" y="483"/>
      <point x="390" y="479"/>
      <point x="404" y="472" type="curve"/>
      <point x="415" y="492" type="line"/>
      <point x="404" y="498"/>
      <point x="385" y="505"/>
      <point x="364" y="505" type="curve" smooth="yes"/>
      <point x="311" y="505"/>
      <point x="271" y="472"/>
      <point x="271" y="421" type="curve" smooth="yes"/>
      <point x="271" y="397"/>
      <point x="286" y="369"/>
      <point x="310" y="360" type="curve"/>
    </contour>
    <contour>
      <point x="240" y="0" type="curve" smooth="yes"/>
      <point x="604" y="0" type="line"/>
      <point x="604" y="760" type="line"/>
      <point x="580" y="760" type="line"/>
      <point x="580" y="24" type="line"/>
      <point x="234" y="24" type="line" smooth="yes"/>
      <point x="125" y="24"/>
      <point x="89" y="75"/>
      <point x="89" y="161" type="curve" smooth="yes"/>
      <point x="89" y="205"/>
      <point x="95" y="234"/>
      <point x="105" y="274" type="curve"/>
      <point x="83" y="274" type="line"/>
      <point x="68" y="223"/>
      <point x="65" y="196"/>
      <point x="65" y="157" type="curve" smooth="yes"/>
      <point x="65" y="52.999"/>
      <point x="119" y="0"/>
    </contour>
  </outline>
</glyph>
<glyph name="lam-ar" format="2">
  <advance width="598"/>
  <unicode hex="0644"/>
  <note>
uni0644
</note>
  <anchor x="291" y="-322" name="bottom"/>
  <anchor x="264" y="732" name="top"/>
  <outline>
    <contour>
      <point x="244" y="-240" type="curve" smooth="yes"/>
      <point x="301" y="-240" type="line" smooth="yes"/>
      <point x="445" y="-240"/>
      <point x="498" y="-169"/>
      <point x="498" y="-27" type="curve" smooth="yes"/>
      <point x="498" y="760" type="line"/>
      <point x="474" y="760" type="line"/>
      <point x="474" y="-29" type="line" smooth="yes"/>
      <point x="474" y="-166"/>
      <point x="420" y="-216"/>
      <point x="302" y="-216" type="curve" smooth="yes"/>
      <point x="248" y="-216" type="line" smooth="yes"/>
      <point x="126" y="-216"/>
      <point x="89" y="-140"/>
      <point x="89" y="15" type="curve" smooth="yes"/>
      <point x="89" y="98"/>
      <point x="104" y="186"/>
      <point x="125" y="242" type="curve"/>
      <point x="103" y="243" type="line"/>
      <point x="77" y="178"/>
      <point x="65" y="81"/>
      <point x="65" y="7" type="curve" smooth="yes"/>
      <point x="65" y="-156"/>
      <point x="116" y="-240"/>
    </contour>
  </outline>
</glyph>
<glyph name="meem-ar" format="2">
  <advance width="583"/>
  <unicode hex="0645"/>
  <note>
uni0645
</note>
  <anchor x="322" y="-78" name="bottom"/>
  <anchor x="312" y="526" name="top"/>
  <outline>
    <contour>
      <point x="65" y="-80" type="curve" smooth="yes"/>
      <point x="65" y="-320" type="line"/>
      <point x="89" y="-320" type="line"/>
      <point x="89" y="-72" type="line" smooth="yes"/>
      <point x="89" y="-19"/>
      <point x="102" y="0"/>
      <point x="170" y="0" type="curve" smooth="yes"/>
      <point x="329" y="0" type="line" smooth="yes"/>
      <point x="410" y="0"/>
      <point x="457" y="39"/>
      <point x="487" y="112" type="curve" smooth="yes"/>
      <point x="502" y="149"/>
      <point x="508" y="194"/>
      <point x="508" y="249" type="curve" smooth="yes"/>
      <point x="508" y="326"/>
      <point x="481" y="394"/>
      <point x="429" y="429" type="curve" smooth="yes"/>
      <point x="403" y="446"/>
      <point x="371" y="455"/>
      <point x="334" y="455" type="curve" smooth="yes"/>
      <point x="258" y="455"/>
      <point x="204" y="425"/>
      <point x="166" y="378" type="curve"/>
      <point x="148" y="339"/>
      <point x="144" y="295"/>
      <point x="144" y="264" type="curve" smooth="yes"/>
      <point x="144" y="186"/>
      <point x="161" y="112"/>
      <point x="192" y="24" type="curve"/>
      <point x="170" y="24" type="line" smooth="yes"/>
      <point x="81" y="24"/>
      <point x="65" y="-9"/>
    </contour>
    <contour>
      <point x="168" y="269" type="curve" smooth="yes"/>
      <point x="168" y="309"/>
      <point x="178" y="356"/>
      <point x="186" y="369" type="curve"/>
      <point x="231" y="412"/>
      <point x="277" y="431"/>
      <point x="337" y="431" type="curve" smooth="yes"/>
      <point x="429" y="431"/>
      <point x="484" y="359"/>
      <point x="484" y="251" type="curve" smooth="yes"/>
      <point x="484" y="104"/>
      <point x="430" y="24"/>
      <point x="335" y="24" type="curve" smooth="yes"/>
      <point x="217" y="24" type="line"/>
      <point x="184" y="113"/>
      <point x="168" y="196"/>
    </contour>
  </outline>
</glyph>
<glyph name="heh-ar" format="2">
  <advance width="563"/>
  <unicode hex="0647"/>
  <note>
uni0647
</note>
  <anchor x="283" y="-78" name="bottom"/>
  <anchor x="285" y="556" name="top"/>
  <outline>
    <contour>
      <point x="280" y="-10" type="curve" smooth="yes"/>
      <point x="426" y="-10"/>
      <point x="498" y="75"/>
      <point x="498" y="216" type="curve" smooth="yes"/>
      <point x="498" y="304"/>
      <point x="464" y="396"/>
      <point x="399" y="445" type="curve" smooth="yes"/>
      <point x="359" y="475"/>
      <point x="320" y="485"/>
      <point x="283" y="485" type="curve" smooth="yes"/>
      <point x="206" y="485"/>
      <point x="134" y="434"/>
      <point x="94" y="353" type="curve" smooth="yes"/>
      <point x="74" y="312"/>
      <point x="65" y="269"/>
      <point x="65" y="224" type="curve" smooth="yes"/>
      <point x="65" y="80"/>
      <point x="149" y="-10"/>
    </contour>
    <contour>
      <point x="285" y="14" type="curve" smooth="yes"/>
      <point x="164" y="14"/>
      <point x="89" y="90"/>
      <point x="89" y="217" type="curve" smooth="yes"/>
      <point x="89" y="363"/>
      <point x="177" y="461"/>
      <point x="284" y="461" type="curve" smooth="yes"/>
      <point x="398" y="461"/>
      <point x="474" y="344"/>
      <point x="474" y="211" type="curve" smooth="yes"/>
      <point x="474" y="86"/>
      <point x="404" y="14"/>
    </contour>
  </outline>
</glyph>
<glyph name="waw-ar" format="2">
  <advance width="495"/>
  <unicode hex="0648"/>
  <note>
uni0648
</note>
  <anchor x="219" y="-293" name="bottom"/>
  <anchor x="248" y="445" name="center"/>
  <anchor x="241" y="546" name="top"/>
  <outline>
    <contour>
      <point x="212" y="-240" type="curve" smooth="yes"/>
      <point x="337" y="-240"/>
      <point x="410" y="-165"/>
      <point x="410" y="-45" type="curve" smooth="yes"/>
      <point x="410" y="475" type="line"/>
      <point x="317" y="475" type="line" smooth="yes"/>
      <point x="152" y="475"/>
      <point x="70" y="368"/>
      <point x="70" y="223" type="curve" smooth="yes"/>
      <point x="70" y="76"/>
      <point x="149" y="0"/>
      <point x="284" y="0" type="curve" smooth="yes"/>
      <point x="386" y="0" type="line"/>
      <point x="386" y="-51" type="line" smooth="yes"/>
      <point x="386" y="-149"/>
      <point x="321" y="-216"/>
      <point x="219" y="-216" type="curve" smooth="yes"/>
      <point x="162" y="-216"/>
      <point x="123" y="-200"/>
      <point x="78" y="-168" type="curve"/>
      <point x="65" y="-186" type="line"/>
      <point x="100" y="-215"/>
      <point x="149" y="-240"/>
    </contour>
    <contour>
      <point x="386" y="24" type="line"/>
      <point x="287" y="24" type="line" smooth="yes"/>
      <point x="158" y="24"/>
      <point x="94" y="92"/>
      <point x="94" y="221" type="curve" smooth="yes"/>
      <point x="94" y="371"/>
      <point x="183" y="451"/>
      <point x="314" y="451" type="curve" smooth="yes"/>
      <point x="386" y="451" type="line"/>
    </contour>
  </outline>
</glyph>
<glyph name="alefMaksura-ar" format="2">
  <advance width="795"/>
  <unicode hex="0649"/>
  <note>
uni0649
</note>
  <anchor x="381" y="-322" name="bottom"/>
  <anchor x="164" y="292" name="top"/>
  <outline>
    <contour>
      <point x="266" y="-240" type="curve" smooth="yes"/>
      <point x="460" y="-240" type="line" smooth="yes"/>
      <point x="596" y="-240"/>
      <point x="677" y="-168"/>
      <point x="677" y="-67" type="curve" smooth="yes"/>
      <point x="677" y="-18"/>
      <point x="649" y="16"/>
      <point x="626" y="39" type="curve" smooth="yes"/>
      <point x="605" y="60"/>
      <point x="576" y="86"/>
      <point x="515" y="120" type="curve" smooth="yes"/>
      <point x="465" y="148"/>
      <point x="413" y="173"/>
      <point x="413" y="220" type="curve" smooth="yes"/>
      <point x="413" y="293"/>
      <point x="474" y="374"/>
      <point x="539" y="413" type="curve" smooth="yes"/>
      <point x="570" y="431"/>
      <point x="606" y="442"/>
      <point x="641" y="442" type="curve" smooth="yes"/>
      <point x="679" y="442"/>
      <point x="724" y="418"/>
      <point x="738" y="410" type="curve"/>
      <point x="753" y="429" type="line"/>
      <point x="731" y="443"/>
      <point x="685" y="466"/>
      <point x="638" y="466" type="curve" smooth="yes"/>
      <point x="550" y="466"/>
      <point x="471" y="406"/>
      <point x="424" y="330" type="curve" smooth="yes"/>
      <point x="401" y="292"/>
      <point x="389" y="252"/>
      <point x="389" y="220" type="curve" smooth="yes"/>
      <point x="389" y="182"/>
      <point x="411" y="158"/>
      <point x="429" y="145" type="curve" smooth="yes"/>
      <point x="445" y="133"/>
      <point x="466" y="120"/>
      <point x="510" y="95" type="curve" smooth="yes"/>
      <point x="564" y="64"/>
      <point x="653" y="5"/>
      <point x="653" y="-68" type="curve" smooth="yes"/>
      <point x="653" y="-142"/>
      <point x="596" y="-216"/>
      <point x="461" y="-216" type="curve" smooth="yes"/>
      <point x="266" y="-216" type="line" smooth="yes"/>
      <point x="150" y="-216"/>
      <point x="89" y="-143"/>
      <point x="89" y="16" type="curve" smooth="yes"/>
      <point x="89" y="66"/>
      <point x="99" y="128"/>
      <point x="126" y="181" type="curve"/>
      <point x="103" y="181" type="line"/>
      <point x="74" y="123"/>
      <point x="65" y="68"/>
      <point x="65" y="14" type="curve" smooth="yes"/>
      <point x="65" y="-155"/>
      <point x="135" y="-240"/>
    </contour>
  </outline>
</glyph>
<glyph name="fathatan-ar" format="2">
  <unicode hex="064B"/>
  <note>
uni064B
</note>
  <anchor x="0" y="781" name="_top"/>
  <anchor x="0" y="1021" name="top"/>
  <outline>
    <contour>
      <point x="-101" y="814" type="line"/>
      <point x="-101" y="791" type="line"/>
      <point x="103" y="868" type="line"/>
      <point x="103" y="890" type="line"/>
    </contour>
    <contour>
      <point x="-101" y="917" type="line"/>
      <point x="-101" y="894" type="line"/>
      <point x="103" y="971" type="line"/>
      <point x="103" y="993" type="line"/>
    </contour>
  </outline>
</glyph>
<glyph name="dammatan-ar" format="2">
  <unicode hex="064C"/>
  <note>
uni064C
</note>
  <anchor x="5" y="761" name="_top"/>
  <anchor x="0" y="761" name="_top2"/>
  <anchor x="6" y="1010" name="top"/>
  <outline>
    <contour>
      <point x="-8" y="791" type="curve" smooth="yes"/>
      <point x="30" y="791"/>
      <point x="91" y="818"/>
      <point x="117" y="856" type="curve" smooth="yes"/>
      <point x="130" y="875"/>
      <point x="136" y="896"/>
      <point x="136" y="917" type="curve" smooth="yes"/>
      <point x="136" y="961"/>
      <point x="106" y="990"/>
      <point x="62" y="990" type="curve" smooth="yes"/>
      <point x="15" y="990"/>
      <point x="-17" y="958"/>
      <point x="-17" y="907" type="curve" smooth="yes"/>
      <point x="-17" y="872"/>
      <point x="-2" y="840"/>
      <point x="19" y="816" type="curve"/>
      <point x="12" y="814"/>
      <point x="2" y="812"/>
      <point x="-8" y="812" type="curve" smooth="yes"/>
      <point x="-45" y="812"/>
      <point x="-74" y="832"/>
      <point x="-100" y="886" type="curve"/>
      <point x="-158" y="831" type="line"/>
      <point x="-144" y="816" type="line"/>
      <point x="-106" y="852" type="line"/>
      <point x="-80" y="810"/>
      <point x="-51" y="791"/>
    </contour>
    <contour>
      <point x="36" y="823" type="curve"/>
      <point x="13" y="853"/>
      <point x="5" y="879"/>
      <point x="5" y="904" type="curve" smooth="yes"/>
      <point x="5" y="948"/>
      <point x="30" y="969"/>
      <point x="60" y="969" type="curve" smooth="yes"/>
      <point x="92" y="969"/>
      <point x="114" y="945"/>
      <point x="114" y="913" type="curve" smooth="yes"/>
      <point x="114" y="875"/>
      <point x="83" y="840"/>
    </contour>
  </outline>
</glyph>
<glyph name="kasratan-ar" format="2">
  <unicode hex="064D"/>
  <note>
uni064D
</note>
  <anchor x="0" y="-122" name="_bottom"/>
  <anchor x="0" y="-387" name="bottom"/>
  <outline>
    <contour>
      <point x="-101" y="-337" type="line"/>
      <point x="-101" y="-360" type="line"/>
      <point x="103" y="-283" type="line"/>
      <point x="103" y="-261" type="line"/>
    </contour>
    <contour>
      <point x="-101" y="-234" type="line"/>
      <point x="-101" y="-257" type="line"/>
      <point x="103" y="-180" type="line"/>
      <point x="103" y="-158" type="line"/>
    </contour>
  </outline>
</glyph>
<glyph name="fatha-ar" format="2">
  <unicode hex="064E"/>
  <note>
uni064E
</note>
  <anchor x="0" y="781" name="_top"/>
  <anchor x="0" y="908" name="top"/>
  <outline>
    <contour>
      <point x="-101" y="816" type="line"/>
      <point x="-101" y="793" type="line"/>
      <point x="103" y="870" type="line"/>
      <point x="103" y="892" type="line"/>
    </contour>
  </outline>
</glyph>
<glyph name="damma-ar" format="2">
  <unicode hex="064F"/>
  <note>
uni064F
</note>
  <anchor x="3" y="759" name="_top"/>
  <anchor x="4" y="1021" name="top"/>
  <outline>
    <contour>
      <point x="-27" y="786" type="curve" smooth="yes"/>
      <point x="18" y="786"/>
      <point x="68" y="806"/>
      <point x="105" y="850" type="curve" smooth="yes"/>
      <point x="123" y="872"/>
      <point x="129" y="894"/>
      <point x="129" y="917" type="curve" smooth="yes"/>
      <point x="129" y="955"/>
      <point x="103" y="993"/>
      <point x="54" y="993" type="curve" smooth="yes"/>
      <point x="5" y="993"/>
      <point x="-26" y="961"/>
      <point x="-26" y="915" type="curve" smooth="yes"/>
      <point x="-26" y="878"/>
      <point x="-8" y="845"/>
      <point x="26" y="818" type="curve"/>
      <point x="10" y="810"/>
      <point x="-10" y="807"/>
      <point x="-28" y="807" type="curve" smooth="yes"/>
      <point x="-53" y="807"/>
      <point x="-75" y="815"/>
      <point x="-99" y="832" type="curve"/>
      <point x="-112" y="815" type="line"/>
      <point x="-91" y="798"/>
      <point x="-64" y="786"/>
    </contour>
    <contour>
      <point x="43" y="826" type="curve"/>
      <point x="13" y="855"/>
      <point x="-4" y="881"/>
      <point x="-4" y="911" type="curve" smooth="yes"/>
      <point x="-4" y="951"/>
      <point x="18" y="972"/>
      <point x="52" y="972" type="curve" smooth="yes"/>
      <point x="88" y="972"/>
      <point x="107" y="946"/>
      <point x="107" y="914" type="curve" smooth="yes"/>
      <point x="107" y="878"/>
      <point x="80" y="845"/>
    </contour>
  </outline>
</glyph>
<glyph name="kasra-ar" format="2">
  <unicode hex="0650"/>
  <note>
uni0650
</note>
  <anchor x="0" y="-122" name="_bottom"/>
  <anchor x="0" y="-283" name="bottom"/>
  <outline>
    <contour>
      <point x="-101" y="-226" type="line"/>
      <point x="-101" y="-249" type="line"/>
      <point x="103" y="-172" type="line"/>
      <point x="103" y="-150" type="line"/>
    </contour>
  </outline>
</glyph>
<glyph name="shadda-ar" format="2">
  <unicode hex="0651"/>
  <note>
uni0651
</note>
  <anchor x="0" y="769" name="_top"/>
  <anchor x="2" y="1027" name="top"/>
  <outline>
    <contour>
      <point x="-64" y="810" type="curve" smooth="yes"/>
      <point x="-36" y="810"/>
      <point x="-11" y="823"/>
      <point x="-1" y="862" type="curve"/>
      <point x="10" y="834"/>
      <point x="32" y="829"/>
      <point x="54" y="829" type="curve" smooth="yes"/>
      <point x="96" y="829"/>
      <point x="120" y="858"/>
      <point x="120" y="919" type="curve" smooth="yes"/>
      <point x="120" y="996" type="line"/>
      <point x="99" y="996" type="line"/>
      <point x="99" y="921" type="line" smooth="yes"/>
      <point x="99" y="876"/>
      <point x="88" y="850"/>
      <point x="53" y="850" type="curve" smooth="yes"/>
      <point x="29" y="850"/>
      <point x="8" y="862"/>
      <point x="8" y="912" type="curve" smooth="yes"/>
      <point x="8" y="982" type="line"/>
      <point x="-13" y="982" type="line"/>
      <point x="-13" y="894" type="line" smooth="yes"/>
      <point x="-13" y="858"/>
      <point x="-28" y="831"/>
      <point x="-63" y="831" type="curve" smooth="yes"/>
      <point x="-89" y="831"/>
      <point x="-108" y="843"/>
      <point x="-108" y="900" type="curve" smooth="yes"/>
      <point x="-108" y="959" type="line"/>
      <point x="-129" y="959" type="line"/>
      <point x="-129" y="898" type="line" smooth="yes"/>
      <point x="-129" y="838"/>
      <point x="-107" y="810"/>
    </contour>
  </outline>
</glyph>
<glyph name="sukun-ar" format="2">
  <unicode hex="0652"/>
  <note>
uni0652
</note>
  <anchor x="0" y="801" name="_top"/>
  <anchor x="0" y="801" name="_top2"/>
  <anchor x="1" y="1046" name="top"/>
  <outline>
    <contour>
      <point x="-1" y="850" type="curve" smooth="yes"/>
      <point x="47" y="850"/>
      <point x="79" y="880"/>
      <point x="79" y="929" type="curve" smooth="yes"/>
      <point x="79" y="978"/>
      <point x="47" y="1008"/>
      <point x="-1" y="1008" type="curve" smooth="yes"/>
      <point x="-49" y="1008"/>
      <point x="-81" y="978"/>
      <point x="-81" y="929" type="curve" smooth="yes"/>
      <point x="-81" y="880"/>
      <point x="-49" y="850"/>
    </contour>
    <contour>
      <point x="-1" y="871" type="curve" smooth="yes"/>
      <point x="-35" y="871"/>
      <point x="-59" y="892"/>
      <point x="-59" y="929" type="curve" smooth="yes"/>
      <point x="-59" y="966"/>
      <point x="-35" y="987"/>
      <point x="-1" y="987" type="curve" smooth="yes"/>
      <point x="33" y="987"/>
      <point x="57" y="966"/>
      <point x="57" y="929" type="curve" smooth="yes"/>
      <point x="57" y="892"/>
      <point x="33" y="871"/>
    </contour>
  </outline>
</glyph>
<glyph name="madda-ar" format="2">
  <unicode hex="0653"/>
  <note>
uni0653
</note>
  <anchor x="0" y="732" name="_top"/>
  <anchor x="0" y="732" name="_top2"/>
  <anchor x="2" y="866" name="top"/>
  <outline>
    <contour>
      <point x="-117" y="769" type="curve"/>
      <point x="-99" y="769" type="line"/>
      <point x="-92" y="794"/>
      <point x="-84" y="810"/>
      <point x="-60" y="810" type="curve" smooth="yes"/>
      <point x="-45" y="810"/>
      <point x="-25" y="801"/>
      <point x="-5" y="791" type="curve" smooth="yes"/>
      <point x="18" y="780"/>
      <point x="41" y="769"/>
      <point x="61" y="769" type="curve" smooth="yes"/>
      <point x="95" y="769"/>
      <point x="109" y="797"/>
      <point x="114" y="830" type="curve"/>
      <point x="95" y="830" type="line"/>
      <point x="88" y="805"/>
      <point x="80" y="791"/>
      <point x="60" y="791" type="curve" smooth="yes"/>
      <point x="48" y="791"/>
      <point x="31" y="798"/>
      <point x="12" y="808" type="curve" smooth="yes"/>
      <point x="-11" y="820"/>
      <point x="-37" y="832"/>
      <point x="-60" y="832" type="curve" smooth="yes"/>
      <point x="-99" y="832"/>
      <point x="-111" y="807"/>
    </contour>
  </outline>
</glyph>
<glyph name="hamzaabove-ar" format="2">
  <unicode hex="0654"/>
  <note>
uni0654
</note>
  <anchor x="0" y="742" name="_top"/>
  <anchor x="-7" y="933" name="top"/>
  <outline>
    <contour>
      <point x="-99" y="772" type="line"/>
      <point x="-99" y="751" type="line"/>
      <point x="-27" y="764"/>
      <point x="24" y="771"/>
      <point x="76" y="776" type="curve"/>
      <point x="76" y="797" type="line"/>
      <point x="56" y="796"/>
      <point x="3" y="789"/>
      <point x="-25" y="785" type="curve"/>
      <point x="-47" y="793"/>
      <point x="-66" y="814"/>
      <point x="-66" y="842" type="curve" smooth="yes"/>
      <point x="-66" y="882"/>
      <point x="-31" y="907"/>
      <point x="4" y="907" type="curve" smooth="yes"/>
      <point x="22" y="907"/>
      <point x="38" y="900"/>
      <point x="47" y="895" type="curve"/>
      <point x="57" y="915" type="line"/>
      <point x="43" y="924"/>
      <point x="26" y="928"/>
      <point x="8" y="928" type="curve" smooth="yes"/>
      <point x="-48" y="928"/>
      <point x="-87" y="891"/>
      <point x="-87" y="841" type="curve" smooth="yes"/>
      <point x="-87" y="819"/>
      <point x="-79" y="795"/>
      <point x="-53" y="780" type="curve"/>
    </contour>
  </outline>
</glyph>
<glyph name="hamzabelow-ar" format="2">
  <unicode hex="0655"/>
  <note>
uni0655
</note>
  <anchor x="0" y="-27" name="_bottom"/>
  <anchor x="0" y="-27" name="_bottom2"/>
  <anchor x="0" y="-244" name="bottom"/>
  <outline>
    <contour>
      <point x="-89" y="-196" type="line"/>
      <point x="-89" y="-220" type="line"/>
      <point x="-17" y="-207"/>
      <point x="34" y="-200"/>
      <point x="86" y="-195" type="curve"/>
      <point x="86" y="-173" type="line"/>
      <point x="62" y="-175"/>
      <point x="8" y="-182"/>
      <point x="-15" y="-185" type="curve"/>
      <point x="-37" y="-177"/>
      <point x="-56" y="-156"/>
      <point x="-56" y="-128" type="curve" smooth="yes"/>
      <point x="-56" y="-88"/>
      <point x="-21" y="-63"/>
      <point x="14" y="-63" type="curve" smooth="yes"/>
      <point x="32" y="-63"/>
      <point x="48" y="-70"/>
      <point x="57" y="-75" type="curve"/>
      <point x="67" y="-55" type="line"/>
      <point x="53" y="-46"/>
      <point x="36" y="-42"/>
      <point x="18" y="-42" type="curve" smooth="yes"/>
      <point x="-38" y="-42"/>
      <point x="-77" y="-79"/>
      <point x="-77" y="-129" type="curve" smooth="yes"/>
      <point x="-77" y="-151"/>
      <point x="-69" y="-175"/>
      <point x="-47" y="-189" type="curve"/>
    </contour>
  </outline>
</glyph>
<glyph name="alefbelow-ar" format="2">
  <unicode hex="0656"/>
  <note>
uni0656
</note>
  <anchor x="0" y="-155" name="_bottom"/>
  <anchor x="0" y="-155" name="_bottom2"/>
  <anchor x="0" y="-388" name="bottom"/>
  <outline>
    <contour>
      <point x="-11" y="-193" type="line"/>
      <point x="-11" y="-387" type="line"/>
      <point x="11" y="-387" type="line"/>
      <point x="11" y="-193" type="line"/>
    </contour>
  </outline>
</glyph>
<glyph name="dammainverted-ar" format="2">
  <unicode hex="0657"/>
  <note>
uni0657
</note>
  <anchor x="0" y="605" name="_top"/>
  <anchor x="0" y="605" name="_top2"/>
  <anchor x="5" y="831" name="top"/>
  <outline>
    <contour>
      <point x="47" y="810" type="line"/>
      <point x="18" y="798"/>
      <point x="-49" y="756"/>
      <point x="-49" y="690" type="curve" smooth="yes"/>
      <point x="-49" y="658"/>
      <point x="-31" y="633"/>
      <point x="-3" y="633" type="curve" smooth="yes"/>
      <point x="31" y="633"/>
      <point x="49" y="652"/>
      <point x="49" y="680" type="curve" smooth="yes"/>
      <point x="49" y="705"/>
      <point x="25" y="728"/>
      <point x="-8" y="740" type="curve"/>
      <point x="-5" y="749"/>
      <point x="24" y="778"/>
      <point x="58" y="794" type="curve"/>
    </contour>
    <contour>
      <point x="-19" y="722" type="curve"/>
      <point x="9" y="712"/>
      <point x="28" y="694"/>
      <point x="28" y="679" type="curve" smooth="yes"/>
      <point x="28" y="667"/>
      <point x="20" y="653"/>
      <point x="1" y="653" type="curve" smooth="yes"/>
      <point x="-16" y="653"/>
      <point x="-28" y="672"/>
      <point x="-28" y="690" type="curve" smooth="yes"/>
      <point x="-28" y="702"/>
      <point x="-26" y="711"/>
    </contour>
  </outline>
</glyph>
<glyph name="noonghunnaabove-ar" format="2">
  <unicode hex="0658"/>
  <note>
uni0658
</note>
  <anchor x="0" y="625" name="_top"/>
  <anchor x="0" y="625" name="_top2"/>
  <anchor x="-5" y="744" name="top"/>
  <outline>
    <contour>
      <point x="50" y="744" type="curve"/>
      <point x="29" y="744" type="line"/>
      <point x="29" y="718"/>
      <point x="26" y="701"/>
      <point x="21" y="692" type="curve" smooth="yes"/>
      <point x="15" y="681"/>
      <point x="5" y="676"/>
      <point x="-6" y="676" type="curve" smooth="yes"/>
      <point x="-28" y="676"/>
      <point x="-39" y="693"/>
      <point x="-39" y="725" type="curve"/>
      <point x="-60" y="725" type="line"/>
      <point x="-60" y="675"/>
      <point x="-38" y="654"/>
      <point x="-7" y="654" type="curve" smooth="yes"/>
      <point x="30" y="654"/>
      <point x="50" y="679"/>
    </contour>
  </outline>
</glyph>
<glyph name="fathaHorizont-ar" format="2">
  <unicode hex="0659"/>
  <note>
uni0659
</note>
  <anchor x="-10" y="605" name="_top"/>
  <anchor x="-10" y="605" name="_top2"/>
  <anchor x="-10" y="689" name="top"/>
  <outline>
    <contour>
      <point x="58" y="662" type="line"/>
      <point x="-67" y="662" type="line"/>
      <point x="-82" y="641" type="line"/>
      <point x="38" y="641" type="line"/>
    </contour>
  </outline>
</glyph>
<glyph name="dammareversed-ar" format="2">
  <unicode hex="065D"/>
  <note>
uni065D
</note>
  <anchor x="0" y="566" name="_top"/>
  <anchor x="0" y="566" name="_top2"/>
  <anchor x="-3" y="843" name="top"/>
  <outline>
    <contour>
      <point x="39" y="593" type="curve" smooth="yes"/>
      <point x="73" y="593"/>
      <point x="100" y="600"/>
      <point x="124" y="614" type="curve"/>
      <point x="112" y="634" type="line"/>
      <point x="88" y="621"/>
      <point x="64" y="615"/>
      <point x="42" y="615" type="curve" smooth="yes"/>
      <point x="22" y="615"/>
      <point x="-1" y="617"/>
      <point x="-29" y="629" type="curve"/>
      <point x="3" y="650"/>
      <point x="23" y="689"/>
      <point x="23" y="729" type="curve" smooth="yes"/>
      <point x="23" y="782"/>
      <point x="-8" y="813"/>
      <point x="-58" y="813" type="curve" smooth="yes"/>
      <point x="-108" y="813"/>
      <point x="-140" y="777"/>
      <point x="-140" y="728" type="curve" smooth="yes"/>
      <point x="-140" y="687"/>
      <point x="-106" y="639"/>
      <point x="-50" y="614" type="curve" smooth="yes"/>
      <point x="-21" y="601"/>
      <point x="11" y="593"/>
    </contour>
    <contour>
      <point x="-48" y="637" type="curve"/>
      <point x="-95" y="662"/>
      <point x="-116" y="702"/>
      <point x="-116" y="728" type="curve" smooth="yes"/>
      <point x="-116" y="764"/>
      <point x="-92" y="790"/>
      <point x="-58" y="790" type="curve" smooth="yes"/>
      <point x="-25" y="790"/>
      <point x="-1" y="772"/>
      <point x="-1" y="728" type="curve" smooth="yes"/>
      <point x="-1" y="697"/>
      <point x="-15" y="668"/>
    </contour>
  </outline>
</glyph>
<glyph name="fathatwodots-ar" format="2">
  <unicode hex="065E"/>
  <note>
uni065E
</note>
  <anchor x="0" y="551" name="_top"/>
  <anchor x="6" y="537" name="_top2"/>
  <anchor x="0" y="764" name="top"/>
  <outline>
    <contour>
      <point x="111" y="701" type="line"/>
      <point x="-84" y="628" type="line"/>
      <point x="-99" y="599" type="line"/>
      <point x="98" y="674" type="line"/>
    </contour>
    <contour>
      <point x="-28" y="688" type="curve" smooth="yes"/>
      <point x="-19" y="688"/>
      <point x="-11" y="693"/>
      <point x="-11" y="707" type="curve" smooth="yes"/>
      <point x="-11" y="718"/>
      <point x="-19" y="724"/>
      <point x="-28" y="724" type="curve" smooth="yes"/>
      <point x="-36" y="724"/>
      <point x="-44" y="718"/>
      <point x="-44" y="707" type="curve" smooth="yes"/>
      <point x="-44" y="693"/>
      <point x="-36" y="688"/>
    </contour>
    <contour>
      <point x="46" y="585" type="curve" smooth="yes"/>
      <point x="56" y="585"/>
      <point x="63" y="591"/>
      <point x="63" y="604" type="curve" smooth="yes"/>
      <point x="63" y="616"/>
      <point x="56" y="621"/>
      <point x="46" y="621" type="curve" smooth="yes"/>
      <point x="38" y="621"/>
      <point x="30" y="616"/>
      <point x="30" y="604" type="curve" smooth="yes"/>
      <point x="30" y="591"/>
      <point x="38" y="585"/>
    </contour>
  </outline>
</glyph>
<glyph name="wavyhamza_below" format="2">
  <unicode hex="065F"/>
  <note>
wavyhamza_below
</note>
  <outline>
    <contour>
      <point x="90" y="-221" type="curve"/>
      <point x="90" y="-199" type="line"/>
      <point x="63" y="-204"/>
      <point x="3" y="-214"/>
      <point x="-11" y="-215" type="curve"/>
      <point x="-34" y="-206"/>
      <point x="-51" y="-183"/>
      <point x="-51" y="-155" type="curve" smooth="yes"/>
      <point x="-51" y="-120"/>
      <point x="-25" y="-94"/>
      <point x="16" y="-94" type="curve" smooth="yes"/>
      <point x="35" y="-94"/>
      <point x="51" y="-100"/>
      <point x="61" y="-105" type="curve"/>
      <point x="71" y="-84" type="line"/>
      <point x="61" y="-78"/>
      <point x="42" y="-73"/>
      <point x="19" y="-73" type="curve" smooth="yes"/>
      <point x="-39" y="-73"/>
      <point x="-73" y="-105"/>
      <point x="-73" y="-155" type="curve" smooth="yes"/>
      <point x="-73" y="-187"/>
      <point x="-59" y="-208"/>
      <point x="-36" y="-220" type="curve"/>
      <point x="-66" y="-220"/>
      <point x="-78" y="-216"/>
      <point x="-92" y="-210" type="curve" smooth="yes"/>
      <point x="-104" y="-205"/>
      <point x="-110" y="-203"/>
      <point x="-117" y="-203" type="curve" smooth="yes"/>
      <point x="-123" y="-203"/>
      <point x="-127" y="-204"/>
      <point x="-136" y="-209" type="curve" smooth="yes"/>
      <point x="-144" y="-214"/>
      <point x="-154" y="-223"/>
      <point x="-171" y="-244" type="curve"/>
      <point x="-157" y="-252" type="line"/>
      <point x="-143" y="-236"/>
      <point x="-130" y="-225"/>
      <point x="-116" y="-225" type="curve" smooth="yes"/>
      <point x="-108" y="-225"/>
      <point x="-96" y="-230"/>
      <point x="-84" y="-235" type="curve" smooth="yes"/>
      <point x="-71" y="-240"/>
      <point x="-56" y="-242"/>
      <point x="-36" y="-242" type="curve" smooth="yes"/>
      <point x="-16" y="-242"/>
      <point x="72" y="-225"/>
    </contour>
  </outline>
</glyph>
<glyph name="zero-ar" format="2">
  <advance width="259"/>
  <unicode hex="0660"/>
  <note>
uni0660
</note>
  <outline>
    <contour>
      <point x="100" y="346" type="line"/>
      <point x="100" y="199" type="line"/>
      <point x="159" y="199" type="line"/>
      <point x="159" y="346" type="line"/>
    </contour>
  </outline>
</glyph>
<glyph name="two-ar" format="2">
  <advance width="431"/>
  <unicode hex="0662"/>
  <note>
uni0662
</note>
  <outline>
    <contour>
      <point x="37" y="651" type="line"/>
      <point x="255" y="0" type="line"/>
      <point x="282" y="0" type="line"/>
      <point x="61" y="651" type="line"/>
      <point x="381" y="651" type="line"/>
      <point x="381" y="674" type="line"/>
      <point x="37" y="674" type="line"/>
    </contour>
  </outline>
</glyph>
<glyph name="three-ar" format="2">
  <advance width="559"/>
  <unicode hex="0663"/>
  <note>
uni0663
</note>
  <outline>
    <contour>
      <point x="45" y="674" type="line"/>
      <point x="228" y="0" type="line"/>
      <point x="253" y="0" type="line"/>
      <point x="126" y="468" type="line"/>
      <point x="141" y="456"/>
      <point x="161" y="452"/>
      <point x="177" y="452" type="curve" smooth="yes"/>
      <point x="205" y="452"/>
      <point x="229" y="462"/>
      <point x="246" y="479" type="curve"/>
      <point x="264" y="462"/>
      <point x="296" y="449"/>
      <point x="336" y="449" type="curve" smooth="yes"/>
      <point x="434" y="449"/>
      <point x="494" y="525"/>
      <point x="494" y="660" type="curve" smooth="yes"/>
      <point x="494" y="674" type="line"/>
      <point x="470" y="674" type="line"/>
      <point x="470" y="594"/>
      <point x="458" y="556"/>
      <point x="438" y="526" type="curve" smooth="yes"/>
      <point x="413" y="489"/>
      <point x="381" y="473"/>
      <point x="335" y="473" type="curve" smooth="yes"/>
      <point x="312" y="473"/>
      <point x="284" y="477"/>
      <point x="261" y="497" type="curve"/>
      <point x="290" y="537"/>
      <point x="301" y="602"/>
      <point x="301" y="674" type="curve"/>
      <point x="277" y="674" type="line"/>
      <point x="277" y="623"/>
      <point x="269" y="563"/>
      <point x="249" y="523" type="curve" smooth="yes"/>
      <point x="234" y="493"/>
      <point x="208" y="476"/>
      <point x="177" y="476" type="curve" smooth="yes"/>
      <point x="151" y="476"/>
      <point x="120" y="486"/>
      <point x="108" y="533" type="curve" smooth="yes"/>
      <point x="71" y="674" type="line"/>
    </contour>
  </outline>
</glyph>
<glyph name="four-ar" format="2">
  <advance width="414"/>
  <unicode hex="0664"/>
  <note>
uni0664
</note>
  <outline>
    <contour>
      <point x="237" y="-10" type="curve" smooth="yes"/>
      <point x="295" y="-10"/>
      <point x="342" y="-3"/>
      <point x="379" y="10" type="curve"/>
      <point x="379" y="35" type="line"/>
      <point x="339" y="21"/>
      <point x="306" y="14"/>
      <point x="237" y="14" type="curve" smooth="yes"/>
      <point x="142" y="14"/>
      <point x="109" y="45"/>
      <point x="109" y="72" type="curve" smooth="yes"/>
      <point x="109" y="96"/>
      <point x="124" y="128"/>
      <point x="149" y="163" type="curve" smooth="yes"/>
      <point x="188" y="217"/>
      <point x="249" y="276"/>
      <point x="311" y="314" type="curve"/>
      <point x="163" y="435"/>
      <point x="123" y="476"/>
      <point x="123" y="495" type="curve" smooth="yes"/>
      <point x="123" y="517"/>
      <point x="178" y="560"/>
      <point x="236" y="597" type="curve" smooth="yes"/>
      <point x="268" y="617"/>
      <point x="300" y="635"/>
      <point x="324" y="647" type="curve"/>
      <point x="320" y="671" type="line"/>
      <point x="259" y="644"/>
      <point x="162" y="582"/>
      <point x="124" y="542" type="curve" smooth="yes"/>
      <point x="102" y="519"/>
      <point x="99" y="504"/>
      <point x="99" y="492" type="curve" smooth="yes"/>
      <point x="99" y="481"/>
      <point x="101" y="461"/>
      <point x="226" y="357" type="curve" smooth="yes"/>
      <point x="279" y="313" type="line"/>
      <point x="150" y="232"/>
      <point x="85" y="115"/>
      <point x="85" y="72" type="curve" smooth="yes"/>
      <point x="85" y="39"/>
      <point x="106" y="13"/>
      <point x="153" y="0" type="curve" smooth="yes"/>
      <point x="177" y="-7"/>
      <point x="205" y="-10"/>
    </contour>
  </outline>
</glyph>
<glyph name="five-ar" format="2">
  <advance width="567"/>
  <unicode hex="0665"/>
  <note>
uni0665
</note>
  <outline>
    <contour>
      <point x="282" y="-10" type="curve" smooth="yes"/>
      <point x="393" y="-10"/>
      <point x="446" y="27"/>
      <point x="479" y="106" type="curve" smooth="yes"/>
      <point x="495" y="145"/>
      <point x="502" y="197"/>
      <point x="502" y="260" type="curve" smooth="yes"/>
      <point x="502" y="396"/>
      <point x="466" y="541"/>
      <point x="399" y="623" type="curve" smooth="yes"/>
      <point x="366" y="664"/>
      <point x="326.999" y="683"/>
      <point x="285" y="683" type="curve" smooth="yes"/>
      <point x="206" y="683"/>
      <point x="137" y="605"/>
      <point x="96" y="472" type="curve" smooth="yes"/>
      <point x="75" y="405"/>
      <point x="65" y="335"/>
      <point x="65" y="260" type="curve" smooth="yes"/>
      <point x="65" y="81"/>
      <point x="129" y="-10"/>
    </contour>
    <contour>
      <point x="287" y="14" type="curve" smooth="yes"/>
      <point x="143" y="14"/>
      <point x="89" y="98"/>
      <point x="89" y="261" type="curve" smooth="yes"/>
      <point x="89" y="392"/>
      <point x="128" y="534"/>
      <point x="184" y="601" type="curve" smooth="yes"/>
      <point x="216" y="639"/>
      <point x="250" y="659"/>
      <point x="286" y="659" type="curve" smooth="yes"/>
      <point x="364" y="659"/>
      <point x="431" y="567"/>
      <point x="463" y="416" type="curve" smooth="yes"/>
      <point x="475" y="361"/>
      <point x="477" y="304"/>
      <point x="477" y="260" type="curve" smooth="yes"/>
      <point x="477" y="98"/>
      <point x="426" y="14"/>
    </contour>
  </outline>
</glyph>
<glyph name="six-ar" format="2">
  <advance width="477"/>
  <unicode hex="0666"/>
  <note>
uni0666
</note>
  <outline>
    <contour>
      <point x="353" y="652" type="line"/>
      <point x="353" y="0" type="line"/>
      <point x="377" y="0" type="line"/>
      <point x="377" y="674" type="line"/>
      <point x="0" y="674" type="line"/>
      <point x="0" y="652" type="line"/>
    </contour>
  </outline>
</glyph>
<glyph name="seven-ar" format="2">
  <advance width="477"/>
  <unicode hex="0667"/>
  <note>
uni0667
</note>
  <outline>
    <contour>
      <point x="203" y="0" type="line"/>
      <point x="272" y="0" type="line"/>
      <point x="457" y="674" type="line"/>
      <point x="431" y="674" type="line"/>
      <point x="280" y="120" type="line" smooth="yes"/>
      <point x="268" y="75"/>
      <point x="260" y="49"/>
      <point x="251" y="22" type="curve"/>
      <point x="224" y="22" type="line"/>
      <point x="215" y="47"/>
      <point x="204" y="86"/>
      <point x="195" y="121" type="curve" smooth="yes"/>
      <point x="46" y="674" type="line"/>
      <point x="20" y="674" type="line"/>
    </contour>
  </outline>
</glyph>
<glyph name="eight-ar" format="2">
  <advance width="477"/>
  <unicode hex="0668"/>
  <note>
uni0668
</note>
  <outline>
    <contour>
      <point x="203" y="674" type="line"/>
      <point x="20" y="0" type="line"/>
      <point x="46" y="0" type="line"/>
      <point x="195" y="553" type="line" smooth="yes"/>
      <point x="204" y="588"/>
      <point x="215" y="627"/>
      <point x="224" y="652" type="curve"/>
      <point x="251" y="652" type="line"/>
      <point x="260" y="625"/>
      <point x="268" y="599"/>
      <point x="280" y="554" type="curve" smooth="yes"/>
      <point x="431" y="0" type="line"/>
      <point x="457" y="0" type="line"/>
      <point x="272" y="674" type="line"/>
    </contour>
  </outline>
</glyph>
<glyph name="nine-ar" format="2">
  <advance width="490"/>
  <unicode hex="0669"/>
  <note>
uni0669
</note>
  <outline>
    <contour>
      <point x="376" y="286" type="line"/>
      <point x="376" y="0" type="line"/>
      <point x="400" y="0" type="line"/>
      <point x="400" y="323" type="line" smooth="yes"/>
      <point x="400" y="590"/>
      <point x="349" y="684"/>
      <point x="204" y="684" type="curve" smooth="yes"/>
      <point x="94" y="684"/>
      <point x="30" y="603"/>
      <point x="30" y="487" type="curve" smooth="yes"/>
      <point x="30" y="364.999"/>
      <point x="108" y="286"/>
      <point x="235" y="286" type="curve" smooth="yes"/>
    </contour>
    <contour>
      <point x="374" y="310" type="curve"/>
      <point x="237" y="310" type="line" smooth="yes"/>
      <point x="112" y="310"/>
      <point x="54" y="382"/>
      <point x="54" y="488" type="curve" smooth="yes"/>
      <point x="54" y="590"/>
      <point x="108" y="660"/>
      <point x="205" y="660" type="curve" smooth="yes"/>
      <point x="370" y="660"/>
      <point x="374" y="495"/>
    </contour>
  </outline>
</glyph>
<glyph name="percent-ar" format="2">
  <advance width="554"/>
  <unicode hex="066A"/>
  <note>
uni066A
</note>
  <outline>
    <contour>
      <point x="109" y="588" type="line"/>
      <point x="109" y="529" type="line"/>
      <point x="168" y="529" type="line"/>
      <point x="168" y="588" type="line"/>
    </contour>
    <contour>
      <point x="476" y="674" type="line"/>
      <point x="50" y="0" type="line"/>
      <point x="79" y="0" type="line"/>
      <point x="504" y="674" type="line"/>
    </contour>
    <contour>
      <point x="382" y="141" type="line"/>
      <point x="382" y="82" type="line"/>
      <point x="441" y="82" type="line"/>
      <point x="441" y="141" type="line"/>
    </contour>
  </outline>
</glyph>
<glyph name="decimalseparator-ar" format="2">
  <advance width="229"/>
  <unicode hex="066B"/>
  <note>
uni066B
</note>
  <outline>
    <contour>
      <point x="65" y="-129" type="curve"/>
      <point x="82" y="-129" type="line"/>
      <point x="119" y="-35"/>
      <point x="143" y="43"/>
      <point x="159" y="105" type="curve"/>
      <point x="152" y="116" type="line"/>
      <point x="131" y="116" type="line"/>
      <point x="122" y="76"/>
      <point x="84" y="-79"/>
    </contour>
  </outline>
</glyph>
<glyph name="thousandseparator-ar" format="2">
  <advance width="225"/>
  <unicode hex="066C"/>
  <note>
uni066C
</note>
  <outline>
    <contour>
      <point x="65" y="141" type="curve"/>
      <point x="82" y="141" type="line"/>
      <point x="119" y="235"/>
      <point x="143" y="313"/>
      <point x="159" y="375" type="curve"/>
      <point x="152" y="386" type="line"/>
      <point x="131" y="386" type="line"/>
      <point x="122" y="346"/>
      <point x="84" y="191"/>
    </contour>
  </outline>
</glyph>
<glyph name="asterisk-ar" format="2">
  <advance width="537"/>
  <unicode hex="066D"/>
  <note>
uni066D
</note>
  <outline>
    <contour>
      <point x="116" y="349" type="line"/>
      <point x="179" y="317" type="line"/>
      <point x="272" y="515" type="line"/>
      <point x="374" y="318" type="line"/>
      <point x="434" y="349" type="line"/>
      <point x="294" y="528" type="line"/>
      <point x="505" y="548" type="line"/>
      <point x="495" y="615" type="line"/>
      <point x="285" y="548" type="line"/>
      <point x="308" y="760" type="line"/>
      <point x="239" y="760" type="line"/>
      <point x="263" y="548" type="line"/>
      <point x="57" y="619" type="line"/>
      <point x="45" y="552" type="line"/>
      <point x="251" y="527" type="line"/>
    </contour>
  </outline>
</glyph>
<glyph name="behDotless-ar" format="2">
  <advance width="689"/>
  <unicode hex="066E"/>
  <note>
uni066E
</note>
  <anchor x="391" y="-78" name="bottom"/>
  <anchor x="344" y="0" name="ring"/>
  <anchor x="344" y="462" name="top"/>
  <outline>
    <contour>
      <point x="245" y="0" type="curve" smooth="yes"/>
      <point x="604" y="0" type="line"/>
      <point x="604" y="475" type="line"/>
      <point x="580" y="475" type="line"/>
      <point x="580" y="24" type="line"/>
      <point x="253" y="24" type="line" smooth="yes"/>
      <point x="136" y="24"/>
      <point x="90" y="92"/>
      <point x="90" y="190" type="curve" smooth="yes"/>
      <point x="90" y="245"/>
      <point x="96" y="288"/>
      <point x="110" y="334" type="curve"/>
      <point x="89" y="334" type="line"/>
      <point x="73" y="294"/>
      <point x="65" y="224"/>
      <point x="65" y="187" type="curve" smooth="yes"/>
      <point x="65" y="74"/>
      <point x="133" y="0"/>
    </contour>
  </outline>
</glyph>
<glyph name="qafDotless-ar" format="2">
  <advance width="790"/>
  <unicode hex="066F"/>
  <note>
uni066F
</note>
  <anchor x="439" y="-312" name="bottom"/>
  <anchor x="586" y="566" name="top"/>
  <outline>
    <contour>
      <point x="265" y="-240" type="curve" smooth="yes"/>
      <point x="490" y="-240" type="line" smooth="yes"/>
      <point x="633" y="-240"/>
      <point x="705" y="-161"/>
      <point x="705" y="-38" type="curve" smooth="yes"/>
      <point x="705" y="475" type="line"/>
      <point x="620" y="475" type="line" smooth="yes"/>
      <point x="465" y="475"/>
      <point x="365" y="359"/>
      <point x="365" y="201" type="curve" smooth="yes"/>
      <point x="365" y="96"/>
      <point x="419" y="0"/>
      <point x="559" y="0" type="curve" smooth="yes"/>
      <point x="681" y="0" type="line"/>
      <point x="681" y="-43" type="line" smooth="yes"/>
      <point x="681" y="-160"/>
      <point x="602" y="-216"/>
      <point x="496" y="-216" type="curve" smooth="yes"/>
      <point x="269" y="-216" type="line" smooth="yes"/>
      <point x="138" y="-216"/>
      <point x="86" y="-158"/>
      <point x="86" y="-8" type="curve" smooth="yes"/>
      <point x="86" y="70"/>
      <point x="103" y="148"/>
      <point x="119" y="213" type="curve"/>
      <point x="96" y="213" type="line"/>
      <point x="73" y="130"/>
      <point x="62" y="55"/>
      <point x="62" y="-16" type="curve" smooth="yes"/>
      <point x="62" y="-173"/>
      <point x="130" y="-240"/>
    </contour>
    <contour>
      <point x="681" y="24" type="line"/>
      <point x="558" y="24" type="line" smooth="yes"/>
      <point x="434" y="24"/>
      <point x="389" y="110"/>
      <point x="389" y="207" type="curve" smooth="yes"/>
      <point x="389" y="341"/>
      <point x="475" y="451"/>
      <point x="621" y="451" type="curve" smooth="yes"/>
      <point x="681" y="451" type="line"/>
    </contour>
  </outline>
</glyph>
<glyph name="keheh-ar" format="2">
  <advance width="729"/>
  <unicode hex="06A9"/>
  <note>
uni06A9
</note>
  <anchor x="384" y="-78" name="bottom"/>
  <anchor x="325" y="700" name="top"/>
  <outline>
    <contour>
      <point x="203" y="0" type="curve" smooth="yes"/>
      <point x="655" y="0" type="line"/>
      <point x="655" y="254" type="line" smooth="yes"/>
      <point x="655" y="390"/>
      <point x="577" y="438"/>
      <point x="431" y="438" type="curve" smooth="yes"/>
      <point x="281" y="438" type="line"/>
      <point x="326" y="561"/>
      <point x="468" y="704"/>
      <point x="595" y="763" type="curve"/>
      <point x="586" y="785" type="line"/>
      <point x="450" y="723"/>
      <point x="314" y="585"/>
      <point x="255" y="438" type="curve"/>
      <point x="255" y="414" type="line"/>
      <point x="431" y="414" type="line" smooth="yes"/>
      <point x="566" y="414"/>
      <point x="631" y="374"/>
      <point x="631" y="252" type="curve" smooth="yes"/>
      <point x="631" y="24" type="line"/>
      <point x="202" y="24" type="line" smooth="yes"/>
      <point x="124" y="24"/>
      <point x="89" y="70"/>
      <point x="89" y="158" type="curve" smooth="yes"/>
      <point x="89" y="197"/>
      <point x="93" y="237"/>
      <point x="103" y="274" type="curve"/>
      <point x="80" y="274" type="line"/>
      <point x="69" y="233"/>
      <point x="65" y="195"/>
      <point x="65" y="157" type="curve" smooth="yes"/>
      <point x="65" y="49"/>
      <point x="116" y="0"/>
    </contour>
  </outline>
</glyph>
<glyph name="kafswash-ar" format="2">
  <advance width="1111"/>
  <unicode hex="06AA"/>
  <note>
uni06AA
</note>
  <anchor x="586" y="-78" name="bottom"/>
  <anchor x="459" y="684" name="top"/>
  <outline>
    <contour>
      <point x="275" y="0" type="curve" smooth="yes"/>
      <point x="1036" y="0" type="line"/>
      <point x="1036" y="103" type="line" smooth="yes"/>
      <point x="1036" y="241"/>
      <point x="953" y="293"/>
      <point x="805" y="293" type="curve" smooth="yes"/>
      <point x="286" y="293" type="line"/>
      <point x="339" y="413"/>
      <point x="471" y="548"/>
      <point x="601" y="613" type="curve"/>
      <point x="593" y="636" type="line"/>
      <point x="457" y="571"/>
      <point x="324" y="431"/>
      <point x="262" y="295" type="curve"/>
      <point x="262" y="269" type="line"/>
      <point x="806" y="269" type="line" smooth="yes"/>
      <point x="951" y="269"/>
      <point x="1012" y="217"/>
      <point x="1012" y="103" type="curve" smooth="yes"/>
      <point x="1012" y="24" type="line"/>
      <point x="262" y="24" type="line" smooth="yes"/>
      <point x="152" y="24"/>
      <point x="67" y="44"/>
      <point x="22" y="64" type="curve"/>
      <point x="17" y="53" type="line"/>
      <point x="95" y="15"/>
      <point x="164" y="0"/>
    </contour>
  </outline>
</glyph>
<glyph name="kafRing-ar" format="2">
  <advance width="729"/>
  <unicode hex="06AB"/>
  <note>
uni06AB
</note>
  <anchor x="391" y="-78" name="bottom"/>
  <anchor x="342" y="732" name="top"/>
  <outline>
    <contour>
      <point x="501" y="569" type="curve" smooth="yes"/>
      <point x="545" y="569"/>
      <point x="581" y="602"/>
      <point x="581" y="649" type="curve" smooth="yes"/>
      <point x="581" y="691"/>
      <point x="556" y="720"/>
      <point x="517" y="726" type="curve"/>
      <point x="543" y="741"/>
      <point x="570" y="753"/>
      <point x="595" y="763" type="curve"/>
      <point x="586" y="786" type="line"/>
      <point x="449" y="733"/>
      <point x="314" y="618"/>
      <point x="255" y="494" type="curve"/>
      <point x="255" y="470" type="line"/>
      <point x="431" y="470" type="line" smooth="yes"/>
      <point x="566" y="470"/>
      <point x="631" y="416"/>
      <point x="631" y="252" type="curve" smooth="yes"/>
      <point x="631" y="24" type="line"/>
      <point x="202" y="24" type="line" smooth="yes"/>
      <point x="124" y="24"/>
      <point x="89" y="70"/>
      <point x="89" y="158" type="curve" smooth="yes"/>
      <point x="89" y="197"/>
      <point x="93" y="237"/>
      <point x="103" y="274" type="curve"/>
      <point x="80" y="274" type="line"/>
      <point x="69" y="233"/>
      <point x="65" y="195"/>
      <point x="65" y="157" type="curve" smooth="yes"/>
      <point x="65" y="49"/>
      <point x="116" y="0"/>
      <point x="203" y="0" type="curve" smooth="yes"/>
      <point x="655" y="0" type="line"/>
      <point x="655" y="254" type="line" smooth="yes"/>
      <point x="655" y="431"/>
      <point x="577" y="494"/>
      <point x="431" y="494" type="curve" smooth="yes"/>
      <point x="281" y="494" type="line"/>
      <point x="305" y="550"/>
      <point x="358" y="610"/>
      <point x="423" y="662" type="curve"/>
      <point x="413" y="604"/>
      <point x="449" y="569"/>
    </contour>
    <contour>
      <point x="500" y="593" type="curve" smooth="yes"/>
      <point x="465" y="593"/>
      <point x="443" y="613"/>
      <point x="443" y="650" type="curve" smooth="yes"/>
      <point x="443" y="686"/>
      <point x="469" y="707"/>
      <point x="500" y="707" type="curve" smooth="yes"/>
      <point x="531" y="707"/>
      <point x="557" y="686"/>
      <point x="557" y="650" type="curve" smooth="yes"/>
      <point x="557" y="615"/>
      <point x="531" y="593"/>
    </contour>
  </outline>
</glyph>
<glyph name="noonghunna-ar" format="2">
  <advance width="583"/>
  <unicode hex="06BA"/>
  <note>
uni06BA
</note>
  <anchor x="291" y="-322" name="bottom"/>
  <anchor x="274" y="491" name="top"/>
  <outline>
    <contour>
      <point x="231" y="-240" type="curve" smooth="yes"/>
      <point x="301" y="-240" type="line" smooth="yes"/>
      <point x="445" y="-240"/>
      <point x="498" y="-169"/>
      <point x="498" y="-27" type="curve" smooth="yes"/>
      <point x="498" y="475" type="line"/>
      <point x="474" y="475" type="line"/>
      <point x="474" y="-29" type="line" smooth="yes"/>
      <point x="474" y="-166"/>
      <point x="420" y="-216"/>
      <point x="302" y="-216" type="curve" smooth="yes"/>
      <point x="235" y="-216" type="line" smooth="yes"/>
      <point x="126" y="-216"/>
      <point x="89" y="-140"/>
      <point x="89" y="15" type="curve" smooth="yes"/>
      <point x="89" y="77"/>
      <point x="103" y="142"/>
      <point x="123" y="183" type="curve"/>
      <point x="101" y="184" type="line"/>
      <point x="76" y="135"/>
      <point x="65" y="63"/>
      <point x="65" y="7" type="curve" smooth="yes"/>
      <point x="65" y="-104"/>
      <point x="89" y="-178"/>
      <point x="140" y="-214" type="curve" smooth="yes"/>
      <point x="164" y="-231"/>
      <point x="194" y="-240"/>
    </contour>
  </outline>
</glyph>
<glyph name="wawring-ar" format="2">
  <advance width="502"/>
  <unicode hex="06C4"/>
  <note>
uni06C4
</note>
  <anchor x="239" y="-333" name="bottom"/>
  <anchor x="241" y="546" name="top"/>
  <outline>
    <contour>
      <point x="269" y="-273" type="curve"/>
      <point x="283" y="-293" type="line"/>
      <point x="385" y="-217"/>
      <point x="415" y="-157"/>
      <point x="415" y="-63" type="curve" smooth="yes"/>
      <point x="415" y="475" type="line"/>
      <point x="332" y="475" type="line" smooth="yes"/>
      <point x="157" y="475"/>
      <point x="75" y="368"/>
      <point x="75" y="223" type="curve" smooth="yes"/>
      <point x="75" y="76"/>
      <point x="154" y="0"/>
      <point x="293" y="0" type="curve" smooth="yes"/>
      <point x="391" y="0" type="line"/>
      <point x="391" y="-77" type="line" smooth="yes"/>
      <point x="391" y="-89"/>
      <point x="391" y="-98"/>
      <point x="389" y="-107" type="curve"/>
      <point x="376" y="-73"/>
      <point x="350" y="-60"/>
      <point x="323" y="-60" type="curve" smooth="yes"/>
      <point x="278" y="-60"/>
      <point x="246" y="-95"/>
      <point x="246" y="-135" type="curve" smooth="yes"/>
      <point x="246" y="-187"/>
      <point x="300" y="-224"/>
      <point x="353" y="-196" type="curve"/>
      <point x="323" y="-233"/>
      <point x="292" y="-256"/>
    </contour>
    <contour>
      <point x="391" y="24" type="line"/>
      <point x="283" y="24" type="line" smooth="yes"/>
      <point x="161" y="24"/>
      <point x="99" y="92"/>
      <point x="99" y="221" type="curve" smooth="yes"/>
      <point x="99" y="371"/>
      <point x="186" y="451"/>
      <point x="314" y="451" type="curve" smooth="yes"/>
      <point x="391" y="451" type="line"/>
    </contour>
    <contour>
      <point x="320" y="-185" type="curve" smooth="yes"/>
      <point x="291" y="-185"/>
      <point x="270" y="-164"/>
      <point x="270" y="-135" type="curve" smooth="yes"/>
      <point x="270" y="-107"/>
      <point x="292" y="-82"/>
      <point x="323" y="-82" type="curve" smooth="yes"/>
      <point x="347" y="-82"/>
      <point x="373" y="-101"/>
      <point x="373" y="-134" type="curve" smooth="yes"/>
      <point x="373" y="-161"/>
      <point x="353" y="-185"/>
    </contour>
  </outline>
</glyph>
<glyph name="yehTail-ar" format="2">
  <advance width="916"/>
  <unicode hex="06CD"/>
  <note>
uni06CD
</note>
  <anchor x="511" y="-322" name="bottom"/>
  <anchor x="294" y="292" name="top"/>
  <outline>
    <contour>
      <point x="252" y="193" type="curve"/>
      <point x="241" y="214" type="line"/>
      <point x="60" y="143" type="line"/>
      <point x="67" y="128" type="line"/>
      <point x="227" y="184" type="line"/>
      <point x="203" y="120"/>
      <point x="195" y="66"/>
      <point x="195" y="14" type="curve" smooth="yes"/>
      <point x="195" y="-155"/>
      <point x="265" y="-240"/>
      <point x="396" y="-240" type="curve" smooth="yes"/>
      <point x="590" y="-240" type="line" smooth="yes"/>
      <point x="726" y="-240"/>
      <point x="807" y="-168"/>
      <point x="807" y="-67" type="curve" smooth="yes"/>
      <point x="807" y="-18"/>
      <point x="779" y="16"/>
      <point x="756" y="39" type="curve" smooth="yes"/>
      <point x="735" y="60"/>
      <point x="706" y="86"/>
      <point x="645" y="120" type="curve" smooth="yes"/>
      <point x="596" y="147"/>
      <point x="543" y="173"/>
      <point x="543" y="220" type="curve" smooth="yes"/>
      <point x="543" y="321"/>
      <point x="659" y="442"/>
      <point x="764" y="442" type="curve" smooth="yes"/>
      <point x="809" y="442"/>
      <point x="854" y="418"/>
      <point x="868" y="410" type="curve"/>
      <point x="883" y="429" type="line"/>
      <point x="861" y="443"/>
      <point x="815" y="466"/>
      <point x="768" y="466" type="curve" smooth="yes"/>
      <point x="680" y="466"/>
      <point x="600" y="406"/>
      <point x="554" y="330" type="curve" smooth="yes"/>
      <point x="531" y="292"/>
      <point x="519" y="252"/>
      <point x="519" y="220" type="curve" smooth="yes"/>
      <point x="519" y="182"/>
      <point x="541" y="158"/>
      <point x="559" y="145" type="curve" smooth="yes"/>
      <point x="575" y="133"/>
      <point x="596" y="120"/>
      <point x="640" y="95" type="curve" smooth="yes"/>
      <point x="694" y="64"/>
      <point x="783" y="5"/>
      <point x="783" y="-68" type="curve" smooth="yes"/>
      <point x="783" y="-142"/>
      <point x="726" y="-216"/>
      <point x="591" y="-216" type="curve" smooth="yes"/>
      <point x="396" y="-216" type="line" smooth="yes"/>
      <point x="280" y="-216"/>
      <point x="219" y="-143"/>
      <point x="219" y="16" type="curve" smooth="yes"/>
      <point x="219" y="66"/>
      <point x="229" y="128"/>
    </contour>
  </outline>
</glyph>
<glyph name="yehbarree-ar" format="2">
  <advance width="577"/>
  <unicode hex="06D2"/>
  <note>
uni06D2
</note>
  <anchor x="371" y="-251" name="bottom"/>
  <anchor x="288" y="361" name="top"/>
  <outline>
    <contour>
      <point x="136" y="-166" type="curve" smooth="yes"/>
      <point x="602" y="-166" type="line"/>
      <point x="602" y="-142" type="line"/>
      <point x="135" y="-142" type="line" smooth="yes"/>
      <point x="93" y="-142"/>
      <point x="69" y="-111"/>
      <point x="69" y="-69" type="curve" smooth="yes"/>
      <point x="69" y="-31"/>
      <point x="88" y="-6"/>
      <point x="121" y="15" type="curve" smooth="yes"/>
      <point x="136" y="24"/>
      <point x="175" y="45"/>
      <point x="218" y="64" type="curve" smooth="yes"/>
      <point x="357" y="125"/>
      <point x="390" y="146"/>
      <point x="413" y="196" type="curve" smooth="yes"/>
      <point x="422" y="216"/>
      <point x="427" y="243"/>
      <point x="427" y="277" type="curve" smooth="yes"/>
      <point x="427" y="315" type="line"/>
      <point x="403" y="315" type="line"/>
      <point x="403" y="274" type="line" smooth="yes"/>
      <point x="403" y="217"/>
      <point x="386" y="181"/>
      <point x="348" y="156" type="curve" smooth="yes"/>
      <point x="329" y="143"/>
      <point x="297" y="124"/>
      <point x="233" y="97" type="curve" smooth="yes"/>
      <point x="168" y="70"/>
      <point x="95" y="39"/>
      <point x="65" y="-4" type="curve" smooth="yes"/>
      <point x="55" y="-19"/>
      <point x="45" y="-44"/>
      <point x="45" y="-69" type="curve" smooth="yes"/>
      <point x="45" y="-128"/>
      <point x="80" y="-166"/>
    </contour>
  </outline>
</glyph>
<glyph name="fullstop-ar" format="2">
  <advance width="171"/>
  <unicode hex="06D4"/>
  <note>
uni06D4
</note>
  <outline>
    <contour>
      <point x="176" y="24" type="curve" smooth="yes"/>
      <point x="-5" y="24" type="line" smooth="yes"/>
      <point x="-8" y="24"/>
      <point x="-10" y="23"/>
      <point x="-10" y="20" type="curve" smooth="yes"/>
      <point x="-10" y="5" type="line" smooth="yes"/>
      <point x="-10" y="2"/>
      <point x="-8" y="0"/>
      <point x="-5" y="0" type="curve" smooth="yes"/>
      <point x="176" y="0" type="line" smooth="yes"/>
      <point x="179" y="0"/>
      <point x="181" y="2"/>
      <point x="181" y="5" type="curve" smooth="yes"/>
      <point x="181" y="20" type="line" smooth="yes"/>
      <point x="181" y="23"/>
      <point x="179" y="24"/>
    </contour>
  </outline>
</glyph>
<glyph name="sadLamAlefMaksuraabove-ar" format="2">
  <unicode hex="06D6"/>
  <note>
uni06D6
</note>
  <anchor x="0" y="802" name="_top"/>
  <anchor x="0" y="802" name="_top2"/>
  <anchor x="1" y="1267" name="top"/>
  <outline>
    <contour>
      <point x="-121" y="966" type="curve" smooth="yes"/>
      <point x="184" y="966" type="line"/>
      <point x="184" y="1036" type="line" smooth="yes"/>
      <point x="184" y="1105"/>
      <point x="155" y="1134"/>
      <point x="99" y="1134" type="curve" smooth="yes"/>
      <point x="61" y="1134"/>
      <point x="27" y="1115"/>
      <point x="-3" y="1063" type="curve"/>
      <point x="-3" y="1121" type="line"/>
      <point x="-21" y="1121" type="line"/>
      <point x="-21" y="984" type="line"/>
      <point x="-82" y="984" type="line"/>
      <point x="-82" y="1237" type="line"/>
      <point x="-100" y="1237" type="line"/>
      <point x="-100" y="984" type="line"/>
      <point x="-121" y="984" type="line" smooth="yes"/>
      <point x="-160" y="984"/>
      <point x="-183" y="969"/>
      <point x="-183" y="927" type="curve" smooth="yes"/>
      <point x="-183" y="880"/>
      <point x="-160" y="868"/>
      <point x="-131" y="868" type="curve" smooth="yes"/>
      <point x="-11" y="868" type="line"/>
      <point x="-11" y="886" type="line"/>
      <point x="-131" y="886" type="line" smooth="yes"/>
      <point x="-158" y="886"/>
      <point x="-165" y="900"/>
      <point x="-165" y="926" type="curve" smooth="yes"/>
      <point x="-165" y="956"/>
      <point x="-153" y="966"/>
    </contour>
    <contour>
      <point x="166" y="984" type="line"/>
      <point x="-3" y="984" type="line"/>
      <point x="-3" y="1039" type="line"/>
      <point x="39" y="1105"/>
      <point x="71" y="1116"/>
      <point x="100" y="1116" type="curve" smooth="yes"/>
      <point x="146" y="1116"/>
      <point x="166" y="1094"/>
      <point x="166" y="1033" type="curve" smooth="yes"/>
    </contour>
  </outline>
</glyph>
<glyph name="qafLamAlefMaksuraabove-ar" format="2">
  <unicode hex="06D7"/>
  <note>
uni06D7
</note>
  <anchor x="0" y="813" name="_top"/>
  <anchor x="0" y="812" name="_top2"/>
  <anchor x="2" y="1269" name="top"/>
  <outline>
    <contour>
      <point x="53" y="987" type="curve"/>
      <point x="-57" y="987" type="line"/>
      <point x="-57" y="1240" type="line"/>
      <point x="-75" y="1240" type="line"/>
      <point x="-75" y="987" type="line"/>
      <point x="-96" y="987" type="line" smooth="yes"/>
      <point x="-137" y="987"/>
      <point x="-156" y="976"/>
      <point x="-156" y="930" type="curve" smooth="yes"/>
      <point x="-156" y="883"/>
      <point x="-134" y="871"/>
      <point x="-99" y="871" type="curve" smooth="yes"/>
      <point x="14" y="871" type="line"/>
      <point x="14" y="889" type="line"/>
      <point x="-99" y="889" type="line" smooth="yes"/>
      <point x="-132" y="889"/>
      <point x="-138" y="903"/>
      <point x="-138" y="929" type="curve" smooth="yes"/>
      <point x="-138" y="958"/>
      <point x="-127" y="969"/>
      <point x="-96" y="969" type="curve" smooth="yes"/>
      <point x="160" y="969" type="line"/>
      <point x="160" y="1159" type="line"/>
      <point x="127" y="1159" type="line" smooth="yes"/>
      <point x="62" y="1159"/>
      <point x="24" y="1123"/>
      <point x="24" y="1053" type="curve" smooth="yes"/>
      <point x="24" y="1025"/>
      <point x="33" y="997"/>
    </contour>
    <contour>
      <point x="142" y="987" type="line"/>
      <point x="91" y="987" type="line" smooth="yes"/>
      <point x="59" y="987"/>
      <point x="42" y="1019"/>
      <point x="42" y="1055" type="curve" smooth="yes"/>
      <point x="42" y="1113"/>
      <point x="73" y="1141"/>
      <point x="128" y="1141" type="curve" smooth="yes"/>
      <point x="142" y="1141" type="line"/>
    </contour>
    <contour>
      <point x="76" y="1202" type="curve" smooth="yes"/>
      <point x="86" y="1202"/>
      <point x="92" y="1207"/>
      <point x="92" y="1219" type="curve" smooth="yes"/>
      <point x="92" y="1232"/>
      <point x="86" y="1237"/>
      <point x="76" y="1237" type="curve" smooth="yes"/>
      <point x="63" y="1237"/>
      <point x="59" y="1230"/>
      <point x="59" y="1219" type="curve" smooth="yes"/>
      <point x="59" y="1209"/>
      <point x="63" y="1202"/>
    </contour>
    <contour>
      <point x="140" y="1202" type="curve" smooth="yes"/>
      <point x="152" y="1202"/>
      <point x="156" y="1209"/>
      <point x="156" y="1219" type="curve" smooth="yes"/>
      <point x="156" y="1230"/>
      <point x="150" y="1237"/>
      <point x="140" y="1237" type="curve" smooth="yes"/>
      <point x="129" y="1237"/>
      <point x="123" y="1231"/>
      <point x="123" y="1219" type="curve" smooth="yes"/>
      <point x="123" y="1209"/>
      <point x="127" y="1202"/>
    </contour>
  </outline>
</glyph>
<glyph name="meemabove-ar" format="2">
  <unicode hex="06D8"/>
  <note>
uni06D8
</note>
  <anchor x="0" y="1005" name="_top"/>
  <anchor x="0" y="1006" name="_top2"/>
  <anchor x="1" y="1267" name="top"/>
  <outline>
    <contour>
      <point x="-90" y="1055" type="curve" smooth="yes"/>
      <point x="8" y="1055" type="line" smooth="yes"/>
      <point x="70" y="1055"/>
      <point x="92" y="1093"/>
      <point x="92" y="1156" type="curve" smooth="yes"/>
      <point x="92" y="1208"/>
      <point x="68" y="1239"/>
      <point x="20" y="1239" type="curve" smooth="yes"/>
      <point x="-11" y="1239"/>
      <point x="-35" y="1229"/>
      <point x="-48" y="1209" type="curve"/>
      <point x="-55" y="1195"/>
      <point x="-56" y="1182"/>
      <point x="-56" y="1165" type="curve" smooth="yes"/>
      <point x="-56" y="1137"/>
      <point x="-49" y="1102"/>
      <point x="-35" y="1073" type="curve"/>
      <point x="-90" y="1073" type="line" smooth="yes"/>
      <point x="-91" y="1073"/>
      <point x="-92" y="1072"/>
      <point x="-92" y="1071" type="curve" smooth="yes"/>
      <point x="-92" y="1059" type="line" smooth="yes"/>
      <point x="-92" y="1057"/>
      <point x="-91" y="1055"/>
    </contour>
    <contour>
      <point x="-38" y="1174" type="curve" smooth="yes"/>
      <point x="-38" y="1188"/>
      <point x="-36" y="1197"/>
      <point x="-33" y="1202" type="curve"/>
      <point x="-17" y="1214"/>
      <point x="2" y="1221"/>
      <point x="21" y="1221" type="curve" smooth="yes"/>
      <point x="60" y="1221"/>
      <point x="74" y="1193"/>
      <point x="74" y="1156" type="curve" smooth="yes"/>
      <point x="74" y="1103"/>
      <point x="59" y="1073"/>
      <point x="12" y="1073" type="curve" smooth="yes"/>
      <point x="-19" y="1073" type="line"/>
      <point x="-31" y="1106"/>
      <point x="-38" y="1137"/>
    </contour>
  </outline>
</glyph>
<glyph name="lamAlefabove-ar" format="2">
  <unicode hex="06D9"/>
  <note>
uni06D9
</note>
  <anchor x="0" y="889" name="_top"/>
  <anchor x="0" y="890" name="_top2"/>
  <anchor x="2" y="1269" name="top"/>
  <outline>
    <contour>
      <point x="-103" y="973" type="line"/>
      <point x="-103" y="955" type="line"/>
      <point x="38" y="955" type="line" smooth="yes"/>
      <point x="72" y="955"/>
      <point x="96" y="976"/>
      <point x="96" y="1017" type="curve" smooth="yes"/>
      <point x="96" y="1259" type="line"/>
      <point x="78" y="1259" type="line"/>
      <point x="78" y="1017" type="line" smooth="yes"/>
      <point x="78" y="985"/>
      <point x="61" y="973"/>
      <point x="38" y="973" type="curve" smooth="yes"/>
      <point x="19" y="973" type="line"/>
      <point x="-30" y="1205" type="line"/>
      <point x="-49" y="1205" type="line"/>
      <point x="2" y="973" type="line"/>
    </contour>
  </outline>
</glyph>
<glyph name="jeemabove-ar" format="2">
  <unicode hex="06DA"/>
  <note>
uni06DA
</note>
  <anchor x="0" y="852" name="_top"/>
  <anchor x="0" y="849" name="_top2"/>
  <anchor x="2" y="1269" name="top"/>
  <outline>
    <contour>
      <point x="103" y="1053" type="curve"/>
      <point x="113" y="1066" type="line"/>
      <point x="98" y="1075"/>
      <point x="85" y="1096"/>
      <point x="78" y="1131" type="curve" smooth="yes"/>
      <point x="62" y="1214"/>
      <point x="38" y="1233"/>
      <point x="-10" y="1233" type="curve" smooth="yes"/>
      <point x="-29" y="1233"/>
      <point x="-66" y="1224"/>
      <point x="-87" y="1210" type="curve"/>
      <point x="-81" y="1198" type="line"/>
      <point x="-54" y="1209"/>
      <point x="-27" y="1215"/>
      <point x="-10" y="1215" type="curve" smooth="yes"/>
      <point x="35" y="1215"/>
      <point x="45" y="1190"/>
      <point x="62" y="1126" type="curve" smooth="yes"/>
      <point x="67" y="1107" type="line"/>
      <point x="-52" y="1070"/>
      <point x="-86" y="1032"/>
      <point x="-86" y="985" type="curve" smooth="yes"/>
      <point x="-86" y="934"/>
      <point x="-50" y="912"/>
      <point x="-6" y="912" type="curve" smooth="yes"/>
      <point x="24" y="912"/>
      <point x="42" y="914"/>
      <point x="67" y="918" type="curve"/>
      <point x="66" y="936" type="line"/>
      <point x="43" y="932"/>
      <point x="28" y="930"/>
      <point x="0" y="930" type="curve" smooth="yes"/>
      <point x="-42" y="930"/>
      <point x="-68" y="944"/>
      <point x="-68" y="987" type="curve" smooth="yes"/>
      <point x="-68" y="1040"/>
      <point x="7" y="1070"/>
      <point x="72" y="1090" type="curve"/>
      <point x="76" y="1080"/>
      <point x="84" y="1070"/>
    </contour>
    <contour>
      <point x="19" y="976" type="curve" smooth="yes"/>
      <point x="27" y="976"/>
      <point x="36" y="979"/>
      <point x="36" y="993" type="curve" smooth="yes"/>
      <point x="36" y="1007"/>
      <point x="27" y="1010"/>
      <point x="19" y="1010" type="curve" smooth="yes"/>
      <point x="8" y="1010"/>
      <point x="3" y="1002"/>
      <point x="3" y="993" type="curve" smooth="yes"/>
      <point x="3" y="984"/>
      <point x="8" y="976"/>
    </contour>
  </outline>
</glyph>
<glyph name="seenabove-ar" format="2">
  <unicode hex="06DC"/>
  <note>
uni06DC
</note>
  <anchor x="-1" y="461" name="_top"/>
  <anchor x="0" y="466" name="_top2"/>
  <outline>
    <contour>
      <point x="105" y="587" type="curve" smooth="yes"/>
      <point x="137" y="587" type="line"/>
      <point x="137" y="777" type="line"/>
      <point x="119" y="777" type="line"/>
      <point x="119" y="605" type="line"/>
      <point x="106" y="605" type="line" smooth="yes"/>
      <point x="77" y="605"/>
      <point x="61" y="618"/>
      <point x="51" y="630" type="curve"/>
      <point x="52" y="636"/>
      <point x="52" y="642"/>
      <point x="52" y="647" type="curve"/>
      <point x="52" y="746" type="line"/>
      <point x="34" y="746" type="line"/>
      <point x="34" y="648" type="line" smooth="yes"/>
      <point x="34" y="625"/>
      <point x="17" y="605"/>
      <point x="-6" y="605" type="curve" smooth="yes"/>
      <point x="-49" y="605" type="line"/>
      <point x="-49" y="746" type="line"/>
      <point x="-67" y="746" type="line"/>
      <point x="-67" y="585" type="line" smooth="yes"/>
      <point x="-67" y="529"/>
      <point x="-87" y="509"/>
      <point x="-129" y="509" type="curve" smooth="yes"/>
      <point x="-155" y="509" type="line" smooth="yes"/>
      <point x="-206" y="509"/>
      <point x="-213" y="545"/>
      <point x="-213" y="592" type="curve" smooth="yes"/>
      <point x="-213" y="626"/>
      <point x="-207" y="654"/>
      <point x="-199" y="684" type="curve"/>
      <point x="-217" y="684" type="line"/>
      <point x="-225" y="654"/>
      <point x="-231" y="626"/>
      <point x="-231" y="592" type="curve" smooth="yes"/>
      <point x="-231" y="526"/>
      <point x="-213" y="491"/>
      <point x="-155" y="491" type="curve" smooth="yes"/>
      <point x="-129" y="491" type="line" smooth="yes"/>
      <point x="-76" y="491"/>
      <point x="-49" y="519"/>
      <point x="-49" y="587" type="curve"/>
      <point x="-12" y="587" type="line" smooth="yes"/>
      <point x="11" y="587"/>
      <point x="29" y="595"/>
      <point x="42" y="613" type="curve"/>
      <point x="56" y="596"/>
      <point x="77" y="587"/>
    </contour>
  </outline>
</glyph>
<glyph name="hizb-ar" format="2">
  <advance width="1084"/>
  <unicode hex="06DE"/>
  <note>
uni06DE
</note>
  <outline>
    <contour>
      <point x="1060" y="366" type="line"/>
      <point x="909" y="518" type="line"/>
      <point x="909" y="732" type="line"/>
      <point x="694" y="732" type="line"/>
      <point x="542" y="884" type="line"/>
      <point x="391" y="732" type="line"/>
      <point x="176" y="732" type="line"/>
      <point x="176" y="518" type="line"/>
      <point x="24" y="366" type="line"/>
      <point x="176" y="214" type="line"/>
      <point x="176" y="0" type="line"/>
      <point x="391" y="0" type="line"/>
      <point x="542" y="-152" type="line"/>
      <point x="694" y="0" type="line"/>
      <point x="909" y="0" type="line"/>
      <point x="909" y="214" type="line"/>
    </contour>
    <contour>
      <point x="213" y="178" type="line"/>
      <point x="354" y="37" type="line"/>
      <point x="213" y="37" type="line"/>
    </contour>
    <contour>
      <point x="354" y="696" type="line"/>
      <point x="213" y="555" type="line"/>
      <point x="213" y="696" type="line"/>
    </contour>
    <contour>
      <point x="872" y="555" type="line"/>
      <point x="730" y="696" type="line"/>
      <point x="872" y="696" type="line"/>
    </contour>
    <contour>
      <point x="872" y="37" type="line"/>
      <point x="730" y="37" type="line"/>
      <point x="872" y="178" type="line"/>
    </contour>
    <contour>
      <point x="442" y="0" type="line"/>
      <point x="642" y="0" type="line"/>
      <point x="542" y="-100" type="line"/>
    </contour>
    <contour>
      <point x="176" y="466" type="line"/>
      <point x="176" y="266" type="line"/>
      <point x="76" y="366" type="line"/>
    </contour>
    <contour>
      <point x="642" y="732" type="line"/>
      <point x="442" y="732" type="line"/>
      <point x="542" y="833" type="line"/>
    </contour>
    <contour>
      <point x="872" y="503" type="line"/>
      <point x="872" y="229" type="line"/>
      <point x="679" y="37" type="line"/>
      <point x="406" y="37" type="line"/>
      <point x="213" y="229" type="line"/>
      <point x="213" y="503" type="line"/>
      <point x="406" y="696" type="line"/>
      <point x="679" y="696" type="line"/>
    </contour>
    <contour>
      <point x="1008" y="366" type="line"/>
      <point x="909" y="266" type="line"/>
      <point x="909" y="466" type="line"/>
    </contour>
    <contour>
      <point x="648" y="366" type="curve" smooth="yes"/>
      <point x="648" y="425"/>
      <point x="601" y="472"/>
      <point x="542" y="472" type="curve" smooth="yes"/>
      <point x="485" y="472"/>
      <point x="436" y="425"/>
      <point x="436" y="366" type="curve" smooth="yes"/>
      <point x="436" y="307"/>
      <point x="485" y="260"/>
      <point x="542" y="260" type="curve" smooth="yes"/>
      <point x="601" y="260"/>
      <point x="648" y="307"/>
    </contour>
    <contour>
      <point x="612" y="366" type="curve" smooth="yes"/>
      <point x="612" y="327"/>
      <point x="581" y="296"/>
      <point x="542" y="296" type="curve" smooth="yes"/>
      <point x="503" y="296"/>
      <point x="473" y="327"/>
      <point x="473" y="366" type="curve" smooth="yes"/>
      <point x="473" y="405"/>
      <point x="503" y="436"/>
      <point x="542" y="436" type="curve" smooth="yes"/>
      <point x="581" y="436"/>
      <point x="612" y="405"/>
    </contour>
  </outline>
</glyph>
<glyph name="sukunround-ar" format="2">
  <unicode hex="06DF"/>
  <note>
uni06DF
</note>
  <anchor x="0" y="488" name="_top"/>
  <anchor x="0" y="488" name="_top2"/>
  <anchor x="0" y="574" name="top"/>
  <outline>
    <contour>
      <point x="0" y="502" type="curve" smooth="yes"/>
      <point x="14" y="502"/>
      <point x="26" y="509"/>
      <point x="26" y="530" type="curve" smooth="yes"/>
      <point x="26" y="552"/>
      <point x="11" y="558"/>
      <point x="0" y="558" type="curve" smooth="yes"/>
      <point x="-16" y="558"/>
      <point x="-26" y="550"/>
      <point x="-26" y="530" type="curve" smooth="yes"/>
      <point x="-26" y="510"/>
      <point x="-16" y="502"/>
    </contour>
  </outline>
</glyph>
<glyph name="sukunoval-ar" format="2">
  <unicode hex="06E0"/>
  <note>
uni06E0
</note>
  <anchor x="98" y="1025" name="_top"/>
  <anchor x="98" y="1242" name="top"/>
  <outline>
    <contour>
      <point x="97" y="1063" type="curve" smooth="yes"/>
      <point x="142" y="1063"/>
      <point x="159" y="1107"/>
      <point x="159" y="1155" type="curve" smooth="yes"/>
      <point x="159" y="1201"/>
      <point x="142" y="1242"/>
      <point x="99" y="1242" type="curve" smooth="yes"/>
      <point x="52" y="1242"/>
      <point x="37" y="1192"/>
      <point x="37" y="1150" type="curve" smooth="yes"/>
      <point x="37" y="1106"/>
      <point x="53" y="1063"/>
    </contour>
    <contour>
      <point x="98" y="1080" type="curve" smooth="yes"/>
      <point x="64" y="1080"/>
      <point x="59" y="1126"/>
      <point x="59" y="1151" type="curve" smooth="yes"/>
      <point x="59" y="1176"/>
      <point x="64" y="1223"/>
      <point x="98" y="1223" type="curve" smooth="yes"/>
      <point x="134" y="1223"/>
      <point x="138" y="1176"/>
      <point x="138" y="1151" type="curve" smooth="yes"/>
      <point x="138" y="1126"/>
      <point x="134" y="1080"/>
    </contour>
  </outline>
</glyph>
<glyph name="hahabove-ar" format="2">
  <unicode hex="06E1"/>
  <note>
uni06E1
</note>
  <anchor x="0" y="459" name="_top"/>
  <anchor x="0" y="459" name="_top2"/>
  <anchor x="-4" y="699" name="top"/>
  <outline>
    <contour>
      <point x="-100" y="485" type="curve" smooth="yes"/>
      <point x="94" y="485" type="line"/>
      <point x="94" y="499" type="line"/>
      <point x="81" y="510"/>
      <point x="67" y="539"/>
      <point x="62" y="588" type="curve" smooth="yes"/>
      <point x="55" y="652"/>
      <point x="33" y="679"/>
      <point x="-8" y="679" type="curve" smooth="yes"/>
      <point x="-29" y="679"/>
      <point x="-49" y="673"/>
      <point x="-70" y="660" type="curve"/>
      <point x="-62" y="644" type="line"/>
      <point x="-37" y="658"/>
      <point x="-24" y="661"/>
      <point x="-7" y="661" type="curve" smooth="yes"/>
      <point x="23" y="661"/>
      <point x="36" y="642"/>
      <point x="44" y="589" type="curve" smooth="yes"/>
      <point x="51" y="543"/>
      <point x="59" y="518"/>
      <point x="71" y="504" type="curve"/>
      <point x="71" y="503" type="line"/>
      <point x="-100" y="503" type="line" smooth="yes"/>
      <point x="-101" y="503"/>
      <point x="-102" y="502"/>
      <point x="-102" y="501" type="curve" smooth="yes"/>
      <point x="-102" y="487" type="line" smooth="yes"/>
      <point x="-102" y="486"/>
      <point x="-101" y="485"/>
    </contour>
  </outline>
</glyph>
<glyph name="meemStopabove-ar" format="2">
  <unicode hex="06E2"/>
  <note>
uni06E2
</note>
  <anchor x="0" y="912" name="_top"/>
  <anchor x="0" y="912" name="_top2"/>
  <anchor x="2" y="1269" name="top"/>
  <outline>
    <contour>
      <point x="-85" y="1023" type="curve" smooth="yes"/>
      <point x="-85" y="930" type="line"/>
      <point x="-67" y="930" type="line"/>
      <point x="-67" y="1027" type="line" smooth="yes"/>
      <point x="-67" y="1045"/>
      <point x="-60" y="1058"/>
      <point x="-35" y="1058" type="curve" smooth="yes"/>
      <point x="8" y="1058" type="line" smooth="yes"/>
      <point x="70" y="1058"/>
      <point x="92" y="1096"/>
      <point x="92" y="1159" type="curve" smooth="yes"/>
      <point x="92" y="1211"/>
      <point x="68" y="1242"/>
      <point x="20" y="1242" type="curve" smooth="yes"/>
      <point x="-11" y="1242"/>
      <point x="-35" y="1232"/>
      <point x="-48" y="1212" type="curve"/>
      <point x="-55" y="1198"/>
      <point x="-56" y="1185"/>
      <point x="-56" y="1168" type="curve" smooth="yes"/>
      <point x="-56" y="1140"/>
      <point x="-49" y="1105"/>
      <point x="-35" y="1076" type="curve"/>
      <point x="-70" y="1076"/>
      <point x="-85" y="1058"/>
    </contour>
    <contour>
      <point x="-38" y="1177" type="curve" smooth="yes"/>
      <point x="-38" y="1191"/>
      <point x="-36" y="1200"/>
      <point x="-33" y="1205" type="curve"/>
      <point x="-17" y="1217"/>
      <point x="2" y="1224"/>
      <point x="21" y="1224" type="curve" smooth="yes"/>
      <point x="60" y="1224"/>
      <point x="74" y="1196"/>
      <point x="74" y="1159" type="curve" smooth="yes"/>
      <point x="74" y="1106"/>
      <point x="59" y="1076"/>
      <point x="12" y="1076" type="curve" smooth="yes"/>
      <point x="-19" y="1076" type="line"/>
      <point x="-31" y="1109"/>
      <point x="-38" y="1140"/>
    </contour>
  </outline>
</glyph>
<glyph name="seenbelow-ar" format="2">
  <unicode hex="06E3"/>
  <note>
uni06E3
</note>
  <anchor x="18" y="30" name="_bottom"/>
  <anchor x="19" y="28" name="_bottom2"/>
  <anchor x="2" y="-268" name="bottom"/>
  <outline>
    <contour>
      <point x="146" y="-144" type="curve" smooth="yes"/>
      <point x="178" y="-144" type="line"/>
      <point x="178" y="46" type="line"/>
      <point x="160" y="46" type="line"/>
      <point x="160" y="-126" type="line"/>
      <point x="147" y="-126" type="line" smooth="yes"/>
      <point x="118" y="-126"/>
      <point x="102" y="-113"/>
      <point x="92" y="-100" type="curve"/>
      <point x="93" y="-95"/>
      <point x="93" y="-89"/>
      <point x="93" y="-84" type="curve"/>
      <point x="93" y="15" type="line"/>
      <point x="75" y="15" type="line"/>
      <point x="75" y="-83" type="line" smooth="yes"/>
      <point x="75" y="-106"/>
      <point x="58" y="-126"/>
      <point x="35" y="-126" type="curve" smooth="yes"/>
      <point x="-8" y="-126" type="line"/>
      <point x="-8" y="15" type="line"/>
      <point x="-26" y="15" type="line"/>
      <point x="-26" y="-146" type="line" smooth="yes"/>
      <point x="-26" y="-202"/>
      <point x="-46" y="-222"/>
      <point x="-88" y="-222" type="curve" smooth="yes"/>
      <point x="-114" y="-222" type="line" smooth="yes"/>
      <point x="-165" y="-222"/>
      <point x="-172" y="-186"/>
      <point x="-172" y="-139" type="curve" smooth="yes"/>
      <point x="-172" y="-105"/>
      <point x="-166" y="-77"/>
      <point x="-158" y="-47" type="curve"/>
      <point x="-176" y="-47" type="line"/>
      <point x="-184" y="-77"/>
      <point x="-190" y="-105"/>
      <point x="-190" y="-139" type="curve" smooth="yes"/>
      <point x="-190" y="-205"/>
      <point x="-172" y="-240"/>
      <point x="-114" y="-240" type="curve" smooth="yes"/>
      <point x="-88" y="-240" type="line" smooth="yes"/>
      <point x="-35" y="-240"/>
      <point x="-8" y="-212"/>
      <point x="-8" y="-144" type="curve"/>
      <point x="29" y="-144" type="line" smooth="yes"/>
      <point x="52" y="-144"/>
      <point x="70" y="-136"/>
      <point x="83" y="-118" type="curve"/>
      <point x="97" y="-135"/>
      <point x="118" y="-144"/>
    </contour>
  </outline>
</glyph>
<glyph name="maddalong-ar" format="2">
  <unicode hex="06E4"/>
  <note>
uni06E4
</note>
  <anchor x="0" y="562" name="_top"/>
  <anchor x="0" y="561" name="_top2"/>
  <anchor x="0" y="629" name="top"/>
  <outline>
    <contour>
      <point x="-70" y="559" type="curve"/>
      <point x="-55" y="559" type="line"/>
      <point x="-51" y="582"/>
      <point x="-45" y="588"/>
      <point x="-31" y="588" type="curve" smooth="yes"/>
      <point x="-23" y="588"/>
      <point x="-14" y="585"/>
      <point x="0" y="578" type="curve" smooth="yes"/>
      <point x="13" y="571"/>
      <point x="25" y="565"/>
      <point x="37" y="565" type="curve" smooth="yes"/>
      <point x="57" y="565"/>
      <point x="71" y="586"/>
      <point x="71" y="621" type="curve"/>
      <point x="56" y="621" type="line"/>
      <point x="52" y="598"/>
      <point x="48" y="592"/>
      <point x="36" y="592" type="curve" smooth="yes"/>
      <point x="28" y="592"/>
      <point x="17" y="598"/>
      <point x="6" y="604" type="curve" smooth="yes"/>
      <point x="-9" y="612"/>
      <point x="-20" y="615"/>
      <point x="-30" y="615" type="curve" smooth="yes"/>
      <point x="-50" y="615"/>
      <point x="-66" y="604"/>
    </contour>
  </outline>
</glyph>
<glyph name="wawSmall-ar" format="2">
  <advance width="179"/>
  <unicode hex="06E5"/>
  <note>
uni06E5
</note>
  <outline>
    <contour>
      <point x="79" y="-15" type="curve" smooth="yes"/>
      <point x="136" y="-15"/>
      <point x="159" y="17"/>
      <point x="159" y="64" type="curve" smooth="yes"/>
      <point x="159" y="271" type="line"/>
      <point x="128" y="271" type="line" smooth="yes"/>
      <point x="61" y="271"/>
      <point x="23" y="232"/>
      <point x="23" y="171" type="curve" smooth="yes"/>
      <point x="23" y="107"/>
      <point x="59" y="81"/>
      <point x="112" y="81" type="curve" smooth="yes"/>
      <point x="145" y="81" type="line"/>
      <point x="145" y="61" type="line" smooth="yes"/>
      <point x="145" y="24"/>
      <point x="125" y="-1"/>
      <point x="82" y="-1" type="curve" smooth="yes"/>
      <point x="63" y="-1"/>
      <point x="46" y="6"/>
      <point x="29" y="18" type="curve"/>
      <point x="20" y="7" type="line"/>
      <point x="33" y="-5"/>
      <point x="59" y="-15"/>
    </contour>
    <contour>
      <point x="145" y="95" type="line"/>
      <point x="111" y="95" type="line" smooth="yes"/>
      <point x="59" y="95"/>
      <point x="37" y="122"/>
      <point x="37" y="170" type="curve" smooth="yes"/>
      <point x="37" y="222"/>
      <point x="66" y="257"/>
      <point x="128" y="257" type="curve" smooth="yes"/>
      <point x="145" y="257" type="line"/>
    </contour>
  </outline>
</glyph>
<glyph name="yehSmall-ar" format="2">
  <advance width="263"/>
  <unicode hex="06E6"/>
  <note>
uni06E6
</note>
  <outline>
    <contour>
      <point x="56" y="485" type="curve" smooth="yes"/>
      <point x="243" y="485" type="line"/>
      <point x="243" y="499" type="line"/>
      <point x="58" y="499" type="line" smooth="yes"/>
      <point x="44" y="499"/>
      <point x="32" y="507"/>
      <point x="32" y="524" type="curve" smooth="yes"/>
      <point x="32" y="534"/>
      <point x="36" y="542"/>
      <point x="46" y="550" type="curve" smooth="yes"/>
      <point x="53" y="556"/>
      <point x="69" y="565"/>
      <point x="95" y="576" type="curve" smooth="yes"/>
      <point x="156" y="602"/>
      <point x="173" y="615"/>
      <point x="173" y="663" type="curve" smooth="yes"/>
      <point x="173" y="679" type="line"/>
      <point x="159" y="679" type="line"/>
      <point x="159" y="663" type="line" smooth="yes"/>
      <point x="159" y="628"/>
      <point x="151" y="615"/>
      <point x="97" y="592" type="curve" smooth="yes"/>
      <point x="38" y="567"/>
      <point x="18" y="553"/>
      <point x="18" y="522" type="curve" smooth="yes"/>
      <point x="18" y="496"/>
      <point x="37" y="485"/>
    </contour>
  </outline>
</glyph>
<glyph name="yehabove-ar" format="2">
  <unicode hex="06E7"/>
  <note>
uni06E7
</note>
  <anchor x="-15" y="459" name="_top"/>
  <anchor x="-15" y="469" name="_top2"/>
  <anchor x="-24" y="679" name="top"/>
  <outline>
    <contour>
      <point x="-83" y="485" type="curve" smooth="yes"/>
      <point x="88" y="485" type="line"/>
      <point x="88" y="503" type="line"/>
      <point x="-83" y="503" type="line" smooth="yes"/>
      <point x="-106" y="503"/>
      <point x="-117" y="511"/>
      <point x="-117" y="525" type="curve" smooth="yes"/>
      <point x="-117" y="534"/>
      <point x="-113" y="542"/>
      <point x="-106" y="548" type="curve" smooth="yes"/>
      <point x="-99" y="554"/>
      <point x="-85" y="563"/>
      <point x="-52" y="576" type="curve" smooth="yes"/>
      <point x="8" y="600"/>
      <point x="22" y="612"/>
      <point x="22" y="663" type="curve" smooth="yes"/>
      <point x="22" y="679" type="line"/>
      <point x="4" y="679" type="line"/>
      <point x="4" y="661" type="line" smooth="yes"/>
      <point x="4" y="626"/>
      <point x="1" y="616"/>
      <point x="-55" y="594" type="curve" smooth="yes"/>
      <point x="-118" y="569"/>
      <point x="-135" y="552"/>
      <point x="-135" y="524" type="curve" smooth="yes"/>
      <point x="-135" y="498"/>
      <point x="-117" y="485"/>
    </contour>
  </outline>
</glyph>
